<?xml version="1.0" encoding="utf-8" standalone="no"?>
<!DOCTYPE svg PUBLIC "-//W3C//DTD SVG 1.1//EN"
  "http://www.w3.org/Graphics/SVG/1.1/DTD/svg11.dtd">
<!-- Created with matplotlib (https://matplotlib.org/) -->
<svg height="360pt" version="1.1" viewBox="0 0 1080 360" width="1080pt" xmlns="http://www.w3.org/2000/svg" xmlns:xlink="http://www.w3.org/1999/xlink">
 <defs>
  <style type="text/css">
*{stroke-linecap:butt;stroke-linejoin:round;}
  </style>
 </defs>
 <g id="figure_1">
  <g id="patch_1">
   <path d="M 0 360 
L 1080 360 
L 1080 0 
L 0 0 
z
" style="fill:#ffffff;"/>
  </g>
  <g id="axes_1">
   <g id="patch_2">
    <path d="M 135 315 
L 515.454545 315 
L 515.454545 43.2 
L 135 43.2 
z
" style="fill:#ffffff;"/>
   </g>
   <g id="matplotlib.axis_1">
    <g id="xtick_1">
     <g id="line2d_1">
      <path clip-path="url(#p547181646b)" d="M 152.293388 315 
L 152.293388 43.2 
" style="fill:none;stroke:#b0b0b0;stroke-linecap:square;stroke-width:0.8;"/>
     </g>
     <g id="line2d_2">
      <defs>
       <path d="M 0 0 
L 0 3.5 
" id="mdc212690b4" style="stroke:#000000;stroke-width:0.8;"/>
      </defs>
      <g>
       <use style="stroke:#000000;stroke-width:0.8;" x="152.293388" xlink:href="#mdc212690b4" y="315"/>
      </g>
     </g>
     <g id="text_1">
      <!-- 0 -->
      <defs>
       <path d="M 31.78125 66.40625 
Q 24.171875 66.40625 20.328125 58.90625 
Q 16.5 51.421875 16.5 36.375 
Q 16.5 21.390625 20.328125 13.890625 
Q 24.171875 6.390625 31.78125 6.390625 
Q 39.453125 6.390625 43.28125 13.890625 
Q 47.125 21.390625 47.125 36.375 
Q 47.125 51.421875 43.28125 58.90625 
Q 39.453125 66.40625 31.78125 66.40625 
z
M 31.78125 74.21875 
Q 44.046875 74.21875 50.515625 64.515625 
Q 56.984375 54.828125 56.984375 36.375 
Q 56.984375 17.96875 50.515625 8.265625 
Q 44.046875 -1.421875 31.78125 -1.421875 
Q 19.53125 -1.421875 13.0625 8.265625 
Q 6.59375 17.96875 6.59375 36.375 
Q 6.59375 54.828125 13.0625 64.515625 
Q 19.53125 74.21875 31.78125 74.21875 
z
" id="DejaVuSans-48"/>
      </defs>
      <g transform="translate(149.112138 329.598437)scale(0.1 -0.1)">
       <use xlink:href="#DejaVuSans-48"/>
      </g>
     </g>
    </g>
    <g id="xtick_2">
     <g id="line2d_3">
      <path clip-path="url(#p547181646b)" d="M 238.760331 315 
L 238.760331 43.2 
" style="fill:none;stroke:#b0b0b0;stroke-linecap:square;stroke-width:0.8;"/>
     </g>
     <g id="line2d_4">
      <g>
       <use style="stroke:#000000;stroke-width:0.8;" x="238.760331" xlink:href="#mdc212690b4" y="315"/>
      </g>
     </g>
     <g id="text_2">
      <!-- 90 -->
      <defs>
       <path d="M 10.984375 1.515625 
L 10.984375 10.5 
Q 14.703125 8.734375 18.5 7.8125 
Q 22.3125 6.890625 25.984375 6.890625 
Q 35.75 6.890625 40.890625 13.453125 
Q 46.046875 20.015625 46.78125 33.40625 
Q 43.953125 29.203125 39.59375 26.953125 
Q 35.25 24.703125 29.984375 24.703125 
Q 19.046875 24.703125 12.671875 31.3125 
Q 6.296875 37.9375 6.296875 49.421875 
Q 6.296875 60.640625 12.9375 67.421875 
Q 19.578125 74.21875 30.609375 74.21875 
Q 43.265625 74.21875 49.921875 64.515625 
Q 56.59375 54.828125 56.59375 36.375 
Q 56.59375 19.140625 48.40625 8.859375 
Q 40.234375 -1.421875 26.421875 -1.421875 
Q 22.703125 -1.421875 18.890625 -0.6875 
Q 15.09375 0.046875 10.984375 1.515625 
z
M 30.609375 32.421875 
Q 37.25 32.421875 41.125 36.953125 
Q 45.015625 41.5 45.015625 49.421875 
Q 45.015625 57.28125 41.125 61.84375 
Q 37.25 66.40625 30.609375 66.40625 
Q 23.96875 66.40625 20.09375 61.84375 
Q 16.21875 57.28125 16.21875 49.421875 
Q 16.21875 41.5 20.09375 36.953125 
Q 23.96875 32.421875 30.609375 32.421875 
z
" id="DejaVuSans-57"/>
      </defs>
      <g transform="translate(232.397831 329.598437)scale(0.1 -0.1)">
       <use xlink:href="#DejaVuSans-57"/>
       <use x="63.623047" xlink:href="#DejaVuSans-48"/>
      </g>
     </g>
    </g>
    <g id="xtick_3">
     <g id="line2d_5">
      <path clip-path="url(#p547181646b)" d="M 325.227273 315 
L 325.227273 43.2 
" style="fill:none;stroke:#b0b0b0;stroke-linecap:square;stroke-width:0.8;"/>
     </g>
     <g id="line2d_6">
      <g>
       <use style="stroke:#000000;stroke-width:0.8;" x="325.227273" xlink:href="#mdc212690b4" y="315"/>
      </g>
     </g>
     <g id="text_3">
      <!-- 180 -->
      <defs>
       <path d="M 12.40625 8.296875 
L 28.515625 8.296875 
L 28.515625 63.921875 
L 10.984375 60.40625 
L 10.984375 69.390625 
L 28.421875 72.90625 
L 38.28125 72.90625 
L 38.28125 8.296875 
L 54.390625 8.296875 
L 54.390625 0 
L 12.40625 0 
z
" id="DejaVuSans-49"/>
       <path d="M 31.78125 34.625 
Q 24.75 34.625 20.71875 30.859375 
Q 16.703125 27.09375 16.703125 20.515625 
Q 16.703125 13.921875 20.71875 10.15625 
Q 24.75 6.390625 31.78125 6.390625 
Q 38.8125 6.390625 42.859375 10.171875 
Q 46.921875 13.96875 46.921875 20.515625 
Q 46.921875 27.09375 42.890625 30.859375 
Q 38.875 34.625 31.78125 34.625 
z
M 21.921875 38.8125 
Q 15.578125 40.375 12.03125 44.71875 
Q 8.5 49.078125 8.5 55.328125 
Q 8.5 64.0625 14.71875 69.140625 
Q 20.953125 74.21875 31.78125 74.21875 
Q 42.671875 74.21875 48.875 69.140625 
Q 55.078125 64.0625 55.078125 55.328125 
Q 55.078125 49.078125 51.53125 44.71875 
Q 48 40.375 41.703125 38.8125 
Q 48.828125 37.15625 52.796875 32.3125 
Q 56.78125 27.484375 56.78125 20.515625 
Q 56.78125 9.90625 50.3125 4.234375 
Q 43.84375 -1.421875 31.78125 -1.421875 
Q 19.734375 -1.421875 13.25 4.234375 
Q 6.78125 9.90625 6.78125 20.515625 
Q 6.78125 27.484375 10.78125 32.3125 
Q 14.796875 37.15625 21.921875 38.8125 
z
M 18.3125 54.390625 
Q 18.3125 48.734375 21.84375 45.5625 
Q 25.390625 42.390625 31.78125 42.390625 
Q 38.140625 42.390625 41.71875 45.5625 
Q 45.3125 48.734375 45.3125 54.390625 
Q 45.3125 60.0625 41.71875 63.234375 
Q 38.140625 66.40625 31.78125 66.40625 
Q 25.390625 66.40625 21.84375 63.234375 
Q 18.3125 60.0625 18.3125 54.390625 
z
" id="DejaVuSans-56"/>
      </defs>
      <g transform="translate(315.683523 329.598437)scale(0.1 -0.1)">
       <use xlink:href="#DejaVuSans-49"/>
       <use x="63.623047" xlink:href="#DejaVuSans-56"/>
       <use x="127.246094" xlink:href="#DejaVuSans-48"/>
      </g>
     </g>
    </g>
    <g id="xtick_4">
     <g id="line2d_7">
      <path clip-path="url(#p547181646b)" d="M 411.694215 315 
L 411.694215 43.2 
" style="fill:none;stroke:#b0b0b0;stroke-linecap:square;stroke-width:0.8;"/>
     </g>
     <g id="line2d_8">
      <g>
       <use style="stroke:#000000;stroke-width:0.8;" x="411.694215" xlink:href="#mdc212690b4" y="315"/>
      </g>
     </g>
     <g id="text_4">
      <!-- 270 -->
      <defs>
       <path d="M 19.1875 8.296875 
L 53.609375 8.296875 
L 53.609375 0 
L 7.328125 0 
L 7.328125 8.296875 
Q 12.9375 14.109375 22.625 23.890625 
Q 32.328125 33.6875 34.8125 36.53125 
Q 39.546875 41.84375 41.421875 45.53125 
Q 43.3125 49.21875 43.3125 52.78125 
Q 43.3125 58.59375 39.234375 62.25 
Q 35.15625 65.921875 28.609375 65.921875 
Q 23.96875 65.921875 18.8125 64.3125 
Q 13.671875 62.703125 7.8125 59.421875 
L 7.8125 69.390625 
Q 13.765625 71.78125 18.9375 73 
Q 24.125 74.21875 28.421875 74.21875 
Q 39.75 74.21875 46.484375 68.546875 
Q 53.21875 62.890625 53.21875 53.421875 
Q 53.21875 48.921875 51.53125 44.890625 
Q 49.859375 40.875 45.40625 35.40625 
Q 44.1875 33.984375 37.640625 27.21875 
Q 31.109375 20.453125 19.1875 8.296875 
z
" id="DejaVuSans-50"/>
       <path d="M 8.203125 72.90625 
L 55.078125 72.90625 
L 55.078125 68.703125 
L 28.609375 0 
L 18.3125 0 
L 43.21875 64.59375 
L 8.203125 64.59375 
z
" id="DejaVuSans-55"/>
      </defs>
      <g transform="translate(402.150465 329.598437)scale(0.1 -0.1)">
       <use xlink:href="#DejaVuSans-50"/>
       <use x="63.623047" xlink:href="#DejaVuSans-55"/>
       <use x="127.246094" xlink:href="#DejaVuSans-48"/>
      </g>
     </g>
    </g>
    <g id="xtick_5">
     <g id="line2d_9">
      <path clip-path="url(#p547181646b)" d="M 498.161157 315 
L 498.161157 43.2 
" style="fill:none;stroke:#b0b0b0;stroke-linecap:square;stroke-width:0.8;"/>
     </g>
     <g id="line2d_10">
      <g>
       <use style="stroke:#000000;stroke-width:0.8;" x="498.161157" xlink:href="#mdc212690b4" y="315"/>
      </g>
     </g>
     <g id="text_5">
      <!-- 360 -->
      <defs>
       <path d="M 40.578125 39.3125 
Q 47.65625 37.796875 51.625 33 
Q 55.609375 28.21875 55.609375 21.1875 
Q 55.609375 10.40625 48.1875 4.484375 
Q 40.765625 -1.421875 27.09375 -1.421875 
Q 22.515625 -1.421875 17.65625 -0.515625 
Q 12.796875 0.390625 7.625 2.203125 
L 7.625 11.71875 
Q 11.71875 9.328125 16.59375 8.109375 
Q 21.484375 6.890625 26.8125 6.890625 
Q 36.078125 6.890625 40.9375 10.546875 
Q 45.796875 14.203125 45.796875 21.1875 
Q 45.796875 27.640625 41.28125 31.265625 
Q 36.765625 34.90625 28.71875 34.90625 
L 20.21875 34.90625 
L 20.21875 43.015625 
L 29.109375 43.015625 
Q 36.375 43.015625 40.234375 45.921875 
Q 44.09375 48.828125 44.09375 54.296875 
Q 44.09375 59.90625 40.109375 62.90625 
Q 36.140625 65.921875 28.71875 65.921875 
Q 24.65625 65.921875 20.015625 65.03125 
Q 15.375 64.15625 9.8125 62.3125 
L 9.8125 71.09375 
Q 15.4375 72.65625 20.34375 73.4375 
Q 25.25 74.21875 29.59375 74.21875 
Q 40.828125 74.21875 47.359375 69.109375 
Q 53.90625 64.015625 53.90625 55.328125 
Q 53.90625 49.265625 50.4375 45.09375 
Q 46.96875 40.921875 40.578125 39.3125 
z
" id="DejaVuSans-51"/>
       <path d="M 33.015625 40.375 
Q 26.375 40.375 22.484375 35.828125 
Q 18.609375 31.296875 18.609375 23.390625 
Q 18.609375 15.53125 22.484375 10.953125 
Q 26.375 6.390625 33.015625 6.390625 
Q 39.65625 6.390625 43.53125 10.953125 
Q 47.40625 15.53125 47.40625 23.390625 
Q 47.40625 31.296875 43.53125 35.828125 
Q 39.65625 40.375 33.015625 40.375 
z
M 52.59375 71.296875 
L 52.59375 62.3125 
Q 48.875 64.0625 45.09375 64.984375 
Q 41.3125 65.921875 37.59375 65.921875 
Q 27.828125 65.921875 22.671875 59.328125 
Q 17.53125 52.734375 16.796875 39.40625 
Q 19.671875 43.65625 24.015625 45.921875 
Q 28.375 48.1875 33.59375 48.1875 
Q 44.578125 48.1875 50.953125 41.515625 
Q 57.328125 34.859375 57.328125 23.390625 
Q 57.328125 12.15625 50.6875 5.359375 
Q 44.046875 -1.421875 33.015625 -1.421875 
Q 20.359375 -1.421875 13.671875 8.265625 
Q 6.984375 17.96875 6.984375 36.375 
Q 6.984375 53.65625 15.1875 63.9375 
Q 23.390625 74.21875 37.203125 74.21875 
Q 40.921875 74.21875 44.703125 73.484375 
Q 48.484375 72.75 52.59375 71.296875 
z
" id="DejaVuSans-54"/>
      </defs>
      <g transform="translate(488.617407 329.598437)scale(0.1 -0.1)">
       <use xlink:href="#DejaVuSans-51"/>
       <use x="63.623047" xlink:href="#DejaVuSans-54"/>
       <use x="127.246094" xlink:href="#DejaVuSans-48"/>
      </g>
     </g>
    </g>
    <g id="text_6">
     <!-- $\theta$ [°] -->
     <defs>
      <path d="M 45.515625 34.671875 
L 14.453125 34.671875 
Q 12.359375 20.0625 14.5 13.875 
Q 17.1875 6.25 24.46875 6.25 
Q 31.78125 6.25 37.359375 13.921875 
Q 42.234375 20.65625 45.515625 34.671875 
z
M 47.015625 42.96875 
Q 48.34375 56.84375 46.625 61.71875 
Q 43.953125 69.4375 36.765625 69.4375 
Q 29.296875 69.4375 23.828125 61.8125 
Q 19.53125 55.671875 16.15625 42.96875 
z
M 38.1875 76.765625 
Q 49.90625 76.765625 54.59375 66.40625 
Q 59.28125 56.109375 55.71875 37.84375 
Q 52.203125 19.625 43.453125 9.28125 
Q 34.765625 -1.125 23.046875 -1.125 
Q 11.28125 -1.125 6.640625 9.28125 
Q 2 19.625 5.515625 37.84375 
Q 9.078125 56.109375 17.71875 66.40625 
Q 26.421875 76.765625 38.1875 76.765625 
z
" id="DejaVuSans-Oblique-952"/>
      <path id="DejaVuSans-32"/>
      <path d="M 8.59375 75.984375 
L 29.296875 75.984375 
L 29.296875 69 
L 17.578125 69 
L 17.578125 -6.203125 
L 29.296875 -6.203125 
L 29.296875 -13.1875 
L 8.59375 -13.1875 
z
" id="DejaVuSans-91"/>
      <path d="M 25 67.921875 
Q 21.09375 67.921875 18.40625 65.203125 
Q 15.71875 62.5 15.71875 58.59375 
Q 15.71875 54.734375 18.40625 52.078125 
Q 21.09375 49.421875 25 49.421875 
Q 28.90625 49.421875 31.59375 52.078125 
Q 34.28125 54.734375 34.28125 58.59375 
Q 34.28125 62.453125 31.5625 65.1875 
Q 28.859375 67.921875 25 67.921875 
z
M 25 74.21875 
Q 28.125 74.21875 31 73.015625 
Q 33.890625 71.828125 35.984375 69.578125 
Q 38.234375 67.390625 39.359375 64.59375 
Q 40.484375 61.8125 40.484375 58.59375 
Q 40.484375 52.15625 35.96875 47.6875 
Q 31.453125 43.21875 24.90625 43.21875 
Q 18.3125 43.21875 13.90625 47.609375 
Q 9.515625 52 9.515625 58.59375 
Q 9.515625 65.140625 14 69.671875 
Q 18.5 74.21875 25 74.21875 
z
" id="DejaVuSans-176"/>
      <path d="M 30.421875 75.984375 
L 30.421875 -13.1875 
L 9.71875 -13.1875 
L 9.71875 -6.203125 
L 21.390625 -6.203125 
L 21.390625 69 
L 9.71875 69 
L 9.71875 75.984375 
z
" id="DejaVuSans-93"/>
     </defs>
     <g transform="translate(314.177273 343.276563)scale(0.1 -0.1)">
      <use transform="translate(0 0.234375)" xlink:href="#DejaVuSans-Oblique-952"/>
      <use transform="translate(61.181641 0.234375)" xlink:href="#DejaVuSans-32"/>
      <use transform="translate(92.96875 0.234375)" xlink:href="#DejaVuSans-91"/>
      <use transform="translate(131.982422 0.234375)" xlink:href="#DejaVuSans-176"/>
      <use transform="translate(181.982422 0.234375)" xlink:href="#DejaVuSans-93"/>
     </g>
    </g>
   </g>
   <g id="matplotlib.axis_2">
    <g id="ytick_1">
     <g id="line2d_11">
      <path clip-path="url(#p547181646b)" d="M 135 302.645455 
L 515.454545 302.645455 
" style="fill:none;stroke:#b0b0b0;stroke-linecap:square;stroke-width:0.8;"/>
     </g>
     <g id="line2d_12">
      <defs>
       <path d="M 0 0 
L -3.5 0 
" id="m6691ff6301" style="stroke:#000000;stroke-width:0.8;"/>
      </defs>
      <g>
       <use style="stroke:#000000;stroke-width:0.8;" x="135" xlink:href="#m6691ff6301" y="302.645455"/>
      </g>
     </g>
     <g id="text_7">
      <!-- 0 -->
      <g transform="translate(121.6375 306.444673)scale(0.1 -0.1)">
       <use xlink:href="#DejaVuSans-48"/>
      </g>
     </g>
    </g>
    <g id="ytick_2">
     <g id="line2d_13">
      <path clip-path="url(#p547181646b)" d="M 135 240.872727 
L 515.454545 240.872727 
" style="fill:none;stroke:#b0b0b0;stroke-linecap:square;stroke-width:0.8;"/>
     </g>
     <g id="line2d_14">
      <g>
       <use style="stroke:#000000;stroke-width:0.8;" x="135" xlink:href="#m6691ff6301" y="240.872727"/>
      </g>
     </g>
     <g id="text_8">
      <!-- 90 -->
      <g transform="translate(115.275 244.671946)scale(0.1 -0.1)">
       <use xlink:href="#DejaVuSans-57"/>
       <use x="63.623047" xlink:href="#DejaVuSans-48"/>
      </g>
     </g>
    </g>
    <g id="ytick_3">
     <g id="line2d_15">
      <path clip-path="url(#p547181646b)" d="M 135 179.1 
L 515.454545 179.1 
" style="fill:none;stroke:#b0b0b0;stroke-linecap:square;stroke-width:0.8;"/>
     </g>
     <g id="line2d_16">
      <g>
       <use style="stroke:#000000;stroke-width:0.8;" x="135" xlink:href="#m6691ff6301" y="179.1"/>
      </g>
     </g>
     <g id="text_9">
      <!-- 180 -->
      <g transform="translate(108.9125 182.899219)scale(0.1 -0.1)">
       <use xlink:href="#DejaVuSans-49"/>
       <use x="63.623047" xlink:href="#DejaVuSans-56"/>
       <use x="127.246094" xlink:href="#DejaVuSans-48"/>
      </g>
     </g>
    </g>
    <g id="ytick_4">
     <g id="line2d_17">
      <path clip-path="url(#p547181646b)" d="M 135 117.327273 
L 515.454545 117.327273 
" style="fill:none;stroke:#b0b0b0;stroke-linecap:square;stroke-width:0.8;"/>
     </g>
     <g id="line2d_18">
      <g>
       <use style="stroke:#000000;stroke-width:0.8;" x="135" xlink:href="#m6691ff6301" y="117.327273"/>
      </g>
     </g>
     <g id="text_10">
      <!-- 270 -->
      <g transform="translate(108.9125 121.126491)scale(0.1 -0.1)">
       <use xlink:href="#DejaVuSans-50"/>
       <use x="63.623047" xlink:href="#DejaVuSans-55"/>
       <use x="127.246094" xlink:href="#DejaVuSans-48"/>
      </g>
     </g>
    </g>
    <g id="ytick_5">
     <g id="line2d_19">
      <path clip-path="url(#p547181646b)" d="M 135 55.554545 
L 515.454545 55.554545 
" style="fill:none;stroke:#b0b0b0;stroke-linecap:square;stroke-width:0.8;"/>
     </g>
     <g id="line2d_20">
      <g>
       <use style="stroke:#000000;stroke-width:0.8;" x="135" xlink:href="#m6691ff6301" y="55.554545"/>
      </g>
     </g>
     <g id="text_11">
      <!-- 360 -->
      <g transform="translate(108.9125 59.353764)scale(0.1 -0.1)">
       <use xlink:href="#DejaVuSans-51"/>
       <use x="63.623047" xlink:href="#DejaVuSans-54"/>
       <use x="127.246094" xlink:href="#DejaVuSans-48"/>
      </g>
     </g>
    </g>
    <g id="text_12">
     <!-- $\alpha/\beta$ [°] -->
     <defs>
      <path d="M 40.921875 25.4375 
L 40.96875 36.71875 
Q 41.015625 48.25 32.328125 48.296875 
Q 25.828125 48.34375 21.78125 42.921875 
Q 16.703125 36.234375 14.984375 27.296875 
Q 12.890625 16.546875 15.53125 11.421875 
Q 18.265625 6.203125 24.171875 6.203125 
Q 30.71875 6.203125 36.234375 16.609375 
z
M 33.84375 55.90625 
Q 49.078125 56.15625 48.875 40.375 
Q 48.875 40.375 56.5 54.6875 
L 64.5 54.6875 
L 48.734375 25.046875 
L 48.578125 14.359375 
Q 48.578125 11.96875 49.90625 9.96875 
Q 51.421875 7.625 52.984375 7.625 
L 57.328125 7.625 
L 55.859375 0 
L 50.4375 0 
Q 45.84375 0 42.53125 4.109375 
Q 40.96875 6.15625 40.921875 10.453125 
Q 37.75 5.21875 32.28125 0.78125 
Q 29.6875 -1.265625 22.703125 -1.21875 
Q 11.28125 -1.125 7.125 6.203125 
Q 2.875 13.8125 5.515625 27.296875 
Q 8.34375 41.796875 15.765625 48.390625 
Q 24.125 55.765625 33.84375 55.90625 
z
" id="DejaVuSans-Oblique-945"/>
      <path d="M 25.390625 72.90625 
L 33.6875 72.90625 
L 8.296875 -9.28125 
L 0 -9.28125 
z
" id="DejaVuSans-47"/>
      <path d="M 13.625 3.375 
L 8.9375 -20.796875 
L -0.09375 -20.796875 
L 14.5 54.34375 
Q 18.84375 76.609375 39.65625 76.609375 
Q 60.75 76.609375 57.171875 57.8125 
Q 54.734375 44.4375 45.21875 39.546875 
Q 58.015625 35.15625 55.515625 22.125 
Q 51.125 -1.078125 27.484375 -1.03125 
Q 17.140625 -0.984375 13.625 3.375 
z
M 15.921875 15.09375 
Q 19.671875 6.59375 29.296875 6.640625 
Q 43.359375 6.640625 46.34375 21.96875 
Q 49.03125 35.75 26.171875 34.671875 
L 27.78125 42.96875 
Q 45.453125 42.671875 48.53125 58.59375 
Q 50.640625 69.34375 39.203125 69.28125 
Q 26.421875 69.28125 23.484375 54.046875 
z
" id="DejaVuSans-Oblique-946"/>
     </defs>
     <g transform="translate(102.8125 195.3)rotate(-90)scale(0.1 -0.1)">
      <use transform="translate(0 0.390625)" xlink:href="#DejaVuSans-Oblique-945"/>
      <use transform="translate(65.917969 0.390625)" xlink:href="#DejaVuSans-47"/>
      <use transform="translate(99.609375 0.390625)" xlink:href="#DejaVuSans-Oblique-946"/>
      <use transform="translate(163.427734 0.390625)" xlink:href="#DejaVuSans-32"/>
      <use transform="translate(195.214844 0.390625)" xlink:href="#DejaVuSans-91"/>
      <use transform="translate(234.228516 0.390625)" xlink:href="#DejaVuSans-176"/>
      <use transform="translate(284.228516 0.390625)" xlink:href="#DejaVuSans-93"/>
     </g>
    </g>
   </g>
   <g id="line2d_21">
    <path clip-path="url(#p547181646b)" d="M 152.293388 302.645455 
L 173.197186 295.085473 
L 184.768341 290.677571 
L 193.152796 287.277768 
L 201.23382 283.747589 
L 206.436398 281.291965 
L 211.483602 278.728747 
L 216.371643 276.031676 
L 221.098856 273.171011 
L 225.665433 270.114187 
L 230.073148 266.827313 
L 234.325075 263.277925 
L 238.425338 259.439494 
L 242.378872 255.297931 
L 246.191217 250.859681 
L 249.868337 246.159723 
L 253.416468 241.266248 
L 258.510795 233.785503 
L 267.958198 219.746828 
L 272.353213 213.762038 
L 275.175053 210.230331 
L 277.916873 207.054946 
L 280.58401 204.211257 
L 283.181573 201.667983 
L 286.958097 198.343708 
L 290.604608 195.513446 
L 294.135651 193.083254 
L 297.564815 190.974792 
L 302.000425 188.555231 
L 306.305491 186.475943 
L 311.542695 184.218303 
L 317.677875 181.834898 
L 329.747874 177.47704 
L 336.852046 174.80713 
L 342.03728 172.665476 
L 346.286938 170.720691 
L 350.653907 168.484214 
L 354.022268 166.553915 
L 357.483937 164.345983 
L 361.051914 161.791904 
L 364.740096 158.808166 
L 367.272972 156.532017 
L 369.870535 153.988743 
L 372.537672 151.145054 
L 375.279493 147.969669 
L 378.101333 144.437962 
L 381.00875 140.538613 
L 385.543021 134.030238 
L 398.796416 114.46838 
L 402.408251 109.661053 
L 406.152217 105.085545 
L 410.034433 100.793217 
L 414.060673 96.803898 
L 418.236197 93.112704 
L 422.565562 89.698388 
L 427.052399 86.530769 
L 431.699165 83.576226 
L 436.506877 80.801275 
L 441.474834 78.174639 
L 446.600342 75.668272 
L 454.572518 72.081774 
L 462.860186 68.644344 
L 474.328837 64.206981 
L 489.143556 58.782924 
L 498.161157 55.554545 
L 498.161157 55.554545 
" style="fill:none;stroke:#1f77b4;stroke-linecap:square;stroke-width:1.5;"/>
   </g>
   <g id="line2d_22">
    <path clip-path="url(#p547181646b)" d="M 152.293388 302.645455 
L 498.161157 302.645455 
L 498.161157 302.645455 
" style="fill:none;stroke:#ff7f0e;stroke-linecap:square;stroke-width:1.5;"/>
   </g>
   <g id="patch_3">
    <path d="M 135 315 
L 135 43.2 
" style="fill:none;stroke:#000000;stroke-linecap:square;stroke-linejoin:miter;stroke-width:0.8;"/>
   </g>
   <g id="patch_4">
    <path d="M 515.454545 315 
L 515.454545 43.2 
" style="fill:none;stroke:#000000;stroke-linecap:square;stroke-linejoin:miter;stroke-width:0.8;"/>
   </g>
   <g id="patch_5">
    <path d="M 135 315 
L 515.454545 315 
" style="fill:none;stroke:#000000;stroke-linecap:square;stroke-linejoin:miter;stroke-width:0.8;"/>
   </g>
   <g id="patch_6">
    <path d="M 135 43.2 
L 515.454545 43.2 
" style="fill:none;stroke:#000000;stroke-linecap:square;stroke-linejoin:miter;stroke-width:0.8;"/>
   </g>
   <g id="text_13">
    <!-- Eccentricity (e) -->
    <defs>
     <path d="M 9.8125 72.90625 
L 55.90625 72.90625 
L 55.90625 64.59375 
L 19.671875 64.59375 
L 19.671875 43.015625 
L 54.390625 43.015625 
L 54.390625 34.71875 
L 19.671875 34.71875 
L 19.671875 8.296875 
L 56.78125 8.296875 
L 56.78125 0 
L 9.8125 0 
z
" id="DejaVuSans-69"/>
     <path d="M 48.78125 52.59375 
L 48.78125 44.1875 
Q 44.96875 46.296875 41.140625 47.34375 
Q 37.3125 48.390625 33.40625 48.390625 
Q 24.65625 48.390625 19.8125 42.84375 
Q 14.984375 37.3125 14.984375 27.296875 
Q 14.984375 17.28125 19.8125 11.734375 
Q 24.65625 6.203125 33.40625 6.203125 
Q 37.3125 6.203125 41.140625 7.25 
Q 44.96875 8.296875 48.78125 10.40625 
L 48.78125 2.09375 
Q 45.015625 0.34375 40.984375 -0.53125 
Q 36.96875 -1.421875 32.421875 -1.421875 
Q 20.0625 -1.421875 12.78125 6.34375 
Q 5.515625 14.109375 5.515625 27.296875 
Q 5.515625 40.671875 12.859375 48.328125 
Q 20.21875 56 33.015625 56 
Q 37.15625 56 41.109375 55.140625 
Q 45.0625 54.296875 48.78125 52.59375 
z
" id="DejaVuSans-99"/>
     <path d="M 56.203125 29.59375 
L 56.203125 25.203125 
L 14.890625 25.203125 
Q 15.484375 15.921875 20.484375 11.0625 
Q 25.484375 6.203125 34.421875 6.203125 
Q 39.59375 6.203125 44.453125 7.46875 
Q 49.3125 8.734375 54.109375 11.28125 
L 54.109375 2.78125 
Q 49.265625 0.734375 44.1875 -0.34375 
Q 39.109375 -1.421875 33.890625 -1.421875 
Q 20.796875 -1.421875 13.15625 6.1875 
Q 5.515625 13.8125 5.515625 26.8125 
Q 5.515625 40.234375 12.765625 48.109375 
Q 20.015625 56 32.328125 56 
Q 43.359375 56 49.78125 48.890625 
Q 56.203125 41.796875 56.203125 29.59375 
z
M 47.21875 32.234375 
Q 47.125 39.59375 43.09375 43.984375 
Q 39.0625 48.390625 32.421875 48.390625 
Q 24.90625 48.390625 20.390625 44.140625 
Q 15.875 39.890625 15.1875 32.171875 
z
" id="DejaVuSans-101"/>
     <path d="M 54.890625 33.015625 
L 54.890625 0 
L 45.90625 0 
L 45.90625 32.71875 
Q 45.90625 40.484375 42.875 44.328125 
Q 39.84375 48.1875 33.796875 48.1875 
Q 26.515625 48.1875 22.3125 43.546875 
Q 18.109375 38.921875 18.109375 30.90625 
L 18.109375 0 
L 9.078125 0 
L 9.078125 54.6875 
L 18.109375 54.6875 
L 18.109375 46.1875 
Q 21.34375 51.125 25.703125 53.5625 
Q 30.078125 56 35.796875 56 
Q 45.21875 56 50.046875 50.171875 
Q 54.890625 44.34375 54.890625 33.015625 
z
" id="DejaVuSans-110"/>
     <path d="M 18.3125 70.21875 
L 18.3125 54.6875 
L 36.8125 54.6875 
L 36.8125 47.703125 
L 18.3125 47.703125 
L 18.3125 18.015625 
Q 18.3125 11.328125 20.140625 9.421875 
Q 21.96875 7.515625 27.59375 7.515625 
L 36.8125 7.515625 
L 36.8125 0 
L 27.59375 0 
Q 17.1875 0 13.234375 3.875 
Q 9.28125 7.765625 9.28125 18.015625 
L 9.28125 47.703125 
L 2.6875 47.703125 
L 2.6875 54.6875 
L 9.28125 54.6875 
L 9.28125 70.21875 
z
" id="DejaVuSans-116"/>
     <path d="M 41.109375 46.296875 
Q 39.59375 47.171875 37.8125 47.578125 
Q 36.03125 48 33.890625 48 
Q 26.265625 48 22.1875 43.046875 
Q 18.109375 38.09375 18.109375 28.8125 
L 18.109375 0 
L 9.078125 0 
L 9.078125 54.6875 
L 18.109375 54.6875 
L 18.109375 46.1875 
Q 20.953125 51.171875 25.484375 53.578125 
Q 30.03125 56 36.53125 56 
Q 37.453125 56 38.578125 55.875 
Q 39.703125 55.765625 41.0625 55.515625 
z
" id="DejaVuSans-114"/>
     <path d="M 9.421875 54.6875 
L 18.40625 54.6875 
L 18.40625 0 
L 9.421875 0 
z
M 9.421875 75.984375 
L 18.40625 75.984375 
L 18.40625 64.59375 
L 9.421875 64.59375 
z
" id="DejaVuSans-105"/>
     <path d="M 32.171875 -5.078125 
Q 28.375 -14.84375 24.75 -17.8125 
Q 21.140625 -20.796875 15.09375 -20.796875 
L 7.90625 -20.796875 
L 7.90625 -13.28125 
L 13.1875 -13.28125 
Q 16.890625 -13.28125 18.9375 -11.515625 
Q 21 -9.765625 23.484375 -3.21875 
L 25.09375 0.875 
L 2.984375 54.6875 
L 12.5 54.6875 
L 29.59375 11.921875 
L 46.6875 54.6875 
L 56.203125 54.6875 
z
" id="DejaVuSans-121"/>
     <path d="M 31 75.875 
Q 24.46875 64.65625 21.28125 53.65625 
Q 18.109375 42.671875 18.109375 31.390625 
Q 18.109375 20.125 21.3125 9.0625 
Q 24.515625 -2 31 -13.1875 
L 23.1875 -13.1875 
Q 15.875 -1.703125 12.234375 9.375 
Q 8.59375 20.453125 8.59375 31.390625 
Q 8.59375 42.28125 12.203125 53.3125 
Q 15.828125 64.359375 23.1875 75.875 
z
" id="DejaVuSans-40"/>
     <path d="M 8.015625 75.875 
L 15.828125 75.875 
Q 23.140625 64.359375 26.78125 53.3125 
Q 30.421875 42.28125 30.421875 31.390625 
Q 30.421875 20.453125 26.78125 9.375 
Q 23.140625 -1.703125 15.828125 -13.1875 
L 8.015625 -13.1875 
Q 14.5 -2 17.703125 9.0625 
Q 20.90625 20.125 20.90625 31.390625 
Q 20.90625 42.671875 17.703125 53.65625 
Q 14.5 64.65625 8.015625 75.875 
z
" id="DejaVuSans-41"/>
    </defs>
    <g transform="translate(279.707898 37.2)scale(0.12 -0.12)">
     <use xlink:href="#DejaVuSans-69"/>
     <use x="63.183594" xlink:href="#DejaVuSans-99"/>
     <use x="118.164062" xlink:href="#DejaVuSans-99"/>
     <use x="173.144531" xlink:href="#DejaVuSans-101"/>
     <use x="234.667969" xlink:href="#DejaVuSans-110"/>
     <use x="298.046875" xlink:href="#DejaVuSans-116"/>
     <use x="337.255859" xlink:href="#DejaVuSans-114"/>
     <use x="378.369141" xlink:href="#DejaVuSans-105"/>
     <use x="406.152344" xlink:href="#DejaVuSans-99"/>
     <use x="461.132812" xlink:href="#DejaVuSans-105"/>
     <use x="488.916016" xlink:href="#DejaVuSans-116"/>
     <use x="528.125" xlink:href="#DejaVuSans-121"/>
     <use x="587.304688" xlink:href="#DejaVuSans-32"/>
     <use x="619.091797" xlink:href="#DejaVuSans-40"/>
     <use x="658.105469" xlink:href="#DejaVuSans-101"/>
     <use x="719.628906" xlink:href="#DejaVuSans-41"/>
    </g>
   </g>
   <g id="legend_1">
    <g id="patch_7">
     <path d="M 142 80.678125 
L 180.6 80.678125 
Q 182.6 80.678125 182.6 78.678125 
L 182.6 50.2 
Q 182.6 48.2 180.6 48.2 
L 142 48.2 
Q 140 48.2 140 50.2 
L 140 78.678125 
Q 140 80.678125 142 80.678125 
z
" style="fill:#ffffff;opacity:0.8;stroke:#cccccc;stroke-linejoin:miter;"/>
    </g>
    <g id="line2d_23">
     <path d="M 144 56.298438 
L 164 56.298438 
" style="fill:none;stroke:#1f77b4;stroke-linecap:square;stroke-width:1.5;"/>
    </g>
    <g id="line2d_24"/>
    <g id="text_14">
     <!-- $\alpha$ -->
     <g transform="translate(172 59.798438)scale(0.1 -0.1)">
      <use transform="translate(0 0.84375)" xlink:href="#DejaVuSans-Oblique-945"/>
     </g>
    </g>
    <g id="line2d_25">
     <path d="M 144 71.078125 
L 164 71.078125 
" style="fill:none;stroke:#ff7f0e;stroke-linecap:square;stroke-width:1.5;"/>
    </g>
    <g id="line2d_26"/>
    <g id="text_15">
     <!-- $\beta$ -->
     <g transform="translate(172 74.578125)scale(0.1 -0.1)">
      <use transform="translate(0 0.390625)" xlink:href="#DejaVuSans-Oblique-946"/>
     </g>
    </g>
   </g>
  </g>
  <g id="axes_2">
   <g id="patch_8">
    <path d="M 591.545455 315 
L 972 315 
L 972 43.2 
L 591.545455 43.2 
z
" style="fill:#ffffff;"/>
   </g>
   <g id="Quiver_1">
    <path clip-path="url(#pca58257e51)" d="M 953.279907 179.1 
L 953.279907 172.339788 
L 950.426498 173.766492 
L 954.706612 159.499447 
L 958.986725 173.766492 
L 956.133316 172.339788 
L 956.133316 179.1 
L 953.279907 179.1 
"/>
    <path clip-path="url(#pca58257e51)" d="M 944.822626 141.239238 
L 942.326466 134.621658 
L 940.160198 136.963604 
L 939.12964 122.104065 
L 948.169577 133.942456 
L 944.996259 133.614609 
L 947.492419 140.232189 
L 944.822626 141.239238 
"/>
    <path clip-path="url(#pca58257e51)" d="M 920.265459 107.084845 
L 915.189292 101.074148 
L 913.929818 104.005215 
L 907.994508 90.343587 
L 920.469837 98.482023 
L 917.369299 99.233084 
L 922.445466 105.243781 
L 920.265459 107.084845 
"/>
    <path clip-path="url(#pca58257e51)" d="M 881.998113 80.014653 
L 874.523591 75.358332 
L 874.225796 78.53461 
L 864.379393 67.358014 
L 878.752039 71.268896 
L 876.032339 72.936427 
L 883.506861 77.592748 
L 881.998113 80.014653 
"/>
    <path clip-path="url(#pca58257e51)" d="M 833.786326 62.734395 
L 824.59715 60.204111 
L 825.215154 63.333887 
L 812.596302 55.419815 
L 827.487676 55.080819 
L 825.354657 57.453088 
L 834.543834 59.983373 
L 833.786326 62.734395 
"/>
    <path clip-path="url(#pca58257e51)" d="M 780.406589 56.981217 
L 770.614566 57.048156 
L 772.060743 59.891745 
L 757.764772 55.70926 
L 772.002226 51.331718 
L 770.59506 54.194813 
L 780.387083 54.127874 
L 780.406589 56.981217 
"/>
    <path clip-path="url(#pca58257e51)" d="M 727.161541 63.334601 
L 718.034344 65.985925 
L 720.200387 68.32808 
L 705.305724 68.197733 
L 717.812468 60.107658 
L 717.238371 63.245785 
L 726.365569 60.594461 
L 727.161541 63.334601 
"/>
    <path clip-path="url(#pca58257e51)" d="M 679.340116 81.154636 
L 671.973619 85.898257 
L 674.717988 87.524871 
L 660.405523 91.650561 
L 670.083439 80.327757 
L 670.42877 83.499219 
L 677.795267 78.755598 
L 679.340116 81.154636 
"/>
    <path clip-path="url(#pca58257e51)" d="M 641.679055 108.650231 
L 636.73126 114.707328 
L 639.843676 115.407539 
L 627.503228 123.749079 
L 633.21413 109.992134 
L 634.521411 112.902193 
L 639.469206 106.845096 
L 641.679055 108.650231 
"/>
    <path clip-path="url(#pca58257e51)" d="M 617.8827 143.074297 
L 615.513841 149.707363 
L 618.680864 149.323441 
L 609.851724 161.319868 
L 610.619303 146.444426 
L 612.826654 148.747691 
L 615.195513 142.114625 
L 617.8827 143.074297 
"/>
    <path clip-path="url(#pca58257e51)" d="M 610.26531 181.024374 
L 610.388548 187.784277 
L 613.215478 186.305798 
L 609.196129 200.64849 
L 604.656672 186.461831 
L 607.535613 187.836288 
L 607.412375 181.076385 
L 610.26531 181.024374 
"/>
    <path clip-path="url(#pca58257e51)" d="M 619.560436 218.786487 
L 622.184198 225.387444 
L 624.308832 223.007663 
L 625.601258 237.84672 
L 616.353972 226.169577 
L 619.532578 226.441416 
L 616.908816 219.840459 
L 619.560436 218.786487 
"/>
    <path clip-path="url(#pca58257e51)" d="M 644.8724 252.66269 
L 650.076539 258.625053 
L 651.288086 255.673853 
L 657.445217 269.236954 
L 644.838933 261.302877 
L 647.926822 260.501395 
L 642.722683 254.539032 
L 644.8724 252.66269 
"/>
    <path clip-path="url(#pca58257e51)" d="M 683.73654 279.30065 
L 691.317357 283.86767 
L 691.567745 280.687303 
L 701.579753 291.715796 
L 687.150374 288.019718 
L 689.8449 286.311808 
L 682.264083 281.744789 
L 683.73654 279.30065 
"/>
    <path clip-path="url(#pca58257e51)" d="M 732.326645 296.036749 
L 741.574959 298.444777 
L 740.913273 295.323944 
L 753.641503 303.060875 
L 738.756321 303.607968 
L 740.855975 301.206118 
L 731.607661 298.79809 
L 732.326645 296.036749 
"/>
    <path clip-path="url(#pca58257e51)" d="M 785.827701 301.18826 
L 795.616484 300.987476 
L 794.131564 298.163925 
L 808.483382 302.15056 
L 794.307111 306.722352 
L 795.675 303.840285 
L 785.886217 304.041069 
L 785.827701 301.18826 
"/>
    <path clip-path="url(#pca58257e51)" d="M 838.924724 294.236284 
L 847.987144 291.465191 
L 845.788423 289.153686 
L 860.683447 289.074848 
L 848.291548 297.339763 
L 848.821519 294.193883 
L 839.759099 296.964976 
L 838.924724 294.236284 
"/>
    <path clip-path="url(#pca58257e51)" d="M 886.343844 275.880991 
L 893.600654 271.05209 
L 890.832134 269.466932 
L 905.080936 265.126471 
L 895.574391 276.593536 
L 895.181406 273.427625 
L 887.924596 278.256525 
L 886.343844 275.880991 
"/>
    <path clip-path="url(#pca58257e51)" d="M 923.389283 247.966923 
L 928.208363 241.865333 
L 925.084855 241.216389 
L 937.286491 232.673085 
L 931.80254 246.522065 
L 930.447591 243.633892 
L 925.628511 249.735482 
L 923.389283 247.966923 
"/>
    <path clip-path="url(#pca58257e51)" d="M 946.419001 213.281765 
L 948.660865 206.634307 
L 945.501151 207.074345 
L 954.116109 194.923195 
L 953.612511 209.809912 
L 951.364652 207.546163 
L 949.122788 214.193621 
L 946.419001 213.281765 
"/>
   </g>
   <g id="Quiver_2">
    <path clip-path="url(#pca58257e51)" d="M 953.279907 179.1 
L 953.279907 170.803977 
L 950.426498 172.230682 
L 954.706612 157.963636 
L 958.986725 172.230682 
L 956.133316 170.803977 
L 956.133316 179.1 
L 953.279907 179.1 
" style="fill:#ff0000;"/>
    <path clip-path="url(#pca58257e51)" d="M 944.779528 141.105329 
L 942.630282 133.092543 
L 940.243908 135.209769 
L 940.681738 120.320972 
L 948.511878 132.992076 
L 945.386272 132.353312 
L 947.535518 140.366098 
L 944.779528 141.105329 
" style="fill:#ff0000;"/>
    <path clip-path="url(#pca58257e51)" d="M 920.073653 106.790771 
L 916.430916 99.337284 
L 914.493754 101.87201 
L 912.074605 87.174538 
L 922.184613 98.113262 
L 918.994536 98.084368 
L 922.637272 105.537855 
L 920.073653 106.790771 
" style="fill:#ff0000;"/>
    <path clip-path="url(#pca58257e51)" d="M 881.498321 79.483813 
L 877.543591 72.19107 
L 875.715372 74.805461 
L 872.676743 60.223462 
L 883.240368 70.724785 
L 880.051923 70.830844 
L 884.006653 78.123588 
L 881.498321 79.483813 
" style="fill:#ff0000;"/>
    <path clip-path="url(#pca58257e51)" d="M 832.805084 61.790041 
L 830.297985 53.881915 
L 828.00915 56.104226 
L 827.777568 41.210793 
L 836.169127 53.517283 
L 833.017978 53.019601 
L 835.525076 60.927727 
L 832.805084 61.790041 
" style="fill:#ff0000;"/>
    <path clip-path="url(#pca58257e51)" d="M 778.970165 55.54487 
L 779.026424 47.249038 
L 776.163406 48.656359 
L 780.540173 34.418668 
L 784.723436 48.714411 
L 781.879768 47.268389 
L 781.823508 55.564221 
L 778.970165 55.54487 
" style="fill:#ff0000;"/>
    <path clip-path="url(#pca58257e51)" d="M 725.360403 61.706364 
L 726.861595 53.547295 
L 723.797124 54.434113 
L 730.588247 41.177092 
L 732.216036 55.983113 
L 729.667899 54.063628 
L 728.166707 62.222698 
L 725.360403 61.706364 
" style="fill:#ff0000;"/>
    <path clip-path="url(#pca58257e51)" d="M 677.172107 79.658754 
L 678.895401 71.543691 
L 675.80787 72.34655 
L 682.958248 59.279796 
L 684.181375 74.124725 
L 681.686569 72.136416 
L 679.963276 80.251479 
L 677.172107 79.658754 
" style="fill:#ff0000;"/>
    <path clip-path="url(#pca58257e51)" d="M 639.166336 107.516149 
L 640.51255 99.330082 
L 637.465446 100.274848 
L 644.003977 86.891441 
L 645.912216 101.663935 
L 643.32814 99.793111 
L 641.981926 107.979178 
L 639.166336 107.516149 
" style="fill:#ff0000;"/>
    <path clip-path="url(#pca58257e51)" d="M 615.117557 142.473293 
L 615.822126 134.207244 
L 612.857859 135.386457 
L 618.334188 121.534462 
L 621.387158 136.113466 
L 618.665226 134.44958 
L 617.960657 142.715629 
L 615.117557 142.473293 
" style="fill:#ff0000;"/>
    <path clip-path="url(#pca58257e51)" d="M 607.412153 181.056881 
L 607.374348 172.760944 
L 604.52747 174.200637 
L 608.742524 159.914235 
L 613.087608 174.161628 
L 610.227727 172.747941 
L 610.265533 181.043878 
L 607.412153 181.056881 
" style="fill:#ff0000;"/>
    <path clip-path="url(#pca58257e51)" d="M 616.814165 219.446799 
L 616.038896 211.187081 
L 613.3313 212.874195 
L 616.259419 198.269604 
L 621.854067 212.074236 
L 618.879819 210.920428 
L 619.655087 219.180147 
L 616.814165 219.446799 
" style="fill:#ff0000;"/>
    <path clip-path="url(#pca58257e51)" d="M 642.391284 253.841538 
L 640.991793 245.66441 
L 638.419955 247.552021 
L 640.231961 232.767414 
L 646.857501 246.107961 
L 643.804309 245.183056 
L 645.203799 253.360184 
L 642.391284 253.841538 
" style="fill:#ff0000;"/>
    <path clip-path="url(#pca58257e51)" d="M 681.605193 280.821266 
L 679.8692 272.70891 
L 677.377509 274.701122 
L 678.577399 259.854297 
L 685.748221 272.909843 
L 682.659437 272.111817 
L 684.39543 280.224173 
L 681.605193 280.821266 
" style="fill:#ff0000;"/>
    <path clip-path="url(#pca58257e51)" d="M 730.561614 297.662256 
L 729.137931 289.489306 
L 726.57169 291.38452 
L 728.339935 276.594615 
L 735.004925 289.915496 
L 731.94901 288.999631 
L 733.372692 297.172582 
L 730.561614 297.662256 
" style="fill:#ff0000;"/>
    <path clip-path="url(#pca58257e51)" d="M 784.430568 302.584731 
L 784.604624 294.290535 
L 781.72191 295.657059 
L 786.300413 281.482953 
L 790.280253 295.836658 
L 787.457405 294.350401 
L 787.283349 302.644598 
L 784.430568 302.584731 
" style="fill:#ff0000;"/>
    <path clip-path="url(#pca58257e51)" d="M 837.995097 295.129911 
L 840.732239 287.298433 
L 837.567891 287.70381 
L 846.315523 275.64782 
L 845.648779 290.528123 
L 843.425869 288.239871 
L 840.688726 296.071349 
L 837.995097 295.129911 
" style="fill:#ff0000;"/>
    <path clip-path="url(#pca58257e51)" d="M 885.883659 276.382038 
L 889.876807 269.11026 
L 886.688966 268.987381 
L 897.307845 258.541933 
L 894.19233 273.107699 
L 892.377928 270.483699 
L 888.38478 277.755478 
L 885.883659 276.382038 
" style="fill:#ff0000;"/>
    <path clip-path="url(#pca58257e51)" d="M 923.218446 248.242744 
L 926.756518 240.739009 
L 923.567157 240.812544 
L 933.523094 229.733407 
L 931.309865 244.463294 
L 929.33742 241.955926 
L 925.799348 249.459661 
L 923.218446 248.242744 
" style="fill:#ff0000;"/>
    <path clip-path="url(#pca58257e51)" d="M 946.38434 213.401608 
L 948.338612 205.339052 
L 945.229418 206.053436 
L 952.749931 193.196149 
L 953.548744 208.069946 
L 951.111721 206.011222 
L 949.157449 214.073778 
L 946.38434 213.401608 
" style="fill:#ff0000;"/>
   </g>
   <g id="matplotlib.axis_3">
    <g id="xtick_6">
     <g id="line2d_27">
      <path clip-path="url(#pca58257e51)" d="M 608.817292 315 
L 608.817292 43.2 
" style="fill:none;stroke:#b0b0b0;stroke-linecap:square;stroke-width:0.8;"/>
     </g>
     <g id="line2d_28">
      <g>
       <use style="stroke:#000000;stroke-width:0.8;" x="608.817292" xlink:href="#mdc212690b4" y="315"/>
      </g>
     </g>
     <g id="text_16">
      <!-- −1.50 -->
      <defs>
       <path d="M 10.59375 35.5 
L 73.1875 35.5 
L 73.1875 27.203125 
L 10.59375 27.203125 
z
" id="DejaVuSans-8722"/>
       <path d="M 10.6875 12.40625 
L 21 12.40625 
L 21 0 
L 10.6875 0 
z
" id="DejaVuSans-46"/>
       <path d="M 10.796875 72.90625 
L 49.515625 72.90625 
L 49.515625 64.59375 
L 19.828125 64.59375 
L 19.828125 46.734375 
Q 21.96875 47.46875 24.109375 47.828125 
Q 26.265625 48.1875 28.421875 48.1875 
Q 40.625 48.1875 47.75 41.5 
Q 54.890625 34.8125 54.890625 23.390625 
Q 54.890625 11.625 47.5625 5.09375 
Q 40.234375 -1.421875 26.90625 -1.421875 
Q 22.3125 -1.421875 17.546875 -0.640625 
Q 12.796875 0.140625 7.71875 1.703125 
L 7.71875 11.625 
Q 12.109375 9.234375 16.796875 8.0625 
Q 21.484375 6.890625 26.703125 6.890625 
Q 35.15625 6.890625 40.078125 11.328125 
Q 45.015625 15.765625 45.015625 23.390625 
Q 45.015625 31 40.078125 35.4375 
Q 35.15625 39.890625 26.703125 39.890625 
Q 22.75 39.890625 18.8125 39.015625 
Q 14.890625 38.140625 10.796875 36.28125 
z
" id="DejaVuSans-53"/>
      </defs>
      <g transform="translate(593.494636 329.598437)scale(0.1 -0.1)">
       <use xlink:href="#DejaVuSans-8722"/>
       <use x="83.789062" xlink:href="#DejaVuSans-49"/>
       <use x="147.412109" xlink:href="#DejaVuSans-46"/>
       <use x="179.199219" xlink:href="#DejaVuSans-53"/>
       <use x="242.822266" xlink:href="#DejaVuSans-48"/>
      </g>
     </g>
    </g>
    <g id="xtick_7">
     <g id="line2d_29">
      <path clip-path="url(#pca58257e51)" d="M 652.053457 315 
L 652.053457 43.2 
" style="fill:none;stroke:#b0b0b0;stroke-linecap:square;stroke-width:0.8;"/>
     </g>
     <g id="line2d_30">
      <g>
       <use style="stroke:#000000;stroke-width:0.8;" x="652.053457" xlink:href="#mdc212690b4" y="315"/>
      </g>
     </g>
     <g id="text_17">
      <!-- −1.25 -->
      <g transform="translate(636.730801 329.598437)scale(0.1 -0.1)">
       <use xlink:href="#DejaVuSans-8722"/>
       <use x="83.789062" xlink:href="#DejaVuSans-49"/>
       <use x="147.412109" xlink:href="#DejaVuSans-46"/>
       <use x="179.199219" xlink:href="#DejaVuSans-50"/>
       <use x="242.822266" xlink:href="#DejaVuSans-53"/>
      </g>
     </g>
    </g>
    <g id="xtick_8">
     <g id="line2d_31">
      <path clip-path="url(#pca58257e51)" d="M 695.289622 315 
L 695.289622 43.2 
" style="fill:none;stroke:#b0b0b0;stroke-linecap:square;stroke-width:0.8;"/>
     </g>
     <g id="line2d_32">
      <g>
       <use style="stroke:#000000;stroke-width:0.8;" x="695.289622" xlink:href="#mdc212690b4" y="315"/>
      </g>
     </g>
     <g id="text_18">
      <!-- −1.00 -->
      <g transform="translate(679.966966 329.598437)scale(0.1 -0.1)">
       <use xlink:href="#DejaVuSans-8722"/>
       <use x="83.789062" xlink:href="#DejaVuSans-49"/>
       <use x="147.412109" xlink:href="#DejaVuSans-46"/>
       <use x="179.199219" xlink:href="#DejaVuSans-48"/>
       <use x="242.822266" xlink:href="#DejaVuSans-48"/>
      </g>
     </g>
    </g>
    <g id="xtick_9">
     <g id="line2d_33">
      <path clip-path="url(#pca58257e51)" d="M 738.525787 315 
L 738.525787 43.2 
" style="fill:none;stroke:#b0b0b0;stroke-linecap:square;stroke-width:0.8;"/>
     </g>
     <g id="line2d_34">
      <g>
       <use style="stroke:#000000;stroke-width:0.8;" x="738.525787" xlink:href="#mdc212690b4" y="315"/>
      </g>
     </g>
     <g id="text_19">
      <!-- −0.75 -->
      <g transform="translate(723.203131 329.598437)scale(0.1 -0.1)">
       <use xlink:href="#DejaVuSans-8722"/>
       <use x="83.789062" xlink:href="#DejaVuSans-48"/>
       <use x="147.412109" xlink:href="#DejaVuSans-46"/>
       <use x="179.199219" xlink:href="#DejaVuSans-55"/>
       <use x="242.822266" xlink:href="#DejaVuSans-53"/>
      </g>
     </g>
    </g>
    <g id="xtick_10">
     <g id="line2d_35">
      <path clip-path="url(#pca58257e51)" d="M 781.761952 315 
L 781.761952 43.2 
" style="fill:none;stroke:#b0b0b0;stroke-linecap:square;stroke-width:0.8;"/>
     </g>
     <g id="line2d_36">
      <g>
       <use style="stroke:#000000;stroke-width:0.8;" x="781.761952" xlink:href="#mdc212690b4" y="315"/>
      </g>
     </g>
     <g id="text_20">
      <!-- −0.50 -->
      <g transform="translate(766.439296 329.598437)scale(0.1 -0.1)">
       <use xlink:href="#DejaVuSans-8722"/>
       <use x="83.789062" xlink:href="#DejaVuSans-48"/>
       <use x="147.412109" xlink:href="#DejaVuSans-46"/>
       <use x="179.199219" xlink:href="#DejaVuSans-53"/>
       <use x="242.822266" xlink:href="#DejaVuSans-48"/>
      </g>
     </g>
    </g>
    <g id="xtick_11">
     <g id="line2d_37">
      <path clip-path="url(#pca58257e51)" d="M 824.998117 315 
L 824.998117 43.2 
" style="fill:none;stroke:#b0b0b0;stroke-linecap:square;stroke-width:0.8;"/>
     </g>
     <g id="line2d_38">
      <g>
       <use style="stroke:#000000;stroke-width:0.8;" x="824.998117" xlink:href="#mdc212690b4" y="315"/>
      </g>
     </g>
     <g id="text_21">
      <!-- −0.25 -->
      <g transform="translate(809.675461 329.598437)scale(0.1 -0.1)">
       <use xlink:href="#DejaVuSans-8722"/>
       <use x="83.789062" xlink:href="#DejaVuSans-48"/>
       <use x="147.412109" xlink:href="#DejaVuSans-46"/>
       <use x="179.199219" xlink:href="#DejaVuSans-50"/>
       <use x="242.822266" xlink:href="#DejaVuSans-53"/>
      </g>
     </g>
    </g>
    <g id="xtick_12">
     <g id="line2d_39">
      <path clip-path="url(#pca58257e51)" d="M 868.234282 315 
L 868.234282 43.2 
" style="fill:none;stroke:#b0b0b0;stroke-linecap:square;stroke-width:0.8;"/>
     </g>
     <g id="line2d_40">
      <g>
       <use style="stroke:#000000;stroke-width:0.8;" x="868.234282" xlink:href="#mdc212690b4" y="315"/>
      </g>
     </g>
     <g id="text_22">
      <!-- 0.00 -->
      <g transform="translate(857.101469 329.598437)scale(0.1 -0.1)">
       <use xlink:href="#DejaVuSans-48"/>
       <use x="63.623047" xlink:href="#DejaVuSans-46"/>
       <use x="95.410156" xlink:href="#DejaVuSans-48"/>
       <use x="159.033203" xlink:href="#DejaVuSans-48"/>
      </g>
     </g>
    </g>
    <g id="xtick_13">
     <g id="line2d_41">
      <path clip-path="url(#pca58257e51)" d="M 911.470447 315 
L 911.470447 43.2 
" style="fill:none;stroke:#b0b0b0;stroke-linecap:square;stroke-width:0.8;"/>
     </g>
     <g id="line2d_42">
      <g>
       <use style="stroke:#000000;stroke-width:0.8;" x="911.470447" xlink:href="#mdc212690b4" y="315"/>
      </g>
     </g>
     <g id="text_23">
      <!-- 0.25 -->
      <g transform="translate(900.337634 329.598437)scale(0.1 -0.1)">
       <use xlink:href="#DejaVuSans-48"/>
       <use x="63.623047" xlink:href="#DejaVuSans-46"/>
       <use x="95.410156" xlink:href="#DejaVuSans-50"/>
       <use x="159.033203" xlink:href="#DejaVuSans-53"/>
      </g>
     </g>
    </g>
    <g id="xtick_14">
     <g id="line2d_43">
      <path clip-path="url(#pca58257e51)" d="M 954.706612 315 
L 954.706612 43.2 
" style="fill:none;stroke:#b0b0b0;stroke-linecap:square;stroke-width:0.8;"/>
     </g>
     <g id="line2d_44">
      <g>
       <use style="stroke:#000000;stroke-width:0.8;" x="954.706612" xlink:href="#mdc212690b4" y="315"/>
      </g>
     </g>
     <g id="text_24">
      <!-- 0.50 -->
      <g transform="translate(943.573799 329.598437)scale(0.1 -0.1)">
       <use xlink:href="#DejaVuSans-48"/>
       <use x="63.623047" xlink:href="#DejaVuSans-46"/>
       <use x="95.410156" xlink:href="#DejaVuSans-53"/>
       <use x="159.033203" xlink:href="#DejaVuSans-48"/>
      </g>
     </g>
    </g>
    <g id="text_25">
     <!-- x -->
     <defs>
      <path d="M 54.890625 54.6875 
L 35.109375 28.078125 
L 55.90625 0 
L 45.3125 0 
L 29.390625 21.484375 
L 13.484375 0 
L 2.875 0 
L 24.125 28.609375 
L 4.6875 54.6875 
L 15.28125 54.6875 
L 29.78125 35.203125 
L 44.28125 54.6875 
z
" id="DejaVuSans-120"/>
     </defs>
     <g transform="translate(778.813352 343.276563)scale(0.1 -0.1)">
      <use xlink:href="#DejaVuSans-120"/>
     </g>
    </g>
   </g>
   <g id="matplotlib.axis_4">
    <g id="ytick_6">
     <g id="line2d_45">
      <path clip-path="url(#pca58257e51)" d="M 591.545455 286.096835 
L 972 286.096835 
" style="fill:none;stroke:#b0b0b0;stroke-linecap:square;stroke-width:0.8;"/>
     </g>
     <g id="line2d_46">
      <g>
       <use style="stroke:#000000;stroke-width:0.8;" x="591.545455" xlink:href="#m6691ff6301" y="286.096835"/>
      </g>
     </g>
     <g id="text_26">
      <!-- −0.75 -->
      <g transform="translate(553.900142 289.896054)scale(0.1 -0.1)">
       <use xlink:href="#DejaVuSans-8722"/>
       <use x="83.789062" xlink:href="#DejaVuSans-48"/>
       <use x="147.412109" xlink:href="#DejaVuSans-46"/>
       <use x="179.199219" xlink:href="#DejaVuSans-55"/>
       <use x="242.822266" xlink:href="#DejaVuSans-53"/>
      </g>
     </g>
    </g>
    <g id="ytick_7">
     <g id="line2d_47">
      <path clip-path="url(#pca58257e51)" d="M 591.545455 250.431224 
L 972 250.431224 
" style="fill:none;stroke:#b0b0b0;stroke-linecap:square;stroke-width:0.8;"/>
     </g>
     <g id="line2d_48">
      <g>
       <use style="stroke:#000000;stroke-width:0.8;" x="591.545455" xlink:href="#m6691ff6301" y="250.431224"/>
      </g>
     </g>
     <g id="text_27">
      <!-- −0.50 -->
      <g transform="translate(553.900142 254.230442)scale(0.1 -0.1)">
       <use xlink:href="#DejaVuSans-8722"/>
       <use x="83.789062" xlink:href="#DejaVuSans-48"/>
       <use x="147.412109" xlink:href="#DejaVuSans-46"/>
       <use x="179.199219" xlink:href="#DejaVuSans-53"/>
       <use x="242.822266" xlink:href="#DejaVuSans-48"/>
      </g>
     </g>
    </g>
    <g id="ytick_8">
     <g id="line2d_49">
      <path clip-path="url(#pca58257e51)" d="M 591.545455 214.765612 
L 972 214.765612 
" style="fill:none;stroke:#b0b0b0;stroke-linecap:square;stroke-width:0.8;"/>
     </g>
     <g id="line2d_50">
      <g>
       <use style="stroke:#000000;stroke-width:0.8;" x="591.545455" xlink:href="#m6691ff6301" y="214.765612"/>
      </g>
     </g>
     <g id="text_28">
      <!-- −0.25 -->
      <g transform="translate(553.900142 218.564831)scale(0.1 -0.1)">
       <use xlink:href="#DejaVuSans-8722"/>
       <use x="83.789062" xlink:href="#DejaVuSans-48"/>
       <use x="147.412109" xlink:href="#DejaVuSans-46"/>
       <use x="179.199219" xlink:href="#DejaVuSans-50"/>
       <use x="242.822266" xlink:href="#DejaVuSans-53"/>
      </g>
     </g>
    </g>
    <g id="ytick_9">
     <g id="line2d_51">
      <path clip-path="url(#pca58257e51)" d="M 591.545455 179.1 
L 972 179.1 
" style="fill:none;stroke:#b0b0b0;stroke-linecap:square;stroke-width:0.8;"/>
     </g>
     <g id="line2d_52">
      <g>
       <use style="stroke:#000000;stroke-width:0.8;" x="591.545455" xlink:href="#m6691ff6301" y="179.1"/>
      </g>
     </g>
     <g id="text_29">
      <!-- 0.00 -->
      <g transform="translate(562.27983 182.899219)scale(0.1 -0.1)">
       <use xlink:href="#DejaVuSans-48"/>
       <use x="63.623047" xlink:href="#DejaVuSans-46"/>
       <use x="95.410156" xlink:href="#DejaVuSans-48"/>
       <use x="159.033203" xlink:href="#DejaVuSans-48"/>
      </g>
     </g>
    </g>
    <g id="ytick_10">
     <g id="line2d_53">
      <path clip-path="url(#pca58257e51)" d="M 591.545455 143.434388 
L 972 143.434388 
" style="fill:none;stroke:#b0b0b0;stroke-linecap:square;stroke-width:0.8;"/>
     </g>
     <g id="line2d_54">
      <g>
       <use style="stroke:#000000;stroke-width:0.8;" x="591.545455" xlink:href="#m6691ff6301" y="143.434388"/>
      </g>
     </g>
     <g id="text_30">
      <!-- 0.25 -->
      <g transform="translate(562.27983 147.233607)scale(0.1 -0.1)">
       <use xlink:href="#DejaVuSans-48"/>
       <use x="63.623047" xlink:href="#DejaVuSans-46"/>
       <use x="95.410156" xlink:href="#DejaVuSans-50"/>
       <use x="159.033203" xlink:href="#DejaVuSans-53"/>
      </g>
     </g>
    </g>
    <g id="ytick_11">
     <g id="line2d_55">
      <path clip-path="url(#pca58257e51)" d="M 591.545455 107.768776 
L 972 107.768776 
" style="fill:none;stroke:#b0b0b0;stroke-linecap:square;stroke-width:0.8;"/>
     </g>
     <g id="line2d_56">
      <g>
       <use style="stroke:#000000;stroke-width:0.8;" x="591.545455" xlink:href="#m6691ff6301" y="107.768776"/>
      </g>
     </g>
     <g id="text_31">
      <!-- 0.50 -->
      <g transform="translate(562.27983 111.567995)scale(0.1 -0.1)">
       <use xlink:href="#DejaVuSans-48"/>
       <use x="63.623047" xlink:href="#DejaVuSans-46"/>
       <use x="95.410156" xlink:href="#DejaVuSans-53"/>
       <use x="159.033203" xlink:href="#DejaVuSans-48"/>
      </g>
     </g>
    </g>
    <g id="ytick_12">
     <g id="line2d_57">
      <path clip-path="url(#pca58257e51)" d="M 591.545455 72.103165 
L 972 72.103165 
" style="fill:none;stroke:#b0b0b0;stroke-linecap:square;stroke-width:0.8;"/>
     </g>
     <g id="line2d_58">
      <g>
       <use style="stroke:#000000;stroke-width:0.8;" x="591.545455" xlink:href="#m6691ff6301" y="72.103165"/>
      </g>
     </g>
     <g id="text_32">
      <!-- 0.75 -->
      <g transform="translate(562.27983 75.902383)scale(0.1 -0.1)">
       <use xlink:href="#DejaVuSans-48"/>
       <use x="63.623047" xlink:href="#DejaVuSans-46"/>
       <use x="95.410156" xlink:href="#DejaVuSans-55"/>
       <use x="159.033203" xlink:href="#DejaVuSans-53"/>
      </g>
     </g>
    </g>
    <g id="text_33">
     <!-- y -->
     <g transform="translate(547.820455 182.059375)rotate(-90)scale(0.1 -0.1)">
      <use xlink:href="#DejaVuSans-121"/>
     </g>
    </g>
   </g>
   <g id="line2d_59">
    <path clip-path="url(#pca58257e51)" d="M 954.706612 179.1 
L 954.620414 175.199728 
L 954.361907 171.303343 
L 953.93135 167.414731 
L 953.329169 163.537766 
L 952.555967 159.676314 
L 951.612514 155.834225 
L 950.49975 152.015327 
L 949.218784 148.223428 
L 947.770894 144.462307 
L 946.157523 140.735713 
L 944.380278 137.047363 
L 942.440932 133.400931 
L 940.341418 129.800053 
L 938.083828 126.248318 
L 935.670413 122.749267 
L 933.103579 119.306387 
L 930.385884 115.923111 
L 927.520038 112.602811 
L 924.508897 109.348797 
L 921.355463 106.164313 
L 918.062878 103.052532 
L 914.634426 100.016557 
L 911.073524 97.059415 
L 907.383721 94.184052 
L 903.568696 91.393335 
L 899.632251 88.690046 
L 895.578311 86.07688 
L 891.410915 83.556441 
L 887.13422 81.131242 
L 882.752487 78.803701 
L 878.270084 76.576137 
L 873.69148 74.450771 
L 869.021239 72.429721 
L 864.264016 70.515003 
L 859.424552 68.708525 
L 854.507674 67.012087 
L 849.51828 65.427381 
L 844.461346 63.955987 
L 839.341911 62.59937 
L 834.16508 61.358884 
L 828.936012 60.235765 
L 823.659919 59.231132 
L 818.342062 58.345987 
L 812.987742 57.581212 
L 807.602294 56.93757 
L 802.191089 56.415702 
L 796.759519 56.016129 
L 791.312999 55.739248 
L 785.856959 55.585336 
L 780.396836 55.554545 
L 774.938075 55.646908 
L 769.486115 55.862332 
L 764.046393 56.200601 
L 758.624329 56.661379 
L 753.22533 57.244207 
L 747.854777 57.948503 
L 742.518023 58.773566 
L 737.220388 59.718572 
L 731.967153 60.782581 
L 726.763555 61.964531 
L 721.61478 63.263244 
L 716.525962 64.677426 
L 711.502172 66.205667 
L 706.548418 67.846443 
L 701.669639 69.598119 
L 696.870698 71.458949 
L 692.156378 73.427078 
L 687.531379 75.500544 
L 683.000312 77.67728 
L 678.567691 79.955117 
L 674.237938 82.331783 
L 670.015366 84.80491 
L 665.904186 87.372033 
L 661.908495 90.030592 
L 658.032277 92.777937 
L 654.279395 95.61133 
L 650.653591 98.527946 
L 647.158479 101.524878 
L 643.797542 104.599139 
L 640.574131 107.747664 
L 637.491459 110.967314 
L 634.552599 114.254881 
L 631.76048 117.607086 
L 629.117887 121.02059 
L 626.627452 124.491987 
L 624.291658 128.01782 
L 622.112835 131.594572 
L 620.093153 135.218679 
L 618.234626 138.886527 
L 616.539107 142.594461 
L 615.008285 146.338785 
L 613.643687 150.115765 
L 612.446673 153.921638 
L 611.418437 157.75261 
L 610.560002 161.60486 
L 609.872225 165.474551 
L 609.355792 169.357823 
L 609.011216 173.250807 
L 608.838843 177.149621 
L 608.838843 181.050379 
L 609.011216 184.949193 
L 609.355792 188.842177 
L 609.872225 192.725449 
L 610.560002 196.59514 
L 611.418437 200.44739 
L 612.446673 204.278362 
L 613.643687 208.084235 
L 615.008285 211.861215 
L 616.539107 215.605539 
L 618.234626 219.313473 
L 620.093153 222.981321 
L 622.112835 226.605428 
L 624.291658 230.18218 
L 626.627452 233.708013 
L 629.117887 237.17941 
L 631.76048 240.592914 
L 634.552599 243.945119 
L 637.491459 247.232686 
L 640.574131 250.452336 
L 643.797542 253.600861 
L 647.158479 256.675122 
L 650.653591 259.672054 
L 654.279395 262.58867 
L 658.032277 265.422063 
L 661.908495 268.169408 
L 665.904186 270.827967 
L 670.015366 273.39509 
L 674.237938 275.868217 
L 678.567691 278.244883 
L 683.000312 280.52272 
L 687.531379 282.699456 
L 692.156378 284.772922 
L 696.870698 286.741051 
L 701.669639 288.601881 
L 706.548418 290.353557 
L 711.502172 291.994333 
L 716.525962 293.522574 
L 721.61478 294.936756 
L 726.763555 296.235469 
L 731.967153 297.417419 
L 737.220388 298.481428 
L 742.518023 299.426434 
L 747.854777 300.251497 
L 753.22533 300.955793 
L 758.624329 301.538621 
L 764.046393 301.999399 
L 769.486115 302.337668 
L 774.938075 302.553092 
L 780.396836 302.645455 
L 785.856959 302.614664 
L 791.312999 302.460752 
L 796.759519 302.183871 
L 802.191089 301.784298 
L 807.602294 301.26243 
L 812.987742 300.618788 
L 818.342062 299.854013 
L 823.659919 298.968868 
L 828.936012 297.964235 
L 834.16508 296.841116 
L 839.341911 295.60063 
L 844.461346 294.244013 
L 849.51828 292.772619 
L 854.507674 291.187913 
L 859.424552 289.491475 
L 864.264016 287.684997 
L 869.021239 285.770279 
L 873.69148 283.749229 
L 878.270084 281.623863 
L 882.752487 279.396299 
L 887.13422 277.068758 
L 891.410915 274.643559 
L 895.578311 272.12312 
L 899.632251 269.509954 
L 903.568696 266.806665 
L 907.383721 264.015948 
L 911.073524 261.140585 
L 914.634426 258.183443 
L 918.062878 255.147468 
L 921.355463 252.035687 
L 924.508897 248.851203 
L 927.520038 245.597189 
L 930.385884 242.276889 
L 933.103579 238.893613 
L 935.670413 235.450733 
L 938.083828 231.951682 
L 940.341418 228.399947 
L 942.440932 224.799069 
L 944.380278 221.152637 
L 946.157523 217.464287 
L 947.770894 213.737693 
L 949.218784 209.976572 
L 950.49975 206.184673 
L 951.612514 202.365775 
L 952.555967 198.523686 
L 953.329169 194.662234 
L 953.93135 190.785269 
L 954.361907 186.896657 
L 954.620414 183.000272 
L 954.706612 179.1 
L 954.706612 179.1 
" style="fill:none;stroke:#1f77b4;stroke-linecap:square;stroke-width:1.5;"/>
   </g>
   <g id="line2d_60">
    <defs>
     <path d="M 0 3 
C 0.795609 3 1.55874 2.683901 2.12132 2.12132 
C 2.683901 1.55874 3 0.795609 3 0 
C 3 -0.795609 2.683901 -1.55874 2.12132 -2.12132 
C 1.55874 -2.683901 0.795609 -3 0 -3 
C -0.795609 -3 -1.55874 -2.683901 -2.12132 -2.12132 
C -2.683901 -1.55874 -3 -0.795609 -3 0 
C -3 0.795609 -2.683901 1.55874 -2.12132 2.12132 
C -1.55874 2.683901 -0.795609 3 0 3 
z
" id="m3ff1d2de94" style="stroke:#0000ff;"/>
    </defs>
    <g clip-path="url(#pca58257e51)">
     <use style="fill:#0000ff;stroke:#0000ff;" x="868.234282" xlink:href="#m3ff1d2de94" y="179.1"/>
    </g>
   </g>
   <g id="patch_9">
    <path d="M 591.545455 315 
L 591.545455 43.2 
" style="fill:none;stroke:#000000;stroke-linecap:square;stroke-linejoin:miter;stroke-width:0.8;"/>
   </g>
   <g id="patch_10">
    <path d="M 972 315 
L 972 43.2 
" style="fill:none;stroke:#000000;stroke-linecap:square;stroke-linejoin:miter;stroke-width:0.8;"/>
   </g>
   <g id="patch_11">
    <path d="M 591.545455 315 
L 972 315 
" style="fill:none;stroke:#000000;stroke-linecap:square;stroke-linejoin:miter;stroke-width:0.8;"/>
   </g>
   <g id="patch_12">
    <path d="M 591.545455 43.2 
L 972 43.2 
" style="fill:none;stroke:#000000;stroke-linecap:square;stroke-linejoin:miter;stroke-width:0.8;"/>
   </g>
  </g>
 </g>
 <defs>
  <clipPath id="p547181646b">
   <rect height="271.8" width="380.454545" x="135" y="43.2"/>
  </clipPath>
  <clipPath id="pca58257e51">
   <rect height="271.8" width="380.454545" x="591.545455" y="43.2"/>
  </clipPath>
 </defs>
</svg>
