<?xml version="1.0" encoding="utf-8" standalone="no"?>
<!DOCTYPE svg PUBLIC "-//W3C//DTD SVG 1.1//EN"
  "http://www.w3.org/Graphics/SVG/1.1/DTD/svg11.dtd">
<!-- Created with matplotlib (http://matplotlib.org/) -->
<svg height="360pt" version="1.1" viewBox="0 0 1080 360" width="1080pt" xmlns="http://www.w3.org/2000/svg" xmlns:xlink="http://www.w3.org/1999/xlink">
 <defs>
  <style type="text/css">
*{stroke-linecap:butt;stroke-linejoin:round;}
  </style>
 </defs>
 <g id="figure_1">
  <g id="patch_1">
   <path d="M 0 360 
L 1080 360 
L 1080 0 
L 0 0 
z
" style="fill:#ffffff;"/>
  </g>
  <g id="axes_1">
   <g id="patch_2">
    <path d="M 135 315 
L 515.454545 315 
L 515.454545 43.2 
L 135 43.2 
z
" style="fill:#ffffff;"/>
   </g>
   <g id="matplotlib.axis_1">
    <g id="xtick_1">
     <g id="line2d_1">
      <path clip-path="url(#pf5081edaf5)" d="M 152.293388 315 
L 152.293388 43.2 
" style="fill:none;stroke:#b0b0b0;stroke-linecap:square;stroke-width:0.8;"/>
     </g>
     <g id="line2d_2">
      <defs>
       <path d="M 0 0 
L 0 3.5 
" id="m08255457ee" style="stroke:#000000;stroke-width:0.8;"/>
      </defs>
      <g>
       <use style="stroke:#000000;stroke-width:0.8;" x="152.293388" xlink:href="#m08255457ee" y="315"/>
      </g>
     </g>
     <g id="text_1">
      <!-- 0 -->
      <defs>
       <path d="M 31.78125 66.40625 
Q 24.171875 66.40625 20.328125 58.90625 
Q 16.5 51.421875 16.5 36.375 
Q 16.5 21.390625 20.328125 13.890625 
Q 24.171875 6.390625 31.78125 6.390625 
Q 39.453125 6.390625 43.28125 13.890625 
Q 47.125 21.390625 47.125 36.375 
Q 47.125 51.421875 43.28125 58.90625 
Q 39.453125 66.40625 31.78125 66.40625 
z
M 31.78125 74.21875 
Q 44.046875 74.21875 50.515625 64.515625 
Q 56.984375 54.828125 56.984375 36.375 
Q 56.984375 17.96875 50.515625 8.265625 
Q 44.046875 -1.421875 31.78125 -1.421875 
Q 19.53125 -1.421875 13.0625 8.265625 
Q 6.59375 17.96875 6.59375 36.375 
Q 6.59375 54.828125 13.0625 64.515625 
Q 19.53125 74.21875 31.78125 74.21875 
z
" id="DejaVuSans-30"/>
      </defs>
      <g transform="translate(149.112138 329.598437)scale(0.1 -0.1)">
       <use xlink:href="#DejaVuSans-30"/>
      </g>
     </g>
    </g>
    <g id="xtick_2">
     <g id="line2d_3">
      <path clip-path="url(#pf5081edaf5)" d="M 238.760331 315 
L 238.760331 43.2 
" style="fill:none;stroke:#b0b0b0;stroke-linecap:square;stroke-width:0.8;"/>
     </g>
     <g id="line2d_4">
      <g>
       <use style="stroke:#000000;stroke-width:0.8;" x="238.760331" xlink:href="#m08255457ee" y="315"/>
      </g>
     </g>
     <g id="text_2">
      <!-- 90 -->
      <defs>
       <path d="M 10.984375 1.515625 
L 10.984375 10.5 
Q 14.703125 8.734375 18.5 7.8125 
Q 22.3125 6.890625 25.984375 6.890625 
Q 35.75 6.890625 40.890625 13.453125 
Q 46.046875 20.015625 46.78125 33.40625 
Q 43.953125 29.203125 39.59375 26.953125 
Q 35.25 24.703125 29.984375 24.703125 
Q 19.046875 24.703125 12.671875 31.3125 
Q 6.296875 37.9375 6.296875 49.421875 
Q 6.296875 60.640625 12.9375 67.421875 
Q 19.578125 74.21875 30.609375 74.21875 
Q 43.265625 74.21875 49.921875 64.515625 
Q 56.59375 54.828125 56.59375 36.375 
Q 56.59375 19.140625 48.40625 8.859375 
Q 40.234375 -1.421875 26.421875 -1.421875 
Q 22.703125 -1.421875 18.890625 -0.6875 
Q 15.09375 0.046875 10.984375 1.515625 
z
M 30.609375 32.421875 
Q 37.25 32.421875 41.125 36.953125 
Q 45.015625 41.5 45.015625 49.421875 
Q 45.015625 57.28125 41.125 61.84375 
Q 37.25 66.40625 30.609375 66.40625 
Q 23.96875 66.40625 20.09375 61.84375 
Q 16.21875 57.28125 16.21875 49.421875 
Q 16.21875 41.5 20.09375 36.953125 
Q 23.96875 32.421875 30.609375 32.421875 
z
" id="DejaVuSans-39"/>
      </defs>
      <g transform="translate(232.397831 329.598437)scale(0.1 -0.1)">
       <use xlink:href="#DejaVuSans-39"/>
       <use x="63.623047" xlink:href="#DejaVuSans-30"/>
      </g>
     </g>
    </g>
    <g id="xtick_3">
     <g id="line2d_5">
      <path clip-path="url(#pf5081edaf5)" d="M 325.227273 315 
L 325.227273 43.2 
" style="fill:none;stroke:#b0b0b0;stroke-linecap:square;stroke-width:0.8;"/>
     </g>
     <g id="line2d_6">
      <g>
       <use style="stroke:#000000;stroke-width:0.8;" x="325.227273" xlink:href="#m08255457ee" y="315"/>
      </g>
     </g>
     <g id="text_3">
      <!-- 180 -->
      <defs>
       <path d="M 12.40625 8.296875 
L 28.515625 8.296875 
L 28.515625 63.921875 
L 10.984375 60.40625 
L 10.984375 69.390625 
L 28.421875 72.90625 
L 38.28125 72.90625 
L 38.28125 8.296875 
L 54.390625 8.296875 
L 54.390625 0 
L 12.40625 0 
z
" id="DejaVuSans-31"/>
       <path d="M 31.78125 34.625 
Q 24.75 34.625 20.71875 30.859375 
Q 16.703125 27.09375 16.703125 20.515625 
Q 16.703125 13.921875 20.71875 10.15625 
Q 24.75 6.390625 31.78125 6.390625 
Q 38.8125 6.390625 42.859375 10.171875 
Q 46.921875 13.96875 46.921875 20.515625 
Q 46.921875 27.09375 42.890625 30.859375 
Q 38.875 34.625 31.78125 34.625 
z
M 21.921875 38.8125 
Q 15.578125 40.375 12.03125 44.71875 
Q 8.5 49.078125 8.5 55.328125 
Q 8.5 64.0625 14.71875 69.140625 
Q 20.953125 74.21875 31.78125 74.21875 
Q 42.671875 74.21875 48.875 69.140625 
Q 55.078125 64.0625 55.078125 55.328125 
Q 55.078125 49.078125 51.53125 44.71875 
Q 48 40.375 41.703125 38.8125 
Q 48.828125 37.15625 52.796875 32.3125 
Q 56.78125 27.484375 56.78125 20.515625 
Q 56.78125 9.90625 50.3125 4.234375 
Q 43.84375 -1.421875 31.78125 -1.421875 
Q 19.734375 -1.421875 13.25 4.234375 
Q 6.78125 9.90625 6.78125 20.515625 
Q 6.78125 27.484375 10.78125 32.3125 
Q 14.796875 37.15625 21.921875 38.8125 
z
M 18.3125 54.390625 
Q 18.3125 48.734375 21.84375 45.5625 
Q 25.390625 42.390625 31.78125 42.390625 
Q 38.140625 42.390625 41.71875 45.5625 
Q 45.3125 48.734375 45.3125 54.390625 
Q 45.3125 60.0625 41.71875 63.234375 
Q 38.140625 66.40625 31.78125 66.40625 
Q 25.390625 66.40625 21.84375 63.234375 
Q 18.3125 60.0625 18.3125 54.390625 
z
" id="DejaVuSans-38"/>
      </defs>
      <g transform="translate(315.683523 329.598437)scale(0.1 -0.1)">
       <use xlink:href="#DejaVuSans-31"/>
       <use x="63.623047" xlink:href="#DejaVuSans-38"/>
       <use x="127.246094" xlink:href="#DejaVuSans-30"/>
      </g>
     </g>
    </g>
    <g id="xtick_4">
     <g id="line2d_7">
      <path clip-path="url(#pf5081edaf5)" d="M 411.694215 315 
L 411.694215 43.2 
" style="fill:none;stroke:#b0b0b0;stroke-linecap:square;stroke-width:0.8;"/>
     </g>
     <g id="line2d_8">
      <g>
       <use style="stroke:#000000;stroke-width:0.8;" x="411.694215" xlink:href="#m08255457ee" y="315"/>
      </g>
     </g>
     <g id="text_4">
      <!-- 270 -->
      <defs>
       <path d="M 19.1875 8.296875 
L 53.609375 8.296875 
L 53.609375 0 
L 7.328125 0 
L 7.328125 8.296875 
Q 12.9375 14.109375 22.625 23.890625 
Q 32.328125 33.6875 34.8125 36.53125 
Q 39.546875 41.84375 41.421875 45.53125 
Q 43.3125 49.21875 43.3125 52.78125 
Q 43.3125 58.59375 39.234375 62.25 
Q 35.15625 65.921875 28.609375 65.921875 
Q 23.96875 65.921875 18.8125 64.3125 
Q 13.671875 62.703125 7.8125 59.421875 
L 7.8125 69.390625 
Q 13.765625 71.78125 18.9375 73 
Q 24.125 74.21875 28.421875 74.21875 
Q 39.75 74.21875 46.484375 68.546875 
Q 53.21875 62.890625 53.21875 53.421875 
Q 53.21875 48.921875 51.53125 44.890625 
Q 49.859375 40.875 45.40625 35.40625 
Q 44.1875 33.984375 37.640625 27.21875 
Q 31.109375 20.453125 19.1875 8.296875 
z
" id="DejaVuSans-32"/>
       <path d="M 8.203125 72.90625 
L 55.078125 72.90625 
L 55.078125 68.703125 
L 28.609375 0 
L 18.3125 0 
L 43.21875 64.59375 
L 8.203125 64.59375 
z
" id="DejaVuSans-37"/>
      </defs>
      <g transform="translate(402.150465 329.598437)scale(0.1 -0.1)">
       <use xlink:href="#DejaVuSans-32"/>
       <use x="63.623047" xlink:href="#DejaVuSans-37"/>
       <use x="127.246094" xlink:href="#DejaVuSans-30"/>
      </g>
     </g>
    </g>
    <g id="xtick_5">
     <g id="line2d_9">
      <path clip-path="url(#pf5081edaf5)" d="M 498.161157 315 
L 498.161157 43.2 
" style="fill:none;stroke:#b0b0b0;stroke-linecap:square;stroke-width:0.8;"/>
     </g>
     <g id="line2d_10">
      <g>
       <use style="stroke:#000000;stroke-width:0.8;" x="498.161157" xlink:href="#m08255457ee" y="315"/>
      </g>
     </g>
     <g id="text_5">
      <!-- 360 -->
      <defs>
       <path d="M 40.578125 39.3125 
Q 47.65625 37.796875 51.625 33 
Q 55.609375 28.21875 55.609375 21.1875 
Q 55.609375 10.40625 48.1875 4.484375 
Q 40.765625 -1.421875 27.09375 -1.421875 
Q 22.515625 -1.421875 17.65625 -0.515625 
Q 12.796875 0.390625 7.625 2.203125 
L 7.625 11.71875 
Q 11.71875 9.328125 16.59375 8.109375 
Q 21.484375 6.890625 26.8125 6.890625 
Q 36.078125 6.890625 40.9375 10.546875 
Q 45.796875 14.203125 45.796875 21.1875 
Q 45.796875 27.640625 41.28125 31.265625 
Q 36.765625 34.90625 28.71875 34.90625 
L 20.21875 34.90625 
L 20.21875 43.015625 
L 29.109375 43.015625 
Q 36.375 43.015625 40.234375 45.921875 
Q 44.09375 48.828125 44.09375 54.296875 
Q 44.09375 59.90625 40.109375 62.90625 
Q 36.140625 65.921875 28.71875 65.921875 
Q 24.65625 65.921875 20.015625 65.03125 
Q 15.375 64.15625 9.8125 62.3125 
L 9.8125 71.09375 
Q 15.4375 72.65625 20.34375 73.4375 
Q 25.25 74.21875 29.59375 74.21875 
Q 40.828125 74.21875 47.359375 69.109375 
Q 53.90625 64.015625 53.90625 55.328125 
Q 53.90625 49.265625 50.4375 45.09375 
Q 46.96875 40.921875 40.578125 39.3125 
z
" id="DejaVuSans-33"/>
       <path d="M 33.015625 40.375 
Q 26.375 40.375 22.484375 35.828125 
Q 18.609375 31.296875 18.609375 23.390625 
Q 18.609375 15.53125 22.484375 10.953125 
Q 26.375 6.390625 33.015625 6.390625 
Q 39.65625 6.390625 43.53125 10.953125 
Q 47.40625 15.53125 47.40625 23.390625 
Q 47.40625 31.296875 43.53125 35.828125 
Q 39.65625 40.375 33.015625 40.375 
z
M 52.59375 71.296875 
L 52.59375 62.3125 
Q 48.875 64.0625 45.09375 64.984375 
Q 41.3125 65.921875 37.59375 65.921875 
Q 27.828125 65.921875 22.671875 59.328125 
Q 17.53125 52.734375 16.796875 39.40625 
Q 19.671875 43.65625 24.015625 45.921875 
Q 28.375 48.1875 33.59375 48.1875 
Q 44.578125 48.1875 50.953125 41.515625 
Q 57.328125 34.859375 57.328125 23.390625 
Q 57.328125 12.15625 50.6875 5.359375 
Q 44.046875 -1.421875 33.015625 -1.421875 
Q 20.359375 -1.421875 13.671875 8.265625 
Q 6.984375 17.96875 6.984375 36.375 
Q 6.984375 53.65625 15.1875 63.9375 
Q 23.390625 74.21875 37.203125 74.21875 
Q 40.921875 74.21875 44.703125 73.484375 
Q 48.484375 72.75 52.59375 71.296875 
z
" id="DejaVuSans-36"/>
      </defs>
      <g transform="translate(488.617407 329.598437)scale(0.1 -0.1)">
       <use xlink:href="#DejaVuSans-33"/>
       <use x="63.623047" xlink:href="#DejaVuSans-36"/>
       <use x="127.246094" xlink:href="#DejaVuSans-30"/>
      </g>
     </g>
    </g>
    <g id="text_6">
     <!-- $\theta$ [°] -->
     <defs>
      <path d="M 45.515625 34.671875 
L 14.453125 34.671875 
Q 12.359375 20.0625 14.5 13.875 
Q 17.1875 6.25 24.46875 6.25 
Q 31.78125 6.25 37.359375 13.921875 
Q 42.234375 20.65625 45.515625 34.671875 
z
M 47.015625 42.96875 
Q 48.34375 56.84375 46.625 61.71875 
Q 43.953125 69.4375 36.765625 69.4375 
Q 29.296875 69.4375 23.828125 61.8125 
Q 19.53125 55.671875 16.15625 42.96875 
z
M 38.1875 76.765625 
Q 49.90625 76.765625 54.59375 66.40625 
Q 59.28125 56.109375 55.71875 37.84375 
Q 52.203125 19.625 43.453125 9.28125 
Q 34.765625 -1.125 23.046875 -1.125 
Q 11.28125 -1.125 6.640625 9.28125 
Q 2 19.625 5.515625 37.84375 
Q 9.078125 56.109375 17.71875 66.40625 
Q 26.421875 76.765625 38.1875 76.765625 
z
" id="DejaVuSans-Oblique-3b8"/>
      <path id="DejaVuSans-20"/>
      <path d="M 8.59375 75.984375 
L 29.296875 75.984375 
L 29.296875 69 
L 17.578125 69 
L 17.578125 -6.203125 
L 29.296875 -6.203125 
L 29.296875 -13.1875 
L 8.59375 -13.1875 
z
" id="DejaVuSans-5b"/>
      <path d="M 25 67.921875 
Q 21.09375 67.921875 18.40625 65.203125 
Q 15.71875 62.5 15.71875 58.59375 
Q 15.71875 54.734375 18.40625 52.078125 
Q 21.09375 49.421875 25 49.421875 
Q 28.90625 49.421875 31.59375 52.078125 
Q 34.28125 54.734375 34.28125 58.59375 
Q 34.28125 62.453125 31.5625 65.1875 
Q 28.859375 67.921875 25 67.921875 
z
M 25 74.21875 
Q 28.125 74.21875 31 73.015625 
Q 33.890625 71.828125 35.984375 69.578125 
Q 38.234375 67.390625 39.359375 64.59375 
Q 40.484375 61.8125 40.484375 58.59375 
Q 40.484375 52.15625 35.96875 47.6875 
Q 31.453125 43.21875 24.90625 43.21875 
Q 18.3125 43.21875 13.90625 47.609375 
Q 9.515625 52 9.515625 58.59375 
Q 9.515625 65.140625 14 69.671875 
Q 18.5 74.21875 25 74.21875 
z
" id="DejaVuSans-b0"/>
      <path d="M 30.421875 75.984375 
L 30.421875 -13.1875 
L 9.71875 -13.1875 
L 9.71875 -6.203125 
L 21.390625 -6.203125 
L 21.390625 69 
L 9.71875 69 
L 9.71875 75.984375 
z
" id="DejaVuSans-5d"/>
     </defs>
     <g transform="translate(314.177273 343.276563)scale(0.1 -0.1)">
      <use transform="translate(0 0.234375)" xlink:href="#DejaVuSans-Oblique-3b8"/>
      <use transform="translate(61.181641 0.234375)" xlink:href="#DejaVuSans-20"/>
      <use transform="translate(92.96875 0.234375)" xlink:href="#DejaVuSans-5b"/>
      <use transform="translate(131.982422 0.234375)" xlink:href="#DejaVuSans-b0"/>
      <use transform="translate(181.982422 0.234375)" xlink:href="#DejaVuSans-5d"/>
     </g>
    </g>
   </g>
   <g id="matplotlib.axis_2">
    <g id="ytick_1">
     <g id="line2d_11">
      <path clip-path="url(#pf5081edaf5)" d="M 135 302.648638 
L 515.454545 302.648638 
" style="fill:none;stroke:#b0b0b0;stroke-linecap:square;stroke-width:0.8;"/>
     </g>
     <g id="line2d_12">
      <defs>
       <path d="M 0 0 
L -3.5 0 
" id="mf3d0790846" style="stroke:#000000;stroke-width:0.8;"/>
      </defs>
      <g>
       <use style="stroke:#000000;stroke-width:0.8;" x="135" xlink:href="#mf3d0790846" y="302.648638"/>
      </g>
     </g>
     <g id="text_7">
      <!-- −30 -->
      <defs>
       <path d="M 10.59375 35.5 
L 73.1875 35.5 
L 73.1875 27.203125 
L 10.59375 27.203125 
z
" id="DejaVuSans-2212"/>
      </defs>
      <g transform="translate(106.895313 306.447856)scale(0.1 -0.1)">
       <use xlink:href="#DejaVuSans-2212"/>
       <use x="83.789062" xlink:href="#DejaVuSans-33"/>
       <use x="147.412109" xlink:href="#DejaVuSans-30"/>
      </g>
     </g>
    </g>
    <g id="ytick_2">
     <g id="line2d_13">
      <path clip-path="url(#pf5081edaf5)" d="M 135 261.465758 
L 515.454545 261.465758 
" style="fill:none;stroke:#b0b0b0;stroke-linecap:square;stroke-width:0.8;"/>
     </g>
     <g id="line2d_14">
      <g>
       <use style="stroke:#000000;stroke-width:0.8;" x="135" xlink:href="#mf3d0790846" y="261.465758"/>
      </g>
     </g>
     <g id="text_8">
      <!-- −20 -->
      <g transform="translate(106.895313 265.264977)scale(0.1 -0.1)">
       <use xlink:href="#DejaVuSans-2212"/>
       <use x="83.789062" xlink:href="#DejaVuSans-32"/>
       <use x="147.412109" xlink:href="#DejaVuSans-30"/>
      </g>
     </g>
    </g>
    <g id="ytick_3">
     <g id="line2d_15">
      <path clip-path="url(#pf5081edaf5)" d="M 135 220.282879 
L 515.454545 220.282879 
" style="fill:none;stroke:#b0b0b0;stroke-linecap:square;stroke-width:0.8;"/>
     </g>
     <g id="line2d_16">
      <g>
       <use style="stroke:#000000;stroke-width:0.8;" x="135" xlink:href="#mf3d0790846" y="220.282879"/>
      </g>
     </g>
     <g id="text_9">
      <!-- −10 -->
      <g transform="translate(106.895313 224.082098)scale(0.1 -0.1)">
       <use xlink:href="#DejaVuSans-2212"/>
       <use x="83.789062" xlink:href="#DejaVuSans-31"/>
       <use x="147.412109" xlink:href="#DejaVuSans-30"/>
      </g>
     </g>
    </g>
    <g id="ytick_4">
     <g id="line2d_17">
      <path clip-path="url(#pf5081edaf5)" d="M 135 179.1 
L 515.454545 179.1 
" style="fill:none;stroke:#b0b0b0;stroke-linecap:square;stroke-width:0.8;"/>
     </g>
     <g id="line2d_18">
      <g>
       <use style="stroke:#000000;stroke-width:0.8;" x="135" xlink:href="#mf3d0790846" y="179.1"/>
      </g>
     </g>
     <g id="text_10">
      <!-- 0 -->
      <g transform="translate(121.6375 182.899219)scale(0.1 -0.1)">
       <use xlink:href="#DejaVuSans-30"/>
      </g>
     </g>
    </g>
    <g id="ytick_5">
     <g id="line2d_19">
      <path clip-path="url(#pf5081edaf5)" d="M 135 137.917121 
L 515.454545 137.917121 
" style="fill:none;stroke:#b0b0b0;stroke-linecap:square;stroke-width:0.8;"/>
     </g>
     <g id="line2d_20">
      <g>
       <use style="stroke:#000000;stroke-width:0.8;" x="135" xlink:href="#mf3d0790846" y="137.917121"/>
      </g>
     </g>
     <g id="text_11">
      <!-- 10 -->
      <g transform="translate(115.275 141.71634)scale(0.1 -0.1)">
       <use xlink:href="#DejaVuSans-31"/>
       <use x="63.623047" xlink:href="#DejaVuSans-30"/>
      </g>
     </g>
    </g>
    <g id="ytick_6">
     <g id="line2d_21">
      <path clip-path="url(#pf5081edaf5)" d="M 135 96.734242 
L 515.454545 96.734242 
" style="fill:none;stroke:#b0b0b0;stroke-linecap:square;stroke-width:0.8;"/>
     </g>
     <g id="line2d_22">
      <g>
       <use style="stroke:#000000;stroke-width:0.8;" x="135" xlink:href="#mf3d0790846" y="96.734242"/>
      </g>
     </g>
     <g id="text_12">
      <!-- 20 -->
      <g transform="translate(115.275 100.53346)scale(0.1 -0.1)">
       <use xlink:href="#DejaVuSans-32"/>
       <use x="63.623047" xlink:href="#DejaVuSans-30"/>
      </g>
     </g>
    </g>
    <g id="ytick_7">
     <g id="line2d_23">
      <path clip-path="url(#pf5081edaf5)" d="M 135 55.551362 
L 515.454545 55.551362 
" style="fill:none;stroke:#b0b0b0;stroke-linecap:square;stroke-width:0.8;"/>
     </g>
     <g id="line2d_24">
      <g>
       <use style="stroke:#000000;stroke-width:0.8;" x="135" xlink:href="#mf3d0790846" y="55.551362"/>
      </g>
     </g>
     <g id="text_13">
      <!-- 30 -->
      <g transform="translate(115.275 59.350581)scale(0.1 -0.1)">
       <use xlink:href="#DejaVuSans-33"/>
       <use x="63.623047" xlink:href="#DejaVuSans-30"/>
      </g>
     </g>
    </g>
    <g id="text_14">
     <!-- $\alpha/\beta$ [°] -->
     <defs>
      <path d="M 40.921875 25.4375 
L 40.96875 36.71875 
Q 41.015625 48.25 32.328125 48.296875 
Q 25.828125 48.34375 21.78125 42.921875 
Q 16.703125 36.234375 14.984375 27.296875 
Q 12.890625 16.546875 15.53125 11.421875 
Q 18.265625 6.203125 24.171875 6.203125 
Q 30.71875 6.203125 36.234375 16.609375 
z
M 33.84375 55.90625 
Q 49.078125 56.15625 48.875 40.375 
Q 48.875 40.375 56.5 54.6875 
L 64.5 54.6875 
L 48.734375 25.046875 
L 48.578125 14.359375 
Q 48.578125 11.96875 49.90625 9.96875 
Q 51.421875 7.625 52.984375 7.625 
L 57.328125 7.625 
L 55.859375 0 
L 50.4375 0 
Q 45.84375 0 42.53125 4.109375 
Q 40.96875 6.15625 40.921875 10.453125 
Q 37.75 5.21875 32.28125 0.78125 
Q 29.6875 -1.265625 22.703125 -1.21875 
Q 11.28125 -1.125 7.125 6.203125 
Q 2.875 13.8125 5.515625 27.296875 
Q 8.34375 41.796875 15.765625 48.390625 
Q 24.125 55.765625 33.84375 55.90625 
z
" id="DejaVuSans-Oblique-3b1"/>
      <path d="M 25.390625 72.90625 
L 33.6875 72.90625 
L 8.296875 -9.28125 
L 0 -9.28125 
z
" id="DejaVuSans-2f"/>
      <path d="M 13.625 3.375 
L 8.9375 -20.796875 
L -0.09375 -20.796875 
L 14.5 54.34375 
Q 18.84375 76.609375 39.65625 76.609375 
Q 60.75 76.609375 57.171875 57.8125 
Q 54.734375 44.4375 45.21875 39.546875 
Q 58.015625 35.15625 55.515625 22.125 
Q 51.125 -1.078125 27.484375 -1.03125 
Q 17.140625 -0.984375 13.625 3.375 
z
M 15.921875 15.09375 
Q 19.671875 6.59375 29.296875 6.640625 
Q 43.359375 6.640625 46.34375 21.96875 
Q 49.03125 35.75 26.171875 34.671875 
L 27.78125 42.96875 
Q 45.453125 42.671875 48.53125 58.59375 
Q 50.640625 69.34375 39.203125 69.28125 
Q 26.421875 69.28125 23.484375 54.046875 
z
" id="DejaVuSans-Oblique-3b2"/>
     </defs>
     <g transform="translate(100.795312 195.3)rotate(-90)scale(0.1 -0.1)">
      <use transform="translate(0 0.390625)" xlink:href="#DejaVuSans-Oblique-3b1"/>
      <use transform="translate(65.917969 0.390625)" xlink:href="#DejaVuSans-2f"/>
      <use transform="translate(99.609375 0.390625)" xlink:href="#DejaVuSans-Oblique-3b2"/>
      <use transform="translate(163.427734 0.390625)" xlink:href="#DejaVuSans-20"/>
      <use transform="translate(195.214844 0.390625)" xlink:href="#DejaVuSans-5b"/>
      <use transform="translate(234.228516 0.390625)" xlink:href="#DejaVuSans-b0"/>
      <use transform="translate(284.228516 0.390625)" xlink:href="#DejaVuSans-5d"/>
     </g>
    </g>
   </g>
   <g id="line2d_25">
    <path clip-path="url(#pf5081edaf5)" d="M 152.293388 179.1 
L 173.197186 149.392992 
L 184.768341 133.314013 
L 193.152796 121.966359 
L 201.23382 111.362122 
L 208.979712 101.590922 
L 216.371643 92.715811 
L 221.098856 87.317436 
L 225.665433 82.342469 
L 230.073148 77.794852 
L 234.325075 73.676066 
L 238.425338 69.985709 
L 242.378872 66.722025 
L 246.191217 63.882375 
L 249.868337 61.463643 
L 253.416468 59.462586 
L 256.841997 57.876111 
L 260.151352 56.70151 
L 263.350929 55.936632 
L 266.447026 55.580011 
L 269.445795 55.630944 
L 272.353213 56.089533 
L 275.175053 56.956676 
L 277.916873 58.234019 
L 280.58401 59.923867 
L 283.181573 62.029043 
L 285.714449 64.5527 
L 288.187308 67.498079 
L 290.604608 70.868211 
L 292.970609 74.665555 
L 295.28938 78.891575 
L 297.564815 83.546254 
L 299.800638 88.627552 
L 302.000425 94.130817 
L 304.167608 100.048166 
L 306.305491 106.367863 
L 309.464329 116.56506 
L 312.574736 127.553959 
L 315.64662 139.230894 
L 319.699029 155.638879 
L 325.729005 181.25053 
L 331.765002 206.735906 
L 335.828203 222.930297 
L 338.91185 234.39116 
L 342.03728 245.126278 
L 345.214536 255.041378 
L 347.366663 261.161633 
L 349.549727 266.873152 
L 351.767094 272.166202 
L 354.022268 277.034595 
L 356.318895 281.47506 
L 358.660784 285.486639 
L 361.051914 289.070121 
L 363.496448 292.227524 
L 365.998745 294.961642 
L 368.563368 297.275653 
L 371.195093 299.172786 
L 373.898919 300.656058 
L 376.680068 301.728051 
L 379.543988 302.390756 
L 382.496347 302.645455 
L 385.543021 302.492648 
L 388.690079 301.932035 
L 391.943751 300.962524 
L 395.310389 299.582294 
L 398.796416 297.788895 
L 402.408251 295.579402 
L 406.152217 292.950617 
L 410.034433 289.899318 
L 414.060673 286.422582 
L 418.236197 282.518157 
L 422.565562 278.184902 
L 427.052399 273.423285 
L 431.699165 268.235944 
L 436.506877 262.628278 
L 444.018148 253.448978 
L 451.878453 243.391838 
L 460.064809 232.528456 
L 468.541018 220.957788 
L 480.20573 204.65368 
L 498.161157 179.1 
L 498.161157 179.1 
" style="fill:none;stroke:#1f77b4;stroke-linecap:square;stroke-width:1.5;"/>
   </g>
   <g id="line2d_26">
    <path clip-path="url(#pf5081edaf5)" d="M 152.293388 179.1 
L 498.161157 179.1 
L 498.161157 179.1 
" style="fill:none;stroke:#ff7f0e;stroke-linecap:square;stroke-width:1.5;"/>
   </g>
   <g id="patch_3">
    <path d="M 135 315 
L 135 43.2 
" style="fill:none;stroke:#000000;stroke-linecap:square;stroke-linejoin:miter;stroke-width:0.8;"/>
   </g>
   <g id="patch_4">
    <path d="M 515.454545 315 
L 515.454545 43.2 
" style="fill:none;stroke:#000000;stroke-linecap:square;stroke-linejoin:miter;stroke-width:0.8;"/>
   </g>
   <g id="patch_5">
    <path d="M 135 315 
L 515.454545 315 
" style="fill:none;stroke:#000000;stroke-linecap:square;stroke-linejoin:miter;stroke-width:0.8;"/>
   </g>
   <g id="patch_6">
    <path d="M 135 43.2 
L 515.454545 43.2 
" style="fill:none;stroke:#000000;stroke-linecap:square;stroke-linejoin:miter;stroke-width:0.8;"/>
   </g>
   <g id="text_15">
    <!-- Semi-major axis (a) -->
    <defs>
     <path d="M 53.515625 70.515625 
L 53.515625 60.890625 
Q 47.90625 63.578125 42.921875 64.890625 
Q 37.9375 66.21875 33.296875 66.21875 
Q 25.25 66.21875 20.875 63.09375 
Q 16.5 59.96875 16.5 54.203125 
Q 16.5 49.359375 19.40625 46.890625 
Q 22.3125 44.4375 30.421875 42.921875 
L 36.375 41.703125 
Q 47.40625 39.59375 52.65625 34.296875 
Q 57.90625 29 57.90625 20.125 
Q 57.90625 9.515625 50.796875 4.046875 
Q 43.703125 -1.421875 29.984375 -1.421875 
Q 24.8125 -1.421875 18.96875 -0.25 
Q 13.140625 0.921875 6.890625 3.21875 
L 6.890625 13.375 
Q 12.890625 10.015625 18.65625 8.296875 
Q 24.421875 6.59375 29.984375 6.59375 
Q 38.421875 6.59375 43.015625 9.90625 
Q 47.609375 13.234375 47.609375 19.390625 
Q 47.609375 24.75 44.3125 27.78125 
Q 41.015625 30.8125 33.5 32.328125 
L 27.484375 33.5 
Q 16.453125 35.6875 11.515625 40.375 
Q 6.59375 45.0625 6.59375 53.421875 
Q 6.59375 63.09375 13.40625 68.65625 
Q 20.21875 74.21875 32.171875 74.21875 
Q 37.3125 74.21875 42.625 73.28125 
Q 47.953125 72.359375 53.515625 70.515625 
z
" id="DejaVuSans-53"/>
     <path d="M 56.203125 29.59375 
L 56.203125 25.203125 
L 14.890625 25.203125 
Q 15.484375 15.921875 20.484375 11.0625 
Q 25.484375 6.203125 34.421875 6.203125 
Q 39.59375 6.203125 44.453125 7.46875 
Q 49.3125 8.734375 54.109375 11.28125 
L 54.109375 2.78125 
Q 49.265625 0.734375 44.1875 -0.34375 
Q 39.109375 -1.421875 33.890625 -1.421875 
Q 20.796875 -1.421875 13.15625 6.1875 
Q 5.515625 13.8125 5.515625 26.8125 
Q 5.515625 40.234375 12.765625 48.109375 
Q 20.015625 56 32.328125 56 
Q 43.359375 56 49.78125 48.890625 
Q 56.203125 41.796875 56.203125 29.59375 
z
M 47.21875 32.234375 
Q 47.125 39.59375 43.09375 43.984375 
Q 39.0625 48.390625 32.421875 48.390625 
Q 24.90625 48.390625 20.390625 44.140625 
Q 15.875 39.890625 15.1875 32.171875 
z
" id="DejaVuSans-65"/>
     <path d="M 52 44.1875 
Q 55.375 50.25 60.0625 53.125 
Q 64.75 56 71.09375 56 
Q 79.640625 56 84.28125 50.015625 
Q 88.921875 44.046875 88.921875 33.015625 
L 88.921875 0 
L 79.890625 0 
L 79.890625 32.71875 
Q 79.890625 40.578125 77.09375 44.375 
Q 74.3125 48.1875 68.609375 48.1875 
Q 61.625 48.1875 57.5625 43.546875 
Q 53.515625 38.921875 53.515625 30.90625 
L 53.515625 0 
L 44.484375 0 
L 44.484375 32.71875 
Q 44.484375 40.625 41.703125 44.40625 
Q 38.921875 48.1875 33.109375 48.1875 
Q 26.21875 48.1875 22.15625 43.53125 
Q 18.109375 38.875 18.109375 30.90625 
L 18.109375 0 
L 9.078125 0 
L 9.078125 54.6875 
L 18.109375 54.6875 
L 18.109375 46.1875 
Q 21.1875 51.21875 25.484375 53.609375 
Q 29.78125 56 35.6875 56 
Q 41.65625 56 45.828125 52.96875 
Q 50 49.953125 52 44.1875 
z
" id="DejaVuSans-6d"/>
     <path d="M 9.421875 54.6875 
L 18.40625 54.6875 
L 18.40625 0 
L 9.421875 0 
z
M 9.421875 75.984375 
L 18.40625 75.984375 
L 18.40625 64.59375 
L 9.421875 64.59375 
z
" id="DejaVuSans-69"/>
     <path d="M 4.890625 31.390625 
L 31.203125 31.390625 
L 31.203125 23.390625 
L 4.890625 23.390625 
z
" id="DejaVuSans-2d"/>
     <path d="M 34.28125 27.484375 
Q 23.390625 27.484375 19.1875 25 
Q 14.984375 22.515625 14.984375 16.5 
Q 14.984375 11.71875 18.140625 8.90625 
Q 21.296875 6.109375 26.703125 6.109375 
Q 34.1875 6.109375 38.703125 11.40625 
Q 43.21875 16.703125 43.21875 25.484375 
L 43.21875 27.484375 
z
M 52.203125 31.203125 
L 52.203125 0 
L 43.21875 0 
L 43.21875 8.296875 
Q 40.140625 3.328125 35.546875 0.953125 
Q 30.953125 -1.421875 24.3125 -1.421875 
Q 15.921875 -1.421875 10.953125 3.296875 
Q 6 8.015625 6 15.921875 
Q 6 25.140625 12.171875 29.828125 
Q 18.359375 34.515625 30.609375 34.515625 
L 43.21875 34.515625 
L 43.21875 35.40625 
Q 43.21875 41.609375 39.140625 45 
Q 35.0625 48.390625 27.6875 48.390625 
Q 23 48.390625 18.546875 47.265625 
Q 14.109375 46.140625 10.015625 43.890625 
L 10.015625 52.203125 
Q 14.9375 54.109375 19.578125 55.046875 
Q 24.21875 56 28.609375 56 
Q 40.484375 56 46.34375 49.84375 
Q 52.203125 43.703125 52.203125 31.203125 
z
" id="DejaVuSans-61"/>
     <path d="M 9.421875 54.6875 
L 18.40625 54.6875 
L 18.40625 -0.984375 
Q 18.40625 -11.421875 14.421875 -16.109375 
Q 10.453125 -20.796875 1.609375 -20.796875 
L -1.8125 -20.796875 
L -1.8125 -13.1875 
L 0.59375 -13.1875 
Q 5.71875 -13.1875 7.5625 -10.8125 
Q 9.421875 -8.453125 9.421875 -0.984375 
z
M 9.421875 75.984375 
L 18.40625 75.984375 
L 18.40625 64.59375 
L 9.421875 64.59375 
z
" id="DejaVuSans-6a"/>
     <path d="M 30.609375 48.390625 
Q 23.390625 48.390625 19.1875 42.75 
Q 14.984375 37.109375 14.984375 27.296875 
Q 14.984375 17.484375 19.15625 11.84375 
Q 23.34375 6.203125 30.609375 6.203125 
Q 37.796875 6.203125 41.984375 11.859375 
Q 46.1875 17.53125 46.1875 27.296875 
Q 46.1875 37.015625 41.984375 42.703125 
Q 37.796875 48.390625 30.609375 48.390625 
z
M 30.609375 56 
Q 42.328125 56 49.015625 48.375 
Q 55.71875 40.765625 55.71875 27.296875 
Q 55.71875 13.875 49.015625 6.21875 
Q 42.328125 -1.421875 30.609375 -1.421875 
Q 18.84375 -1.421875 12.171875 6.21875 
Q 5.515625 13.875 5.515625 27.296875 
Q 5.515625 40.765625 12.171875 48.375 
Q 18.84375 56 30.609375 56 
z
" id="DejaVuSans-6f"/>
     <path d="M 41.109375 46.296875 
Q 39.59375 47.171875 37.8125 47.578125 
Q 36.03125 48 33.890625 48 
Q 26.265625 48 22.1875 43.046875 
Q 18.109375 38.09375 18.109375 28.8125 
L 18.109375 0 
L 9.078125 0 
L 9.078125 54.6875 
L 18.109375 54.6875 
L 18.109375 46.1875 
Q 20.953125 51.171875 25.484375 53.578125 
Q 30.03125 56 36.53125 56 
Q 37.453125 56 38.578125 55.875 
Q 39.703125 55.765625 41.0625 55.515625 
z
" id="DejaVuSans-72"/>
     <path d="M 54.890625 54.6875 
L 35.109375 28.078125 
L 55.90625 0 
L 45.3125 0 
L 29.390625 21.484375 
L 13.484375 0 
L 2.875 0 
L 24.125 28.609375 
L 4.6875 54.6875 
L 15.28125 54.6875 
L 29.78125 35.203125 
L 44.28125 54.6875 
z
" id="DejaVuSans-78"/>
     <path d="M 44.28125 53.078125 
L 44.28125 44.578125 
Q 40.484375 46.53125 36.375 47.5 
Q 32.28125 48.484375 27.875 48.484375 
Q 21.1875 48.484375 17.84375 46.4375 
Q 14.5 44.390625 14.5 40.28125 
Q 14.5 37.15625 16.890625 35.375 
Q 19.28125 33.59375 26.515625 31.984375 
L 29.59375 31.296875 
Q 39.15625 29.25 43.1875 25.515625 
Q 47.21875 21.78125 47.21875 15.09375 
Q 47.21875 7.46875 41.1875 3.015625 
Q 35.15625 -1.421875 24.609375 -1.421875 
Q 20.21875 -1.421875 15.453125 -0.5625 
Q 10.6875 0.296875 5.421875 2 
L 5.421875 11.28125 
Q 10.40625 8.6875 15.234375 7.390625 
Q 20.0625 6.109375 24.8125 6.109375 
Q 31.15625 6.109375 34.5625 8.28125 
Q 37.984375 10.453125 37.984375 14.40625 
Q 37.984375 18.0625 35.515625 20.015625 
Q 33.0625 21.96875 24.703125 23.78125 
L 21.578125 24.515625 
Q 13.234375 26.265625 9.515625 29.90625 
Q 5.8125 33.546875 5.8125 39.890625 
Q 5.8125 47.609375 11.28125 51.796875 
Q 16.75 56 26.8125 56 
Q 31.78125 56 36.171875 55.265625 
Q 40.578125 54.546875 44.28125 53.078125 
z
" id="DejaVuSans-73"/>
     <path d="M 31 75.875 
Q 24.46875 64.65625 21.28125 53.65625 
Q 18.109375 42.671875 18.109375 31.390625 
Q 18.109375 20.125 21.3125 9.0625 
Q 24.515625 -2 31 -13.1875 
L 23.1875 -13.1875 
Q 15.875 -1.703125 12.234375 9.375 
Q 8.59375 20.453125 8.59375 31.390625 
Q 8.59375 42.28125 12.203125 53.3125 
Q 15.828125 64.359375 23.1875 75.875 
z
" id="DejaVuSans-28"/>
     <path d="M 8.015625 75.875 
L 15.828125 75.875 
Q 23.140625 64.359375 26.78125 53.3125 
Q 30.421875 42.28125 30.421875 31.390625 
Q 30.421875 20.453125 26.78125 9.375 
Q 23.140625 -1.703125 15.828125 -13.1875 
L 8.015625 -13.1875 
Q 14.5 -2 17.703125 9.0625 
Q 20.90625 20.125 20.90625 31.390625 
Q 20.90625 42.671875 17.703125 53.65625 
Q 14.5 64.65625 8.015625 75.875 
z
" id="DejaVuSans-29"/>
    </defs>
    <g transform="translate(266.531335 37.2)scale(0.12 -0.12)">
     <use xlink:href="#DejaVuSans-53"/>
     <use x="63.476562" xlink:href="#DejaVuSans-65"/>
     <use x="125" xlink:href="#DejaVuSans-6d"/>
     <use x="222.412109" xlink:href="#DejaVuSans-69"/>
     <use x="250.195312" xlink:href="#DejaVuSans-2d"/>
     <use x="286.279297" xlink:href="#DejaVuSans-6d"/>
     <use x="383.691406" xlink:href="#DejaVuSans-61"/>
     <use x="444.970703" xlink:href="#DejaVuSans-6a"/>
     <use x="472.753906" xlink:href="#DejaVuSans-6f"/>
     <use x="533.935547" xlink:href="#DejaVuSans-72"/>
     <use x="575.048828" xlink:href="#DejaVuSans-20"/>
     <use x="606.835938" xlink:href="#DejaVuSans-61"/>
     <use x="668.115234" xlink:href="#DejaVuSans-78"/>
     <use x="727.294922" xlink:href="#DejaVuSans-69"/>
     <use x="755.078125" xlink:href="#DejaVuSans-73"/>
     <use x="807.177734" xlink:href="#DejaVuSans-20"/>
     <use x="838.964844" xlink:href="#DejaVuSans-28"/>
     <use x="877.978516" xlink:href="#DejaVuSans-61"/>
     <use x="939.257812" xlink:href="#DejaVuSans-29"/>
    </g>
   </g>
   <g id="legend_1">
    <g id="patch_7">
     <path d="M 469.854545 80.678125 
L 508.454545 80.678125 
Q 510.454545 80.678125 510.454545 78.678125 
L 510.454545 50.2 
Q 510.454545 48.2 508.454545 48.2 
L 469.854545 48.2 
Q 467.854545 48.2 467.854545 50.2 
L 467.854545 78.678125 
Q 467.854545 80.678125 469.854545 80.678125 
z
" style="fill:#ffffff;opacity:0.8;stroke:#cccccc;stroke-linejoin:miter;"/>
    </g>
    <g id="line2d_27">
     <path d="M 471.854545 56.298438 
L 491.854545 56.298438 
" style="fill:none;stroke:#1f77b4;stroke-linecap:square;stroke-width:1.5;"/>
    </g>
    <g id="line2d_28"/>
    <g id="text_16">
     <!-- $\alpha$ -->
     <g transform="translate(499.854545 59.798438)scale(0.1 -0.1)">
      <use transform="translate(0 0.84375)" xlink:href="#DejaVuSans-Oblique-3b1"/>
     </g>
    </g>
    <g id="line2d_29">
     <path d="M 471.854545 71.078125 
L 491.854545 71.078125 
" style="fill:none;stroke:#ff7f0e;stroke-linecap:square;stroke-width:1.5;"/>
    </g>
    <g id="line2d_30"/>
    <g id="text_17">
     <!-- $\beta$ -->
     <g transform="translate(499.854545 74.578125)scale(0.1 -0.1)">
      <use transform="translate(0 0.390625)" xlink:href="#DejaVuSans-Oblique-3b2"/>
     </g>
    </g>
   </g>
  </g>
  <g id="axes_2">
   <g id="patch_8">
    <path d="M 591.545455 315 
L 972 315 
L 972 43.2 
L 591.545455 43.2 
z
" style="fill:#ffffff;"/>
   </g>
   <g id="Quiver_1">
    <path clip-path="url(#pfae1d9feb9)" d="M 953.279907 179.1 
L 953.279907 172.339788 
L 950.426498 173.766492 
L 954.706612 159.499447 
L 958.986725 173.766492 
L 956.133316 172.339788 
L 956.133316 179.1 
L 953.279907 179.1 
"/>
    <path clip-path="url(#pfae1d9feb9)" d="M 944.822626 141.239238 
L 942.326466 134.621658 
L 940.160198 136.963604 
L 939.12964 122.104065 
L 948.169577 133.942456 
L 944.996259 133.614609 
L 947.492419 140.232189 
L 944.822626 141.239238 
"/>
    <path clip-path="url(#pfae1d9feb9)" d="M 920.265459 107.084845 
L 915.189292 101.074148 
L 913.929818 104.005215 
L 907.994508 90.343587 
L 920.469837 98.482023 
L 917.369299 99.233084 
L 922.445466 105.243781 
L 920.265459 107.084845 
"/>
    <path clip-path="url(#pfae1d9feb9)" d="M 881.998113 80.014653 
L 874.523591 75.358332 
L 874.225796 78.53461 
L 864.379393 67.358014 
L 878.752039 71.268896 
L 876.032339 72.936427 
L 883.506861 77.592748 
L 881.998113 80.014653 
"/>
    <path clip-path="url(#pfae1d9feb9)" d="M 833.786326 62.734395 
L 824.59715 60.204111 
L 825.215154 63.333887 
L 812.596302 55.419815 
L 827.487676 55.080819 
L 825.354657 57.453088 
L 834.543834 59.983373 
L 833.786326 62.734395 
"/>
    <path clip-path="url(#pfae1d9feb9)" d="M 780.406589 56.981217 
L 770.614566 57.048156 
L 772.060743 59.891745 
L 757.764772 55.70926 
L 772.002226 51.331718 
L 770.59506 54.194813 
L 780.387083 54.127874 
L 780.406589 56.981217 
"/>
    <path clip-path="url(#pfae1d9feb9)" d="M 727.161541 63.334601 
L 718.034344 65.985925 
L 720.200387 68.32808 
L 705.305724 68.197733 
L 717.812468 60.107658 
L 717.238371 63.245785 
L 726.365569 60.594461 
L 727.161541 63.334601 
"/>
    <path clip-path="url(#pfae1d9feb9)" d="M 679.340116 81.154636 
L 671.973619 85.898257 
L 674.717988 87.524871 
L 660.405523 91.650561 
L 670.083439 80.327757 
L 670.42877 83.499219 
L 677.795267 78.755598 
L 679.340116 81.154636 
"/>
    <path clip-path="url(#pfae1d9feb9)" d="M 641.679055 108.650231 
L 636.73126 114.707328 
L 639.843676 115.407539 
L 627.503228 123.749079 
L 633.21413 109.992134 
L 634.521411 112.902193 
L 639.469206 106.845096 
L 641.679055 108.650231 
"/>
    <path clip-path="url(#pfae1d9feb9)" d="M 617.8827 143.074297 
L 615.513841 149.707363 
L 618.680864 149.323441 
L 609.851724 161.319868 
L 610.619303 146.444426 
L 612.826654 148.747691 
L 615.195513 142.114625 
L 617.8827 143.074297 
"/>
    <path clip-path="url(#pfae1d9feb9)" d="M 610.26531 181.024374 
L 610.388548 187.784277 
L 613.215478 186.305798 
L 609.196129 200.64849 
L 604.656672 186.461831 
L 607.535613 187.836288 
L 607.412375 181.076385 
L 610.26531 181.024374 
"/>
    <path clip-path="url(#pfae1d9feb9)" d="M 619.560436 218.786487 
L 622.184198 225.387444 
L 624.308832 223.007663 
L 625.601258 237.84672 
L 616.353972 226.169577 
L 619.532578 226.441416 
L 616.908816 219.840459 
L 619.560436 218.786487 
"/>
    <path clip-path="url(#pfae1d9feb9)" d="M 644.8724 252.66269 
L 650.076539 258.625053 
L 651.288086 255.673853 
L 657.445217 269.236954 
L 644.838933 261.302877 
L 647.926822 260.501395 
L 642.722683 254.539032 
L 644.8724 252.66269 
"/>
    <path clip-path="url(#pfae1d9feb9)" d="M 683.73654 279.30065 
L 691.317357 283.86767 
L 691.567745 280.687303 
L 701.579753 291.715796 
L 687.150374 288.019718 
L 689.8449 286.311808 
L 682.264083 281.744789 
L 683.73654 279.30065 
"/>
    <path clip-path="url(#pfae1d9feb9)" d="M 732.326645 296.036749 
L 741.574959 298.444777 
L 740.913273 295.323944 
L 753.641503 303.060875 
L 738.756321 303.607968 
L 740.855975 301.206118 
L 731.607661 298.79809 
L 732.326645 296.036749 
"/>
    <path clip-path="url(#pfae1d9feb9)" d="M 785.827701 301.18826 
L 795.616484 300.987476 
L 794.131564 298.163925 
L 808.483382 302.15056 
L 794.307111 306.722352 
L 795.675 303.840285 
L 785.886217 304.041069 
L 785.827701 301.18826 
"/>
    <path clip-path="url(#pfae1d9feb9)" d="M 838.924724 294.236284 
L 847.987144 291.465191 
L 845.788423 289.153686 
L 860.683447 289.074848 
L 848.291548 297.339763 
L 848.821519 294.193883 
L 839.759099 296.964976 
L 838.924724 294.236284 
"/>
    <path clip-path="url(#pfae1d9feb9)" d="M 886.343844 275.880991 
L 893.600654 271.05209 
L 890.832134 269.466932 
L 905.080936 265.126471 
L 895.574391 276.593536 
L 895.181406 273.427625 
L 887.924596 278.256525 
L 886.343844 275.880991 
"/>
    <path clip-path="url(#pfae1d9feb9)" d="M 923.389283 247.966923 
L 928.208363 241.865333 
L 925.084855 241.216389 
L 937.286491 232.673085 
L 931.80254 246.522065 
L 930.447591 243.633892 
L 925.628511 249.735482 
L 923.389283 247.966923 
"/>
    <path clip-path="url(#pfae1d9feb9)" d="M 946.419001 213.281765 
L 948.660865 206.634307 
L 945.501151 207.074345 
L 954.116109 194.923195 
L 953.612511 209.809912 
L 951.364652 207.546163 
L 949.122788 214.193621 
L 946.419001 213.281765 
"/>
   </g>
   <g id="Quiver_2">
    <path clip-path="url(#pfae1d9feb9)" d="M 953.279907 179.1 
L 953.279907 170.803977 
L 950.426498 172.230682 
L 954.706612 157.963636 
L 958.986725 172.230682 
L 956.133316 170.803977 
L 956.133316 179.1 
L 953.279907 179.1 
" style="fill:#ff0000;"/>
    <path clip-path="url(#pfae1d9feb9)" d="M 944.822626 141.239238 
L 941.894723 133.477062 
L 939.728455 135.819008 
L 938.697897 120.959469 
L 947.737834 132.79786 
L 944.564516 132.470013 
L 947.492419 140.232189 
L 944.822626 141.239238 
" style="fill:#ff0000;"/>
    <path clip-path="url(#pfae1d9feb9)" d="M 920.265459 107.084845 
L 914.912737 100.746678 
L 913.653262 103.677745 
L 907.717953 90.016118 
L 920.193281 98.154554 
L 917.092743 98.905614 
L 922.445466 105.243781 
L 920.265459 107.084845 
" style="fill:#ff0000;"/>
    <path clip-path="url(#pfae1d9feb9)" d="M 881.998113 80.014653 
L 874.956648 75.628109 
L 874.658853 78.804388 
L 864.81245 67.627791 
L 879.185096 71.538673 
L 876.465396 73.206204 
L 883.506861 77.592748 
L 881.998113 80.014653 
" style="fill:#ff0000;"/>
    <path clip-path="url(#pfae1d9feb9)" d="M 833.786326 62.734395 
L 825.787982 60.532012 
L 826.405986 63.661789 
L 813.787134 55.747717 
L 828.678509 55.408721 
L 826.54549 57.780989 
L 834.543834 59.983373 
L 833.786326 62.734395 
" style="fill:#ff0000;"/>
    <path clip-path="url(#pfae1d9feb9)" d="M 780.406589 56.981217 
L 772.11076 57.037928 
L 773.556937 59.881517 
L 759.260966 55.699032 
L 773.49842 51.32149 
L 772.091255 54.184585 
L 780.387083 54.127874 
L 780.406589 56.981217 
" style="fill:#ff0000;"/>
    <path clip-path="url(#pfae1d9feb9)" d="M 727.161541 63.334601 
L 719.194836 65.648818 
L 721.360879 67.990973 
L 706.466217 67.860626 
L 718.972961 59.770551 
L 718.398863 62.908678 
L 726.365569 60.594461 
L 727.161541 63.334601 
" style="fill:#ff0000;"/>
    <path clip-path="url(#pfae1d9feb9)" d="M 679.340116 81.154636 
L 672.365135 85.646143 
L 675.109504 87.272756 
L 660.797039 91.398446 
L 670.474955 80.075642 
L 670.820286 83.247104 
L 677.795267 78.755598 
L 679.340116 81.154636 
" style="fill:#ff0000;"/>
    <path clip-path="url(#pfae1d9feb9)" d="M 641.679055 108.650231 
L 636.430792 115.075162 
L 639.543208 115.775372 
L 627.20276 124.116913 
L 632.913662 110.359967 
L 634.220943 113.270027 
L 639.469206 106.845096 
L 641.679055 108.650231 
" style="fill:#ff0000;"/>
    <path clip-path="url(#pfae1d9feb9)" d="M 617.8827 143.074297 
L 615.092543 150.887044 
L 618.259566 150.503123 
L 609.430426 162.499549 
L 610.198005 147.624107 
L 612.405356 149.927372 
L 615.195513 142.114625 
L 617.8827 143.074297 
" style="fill:#ff0000;"/>
    <path clip-path="url(#pfae1d9feb9)" d="M 610.26531 181.024374 
L 610.416527 189.319018 
L 613.243457 187.84054 
L 609.224109 202.183231 
L 604.684652 187.996572 
L 607.563592 189.371029 
L 607.412375 181.076385 
L 610.26531 181.024374 
" style="fill:#ff0000;"/>
    <path clip-path="url(#pfae1d9feb9)" d="M 619.560436 218.786487 
L 622.62476 226.495827 
L 624.749394 224.116046 
L 626.04182 238.955102 
L 616.794534 227.277959 
L 619.97314 227.549798 
L 616.908816 219.840459 
L 619.560436 218.786487 
" style="fill:#ff0000;"/>
    <path clip-path="url(#pfae1d9feb9)" d="M 644.8724 252.66269 
L 650.32769 258.912795 
L 651.539237 255.961595 
L 657.696367 269.524696 
L 645.090083 261.590619 
L 648.177972 260.789137 
L 642.722683 254.539032 
L 644.8724 252.66269 
" style="fill:#ff0000;"/>
    <path clip-path="url(#pfae1d9feb9)" d="M 683.73654 279.30065 
L 690.842647 283.581683 
L 691.093035 280.401316 
L 701.105042 291.429809 
L 686.675663 287.733732 
L 689.37019 286.025822 
L 682.264083 281.744789 
L 683.73654 279.30065 
" style="fill:#ff0000;"/>
    <path clip-path="url(#pfae1d9feb9)" d="M 732.326645 296.036749 
L 740.354989 298.127128 
L 739.693302 295.006294 
L 752.421533 302.743226 
L 737.536351 303.290318 
L 739.636005 300.888469 
L 731.607661 298.79809 
L 732.326645 296.036749 
" style="fill:#ff0000;"/>
    <path clip-path="url(#pfae1d9feb9)" d="M 785.827701 301.18826 
L 794.121979 301.018131 
L 792.637059 298.19458 
L 806.988877 302.181215 
L 792.812606 306.753007 
L 794.180495 303.87094 
L 785.886217 304.041069 
L 785.827701 301.18826 
" style="fill:#ff0000;"/>
    <path clip-path="url(#pfae1d9feb9)" d="M 838.924724 294.236284 
L 846.858144 291.810415 
L 844.659422 289.49891 
L 859.554446 289.420072 
L 847.162548 297.684987 
L 847.692519 294.539107 
L 839.759099 296.964976 
L 838.924724 294.236284 
" style="fill:#ff0000;"/>
    <path clip-path="url(#pfae1d9feb9)" d="M 886.343844 275.880991 
L 893.250491 271.285099 
L 890.481971 269.699941 
L 904.730773 265.35948 
L 895.224228 276.826545 
L 894.831243 273.660634 
L 887.924596 278.256525 
L 886.343844 275.880991 
" style="fill:#ff0000;"/>
    <path clip-path="url(#pfae1d9feb9)" d="M 923.389283 247.966923 
L 928.531203 241.456574 
L 925.407696 240.80763 
L 937.609332 232.264326 
L 932.125381 246.113306 
L 930.770432 243.225133 
L 925.628511 249.735482 
L 923.389283 247.966923 
" style="fill:#ff0000;"/>
    <path clip-path="url(#pfae1d9feb9)" d="M 946.419001 213.281765 
L 949.070137 205.420756 
L 945.910422 205.860794 
L 954.525381 193.709644 
L 954.021783 208.596361 
L 951.773924 206.332612 
L 949.122788 214.193621 
L 946.419001 213.281765 
" style="fill:#ff0000;"/>
   </g>
   <g id="matplotlib.axis_3">
    <g id="xtick_6">
     <g id="line2d_31">
      <path clip-path="url(#pfae1d9feb9)" d="M 608.817292 315 
L 608.817292 43.2 
" style="fill:none;stroke:#b0b0b0;stroke-linecap:square;stroke-width:0.8;"/>
     </g>
     <g id="line2d_32">
      <g>
       <use style="stroke:#000000;stroke-width:0.8;" x="608.817292" xlink:href="#m08255457ee" y="315"/>
      </g>
     </g>
     <g id="text_18">
      <!-- −1.50 -->
      <defs>
       <path d="M 10.6875 12.40625 
L 21 12.40625 
L 21 0 
L 10.6875 0 
z
" id="DejaVuSans-2e"/>
       <path d="M 10.796875 72.90625 
L 49.515625 72.90625 
L 49.515625 64.59375 
L 19.828125 64.59375 
L 19.828125 46.734375 
Q 21.96875 47.46875 24.109375 47.828125 
Q 26.265625 48.1875 28.421875 48.1875 
Q 40.625 48.1875 47.75 41.5 
Q 54.890625 34.8125 54.890625 23.390625 
Q 54.890625 11.625 47.5625 5.09375 
Q 40.234375 -1.421875 26.90625 -1.421875 
Q 22.3125 -1.421875 17.546875 -0.640625 
Q 12.796875 0.140625 7.71875 1.703125 
L 7.71875 11.625 
Q 12.109375 9.234375 16.796875 8.0625 
Q 21.484375 6.890625 26.703125 6.890625 
Q 35.15625 6.890625 40.078125 11.328125 
Q 45.015625 15.765625 45.015625 23.390625 
Q 45.015625 31 40.078125 35.4375 
Q 35.15625 39.890625 26.703125 39.890625 
Q 22.75 39.890625 18.8125 39.015625 
Q 14.890625 38.140625 10.796875 36.28125 
z
" id="DejaVuSans-35"/>
      </defs>
      <g transform="translate(593.494636 329.598437)scale(0.1 -0.1)">
       <use xlink:href="#DejaVuSans-2212"/>
       <use x="83.789062" xlink:href="#DejaVuSans-31"/>
       <use x="147.412109" xlink:href="#DejaVuSans-2e"/>
       <use x="179.199219" xlink:href="#DejaVuSans-35"/>
       <use x="242.822266" xlink:href="#DejaVuSans-30"/>
      </g>
     </g>
    </g>
    <g id="xtick_7">
     <g id="line2d_33">
      <path clip-path="url(#pfae1d9feb9)" d="M 652.053457 315 
L 652.053457 43.2 
" style="fill:none;stroke:#b0b0b0;stroke-linecap:square;stroke-width:0.8;"/>
     </g>
     <g id="line2d_34">
      <g>
       <use style="stroke:#000000;stroke-width:0.8;" x="652.053457" xlink:href="#m08255457ee" y="315"/>
      </g>
     </g>
     <g id="text_19">
      <!-- −1.25 -->
      <g transform="translate(636.730801 329.598437)scale(0.1 -0.1)">
       <use xlink:href="#DejaVuSans-2212"/>
       <use x="83.789062" xlink:href="#DejaVuSans-31"/>
       <use x="147.412109" xlink:href="#DejaVuSans-2e"/>
       <use x="179.199219" xlink:href="#DejaVuSans-32"/>
       <use x="242.822266" xlink:href="#DejaVuSans-35"/>
      </g>
     </g>
    </g>
    <g id="xtick_8">
     <g id="line2d_35">
      <path clip-path="url(#pfae1d9feb9)" d="M 695.289622 315 
L 695.289622 43.2 
" style="fill:none;stroke:#b0b0b0;stroke-linecap:square;stroke-width:0.8;"/>
     </g>
     <g id="line2d_36">
      <g>
       <use style="stroke:#000000;stroke-width:0.8;" x="695.289622" xlink:href="#m08255457ee" y="315"/>
      </g>
     </g>
     <g id="text_20">
      <!-- −1.00 -->
      <g transform="translate(679.966966 329.598437)scale(0.1 -0.1)">
       <use xlink:href="#DejaVuSans-2212"/>
       <use x="83.789062" xlink:href="#DejaVuSans-31"/>
       <use x="147.412109" xlink:href="#DejaVuSans-2e"/>
       <use x="179.199219" xlink:href="#DejaVuSans-30"/>
       <use x="242.822266" xlink:href="#DejaVuSans-30"/>
      </g>
     </g>
    </g>
    <g id="xtick_9">
     <g id="line2d_37">
      <path clip-path="url(#pfae1d9feb9)" d="M 738.525787 315 
L 738.525787 43.2 
" style="fill:none;stroke:#b0b0b0;stroke-linecap:square;stroke-width:0.8;"/>
     </g>
     <g id="line2d_38">
      <g>
       <use style="stroke:#000000;stroke-width:0.8;" x="738.525787" xlink:href="#m08255457ee" y="315"/>
      </g>
     </g>
     <g id="text_21">
      <!-- −0.75 -->
      <g transform="translate(723.203131 329.598437)scale(0.1 -0.1)">
       <use xlink:href="#DejaVuSans-2212"/>
       <use x="83.789062" xlink:href="#DejaVuSans-30"/>
       <use x="147.412109" xlink:href="#DejaVuSans-2e"/>
       <use x="179.199219" xlink:href="#DejaVuSans-37"/>
       <use x="242.822266" xlink:href="#DejaVuSans-35"/>
      </g>
     </g>
    </g>
    <g id="xtick_10">
     <g id="line2d_39">
      <path clip-path="url(#pfae1d9feb9)" d="M 781.761952 315 
L 781.761952 43.2 
" style="fill:none;stroke:#b0b0b0;stroke-linecap:square;stroke-width:0.8;"/>
     </g>
     <g id="line2d_40">
      <g>
       <use style="stroke:#000000;stroke-width:0.8;" x="781.761952" xlink:href="#m08255457ee" y="315"/>
      </g>
     </g>
     <g id="text_22">
      <!-- −0.50 -->
      <g transform="translate(766.439296 329.598437)scale(0.1 -0.1)">
       <use xlink:href="#DejaVuSans-2212"/>
       <use x="83.789062" xlink:href="#DejaVuSans-30"/>
       <use x="147.412109" xlink:href="#DejaVuSans-2e"/>
       <use x="179.199219" xlink:href="#DejaVuSans-35"/>
       <use x="242.822266" xlink:href="#DejaVuSans-30"/>
      </g>
     </g>
    </g>
    <g id="xtick_11">
     <g id="line2d_41">
      <path clip-path="url(#pfae1d9feb9)" d="M 824.998117 315 
L 824.998117 43.2 
" style="fill:none;stroke:#b0b0b0;stroke-linecap:square;stroke-width:0.8;"/>
     </g>
     <g id="line2d_42">
      <g>
       <use style="stroke:#000000;stroke-width:0.8;" x="824.998117" xlink:href="#m08255457ee" y="315"/>
      </g>
     </g>
     <g id="text_23">
      <!-- −0.25 -->
      <g transform="translate(809.675461 329.598437)scale(0.1 -0.1)">
       <use xlink:href="#DejaVuSans-2212"/>
       <use x="83.789062" xlink:href="#DejaVuSans-30"/>
       <use x="147.412109" xlink:href="#DejaVuSans-2e"/>
       <use x="179.199219" xlink:href="#DejaVuSans-32"/>
       <use x="242.822266" xlink:href="#DejaVuSans-35"/>
      </g>
     </g>
    </g>
    <g id="xtick_12">
     <g id="line2d_43">
      <path clip-path="url(#pfae1d9feb9)" d="M 868.234282 315 
L 868.234282 43.2 
" style="fill:none;stroke:#b0b0b0;stroke-linecap:square;stroke-width:0.8;"/>
     </g>
     <g id="line2d_44">
      <g>
       <use style="stroke:#000000;stroke-width:0.8;" x="868.234282" xlink:href="#m08255457ee" y="315"/>
      </g>
     </g>
     <g id="text_24">
      <!-- 0.00 -->
      <g transform="translate(857.101469 329.598437)scale(0.1 -0.1)">
       <use xlink:href="#DejaVuSans-30"/>
       <use x="63.623047" xlink:href="#DejaVuSans-2e"/>
       <use x="95.410156" xlink:href="#DejaVuSans-30"/>
       <use x="159.033203" xlink:href="#DejaVuSans-30"/>
      </g>
     </g>
    </g>
    <g id="xtick_13">
     <g id="line2d_45">
      <path clip-path="url(#pfae1d9feb9)" d="M 911.470447 315 
L 911.470447 43.2 
" style="fill:none;stroke:#b0b0b0;stroke-linecap:square;stroke-width:0.8;"/>
     </g>
     <g id="line2d_46">
      <g>
       <use style="stroke:#000000;stroke-width:0.8;" x="911.470447" xlink:href="#m08255457ee" y="315"/>
      </g>
     </g>
     <g id="text_25">
      <!-- 0.25 -->
      <g transform="translate(900.337634 329.598437)scale(0.1 -0.1)">
       <use xlink:href="#DejaVuSans-30"/>
       <use x="63.623047" xlink:href="#DejaVuSans-2e"/>
       <use x="95.410156" xlink:href="#DejaVuSans-32"/>
       <use x="159.033203" xlink:href="#DejaVuSans-35"/>
      </g>
     </g>
    </g>
    <g id="xtick_14">
     <g id="line2d_47">
      <path clip-path="url(#pfae1d9feb9)" d="M 954.706612 315 
L 954.706612 43.2 
" style="fill:none;stroke:#b0b0b0;stroke-linecap:square;stroke-width:0.8;"/>
     </g>
     <g id="line2d_48">
      <g>
       <use style="stroke:#000000;stroke-width:0.8;" x="954.706612" xlink:href="#m08255457ee" y="315"/>
      </g>
     </g>
     <g id="text_26">
      <!-- 0.50 -->
      <g transform="translate(943.573799 329.598437)scale(0.1 -0.1)">
       <use xlink:href="#DejaVuSans-30"/>
       <use x="63.623047" xlink:href="#DejaVuSans-2e"/>
       <use x="95.410156" xlink:href="#DejaVuSans-35"/>
       <use x="159.033203" xlink:href="#DejaVuSans-30"/>
      </g>
     </g>
    </g>
    <g id="text_27">
     <!-- x -->
     <g transform="translate(778.813352 343.276563)scale(0.1 -0.1)">
      <use xlink:href="#DejaVuSans-78"/>
     </g>
    </g>
   </g>
   <g id="matplotlib.axis_4">
    <g id="ytick_8">
     <g id="line2d_49">
      <path clip-path="url(#pfae1d9feb9)" d="M 591.545455 286.096835 
L 972 286.096835 
" style="fill:none;stroke:#b0b0b0;stroke-linecap:square;stroke-width:0.8;"/>
     </g>
     <g id="line2d_50">
      <g>
       <use style="stroke:#000000;stroke-width:0.8;" x="591.545455" xlink:href="#mf3d0790846" y="286.096835"/>
      </g>
     </g>
     <g id="text_28">
      <!-- −0.75 -->
      <g transform="translate(553.900142 289.896054)scale(0.1 -0.1)">
       <use xlink:href="#DejaVuSans-2212"/>
       <use x="83.789062" xlink:href="#DejaVuSans-30"/>
       <use x="147.412109" xlink:href="#DejaVuSans-2e"/>
       <use x="179.199219" xlink:href="#DejaVuSans-37"/>
       <use x="242.822266" xlink:href="#DejaVuSans-35"/>
      </g>
     </g>
    </g>
    <g id="ytick_9">
     <g id="line2d_51">
      <path clip-path="url(#pfae1d9feb9)" d="M 591.545455 250.431224 
L 972 250.431224 
" style="fill:none;stroke:#b0b0b0;stroke-linecap:square;stroke-width:0.8;"/>
     </g>
     <g id="line2d_52">
      <g>
       <use style="stroke:#000000;stroke-width:0.8;" x="591.545455" xlink:href="#mf3d0790846" y="250.431224"/>
      </g>
     </g>
     <g id="text_29">
      <!-- −0.50 -->
      <g transform="translate(553.900142 254.230442)scale(0.1 -0.1)">
       <use xlink:href="#DejaVuSans-2212"/>
       <use x="83.789062" xlink:href="#DejaVuSans-30"/>
       <use x="147.412109" xlink:href="#DejaVuSans-2e"/>
       <use x="179.199219" xlink:href="#DejaVuSans-35"/>
       <use x="242.822266" xlink:href="#DejaVuSans-30"/>
      </g>
     </g>
    </g>
    <g id="ytick_10">
     <g id="line2d_53">
      <path clip-path="url(#pfae1d9feb9)" d="M 591.545455 214.765612 
L 972 214.765612 
" style="fill:none;stroke:#b0b0b0;stroke-linecap:square;stroke-width:0.8;"/>
     </g>
     <g id="line2d_54">
      <g>
       <use style="stroke:#000000;stroke-width:0.8;" x="591.545455" xlink:href="#mf3d0790846" y="214.765612"/>
      </g>
     </g>
     <g id="text_30">
      <!-- −0.25 -->
      <g transform="translate(553.900142 218.564831)scale(0.1 -0.1)">
       <use xlink:href="#DejaVuSans-2212"/>
       <use x="83.789062" xlink:href="#DejaVuSans-30"/>
       <use x="147.412109" xlink:href="#DejaVuSans-2e"/>
       <use x="179.199219" xlink:href="#DejaVuSans-32"/>
       <use x="242.822266" xlink:href="#DejaVuSans-35"/>
      </g>
     </g>
    </g>
    <g id="ytick_11">
     <g id="line2d_55">
      <path clip-path="url(#pfae1d9feb9)" d="M 591.545455 179.1 
L 972 179.1 
" style="fill:none;stroke:#b0b0b0;stroke-linecap:square;stroke-width:0.8;"/>
     </g>
     <g id="line2d_56">
      <g>
       <use style="stroke:#000000;stroke-width:0.8;" x="591.545455" xlink:href="#mf3d0790846" y="179.1"/>
      </g>
     </g>
     <g id="text_31">
      <!-- 0.00 -->
      <g transform="translate(562.27983 182.899219)scale(0.1 -0.1)">
       <use xlink:href="#DejaVuSans-30"/>
       <use x="63.623047" xlink:href="#DejaVuSans-2e"/>
       <use x="95.410156" xlink:href="#DejaVuSans-30"/>
       <use x="159.033203" xlink:href="#DejaVuSans-30"/>
      </g>
     </g>
    </g>
    <g id="ytick_12">
     <g id="line2d_57">
      <path clip-path="url(#pfae1d9feb9)" d="M 591.545455 143.434388 
L 972 143.434388 
" style="fill:none;stroke:#b0b0b0;stroke-linecap:square;stroke-width:0.8;"/>
     </g>
     <g id="line2d_58">
      <g>
       <use style="stroke:#000000;stroke-width:0.8;" x="591.545455" xlink:href="#mf3d0790846" y="143.434388"/>
      </g>
     </g>
     <g id="text_32">
      <!-- 0.25 -->
      <g transform="translate(562.27983 147.233607)scale(0.1 -0.1)">
       <use xlink:href="#DejaVuSans-30"/>
       <use x="63.623047" xlink:href="#DejaVuSans-2e"/>
       <use x="95.410156" xlink:href="#DejaVuSans-32"/>
       <use x="159.033203" xlink:href="#DejaVuSans-35"/>
      </g>
     </g>
    </g>
    <g id="ytick_13">
     <g id="line2d_59">
      <path clip-path="url(#pfae1d9feb9)" d="M 591.545455 107.768776 
L 972 107.768776 
" style="fill:none;stroke:#b0b0b0;stroke-linecap:square;stroke-width:0.8;"/>
     </g>
     <g id="line2d_60">
      <g>
       <use style="stroke:#000000;stroke-width:0.8;" x="591.545455" xlink:href="#mf3d0790846" y="107.768776"/>
      </g>
     </g>
     <g id="text_33">
      <!-- 0.50 -->
      <g transform="translate(562.27983 111.567995)scale(0.1 -0.1)">
       <use xlink:href="#DejaVuSans-30"/>
       <use x="63.623047" xlink:href="#DejaVuSans-2e"/>
       <use x="95.410156" xlink:href="#DejaVuSans-35"/>
       <use x="159.033203" xlink:href="#DejaVuSans-30"/>
      </g>
     </g>
    </g>
    <g id="ytick_14">
     <g id="line2d_61">
      <path clip-path="url(#pfae1d9feb9)" d="M 591.545455 72.103165 
L 972 72.103165 
" style="fill:none;stroke:#b0b0b0;stroke-linecap:square;stroke-width:0.8;"/>
     </g>
     <g id="line2d_62">
      <g>
       <use style="stroke:#000000;stroke-width:0.8;" x="591.545455" xlink:href="#mf3d0790846" y="72.103165"/>
      </g>
     </g>
     <g id="text_34">
      <!-- 0.75 -->
      <g transform="translate(562.27983 75.902383)scale(0.1 -0.1)">
       <use xlink:href="#DejaVuSans-30"/>
       <use x="63.623047" xlink:href="#DejaVuSans-2e"/>
       <use x="95.410156" xlink:href="#DejaVuSans-37"/>
       <use x="159.033203" xlink:href="#DejaVuSans-35"/>
      </g>
     </g>
    </g>
    <g id="text_35">
     <!-- y -->
     <defs>
      <path d="M 32.171875 -5.078125 
Q 28.375 -14.84375 24.75 -17.8125 
Q 21.140625 -20.796875 15.09375 -20.796875 
L 7.90625 -20.796875 
L 7.90625 -13.28125 
L 13.1875 -13.28125 
Q 16.890625 -13.28125 18.9375 -11.515625 
Q 21 -9.765625 23.484375 -3.21875 
L 25.09375 0.875 
L 2.984375 54.6875 
L 12.5 54.6875 
L 29.59375 11.921875 
L 46.6875 54.6875 
L 56.203125 54.6875 
z
" id="DejaVuSans-79"/>
     </defs>
     <g transform="translate(547.820455 182.059375)rotate(-90)scale(0.1 -0.1)">
      <use xlink:href="#DejaVuSans-79"/>
     </g>
    </g>
   </g>
   <g id="line2d_63">
    <path clip-path="url(#pfae1d9feb9)" d="M 954.706612 179.1 
L 954.620414 175.199728 
L 954.361907 171.303343 
L 953.93135 167.414731 
L 953.329169 163.537766 
L 952.555967 159.676314 
L 951.612514 155.834225 
L 950.49975 152.015327 
L 949.218784 148.223428 
L 947.770894 144.462307 
L 946.157523 140.735713 
L 944.380278 137.047363 
L 942.440932 133.400931 
L 940.341418 129.800053 
L 938.083828 126.248318 
L 935.670413 122.749267 
L 933.103579 119.306387 
L 930.385884 115.923111 
L 927.520038 112.602811 
L 924.508897 109.348797 
L 921.355463 106.164313 
L 918.062878 103.052532 
L 914.634426 100.016557 
L 911.073524 97.059415 
L 907.383721 94.184052 
L 903.568696 91.393335 
L 899.632251 88.690046 
L 895.578311 86.07688 
L 891.410915 83.556441 
L 887.13422 81.131242 
L 882.752487 78.803701 
L 878.270084 76.576137 
L 873.69148 74.450771 
L 869.021239 72.429721 
L 864.264016 70.515003 
L 859.424552 68.708525 
L 854.507674 67.012087 
L 849.51828 65.427381 
L 844.461346 63.955987 
L 839.341911 62.59937 
L 834.16508 61.358884 
L 828.936012 60.235765 
L 823.659919 59.231132 
L 818.342062 58.345987 
L 812.987742 57.581212 
L 807.602294 56.93757 
L 802.191089 56.415702 
L 796.759519 56.016129 
L 791.312999 55.739248 
L 785.856959 55.585336 
L 780.396836 55.554545 
L 774.938075 55.646908 
L 769.486115 55.862332 
L 764.046393 56.200601 
L 758.624329 56.661379 
L 753.22533 57.244207 
L 747.854777 57.948503 
L 742.518023 58.773566 
L 737.220388 59.718572 
L 731.967153 60.782581 
L 726.763555 61.964531 
L 721.61478 63.263244 
L 716.525962 64.677426 
L 711.502172 66.205667 
L 706.548418 67.846443 
L 701.669639 69.598119 
L 696.870698 71.458949 
L 692.156378 73.427078 
L 687.531379 75.500544 
L 683.000312 77.67728 
L 678.567691 79.955117 
L 674.237938 82.331783 
L 670.015366 84.80491 
L 665.904186 87.372033 
L 661.908495 90.030592 
L 658.032277 92.777937 
L 654.279395 95.61133 
L 650.653591 98.527946 
L 647.158479 101.524878 
L 643.797542 104.599139 
L 640.574131 107.747664 
L 637.491459 110.967314 
L 634.552599 114.254881 
L 631.76048 117.607086 
L 629.117887 121.02059 
L 626.627452 124.491987 
L 624.291658 128.01782 
L 622.112835 131.594572 
L 620.093153 135.218679 
L 618.234626 138.886527 
L 616.539107 142.594461 
L 615.008285 146.338785 
L 613.643687 150.115765 
L 612.446673 153.921638 
L 611.418437 157.75261 
L 610.560002 161.60486 
L 609.872225 165.474551 
L 609.355792 169.357823 
L 609.011216 173.250807 
L 608.838843 177.149621 
L 608.838843 181.050379 
L 609.011216 184.949193 
L 609.355792 188.842177 
L 609.872225 192.725449 
L 610.560002 196.59514 
L 611.418437 200.44739 
L 612.446673 204.278362 
L 613.643687 208.084235 
L 615.008285 211.861215 
L 616.539107 215.605539 
L 618.234626 219.313473 
L 620.093153 222.981321 
L 622.112835 226.605428 
L 624.291658 230.18218 
L 626.627452 233.708013 
L 629.117887 237.17941 
L 631.76048 240.592914 
L 634.552599 243.945119 
L 637.491459 247.232686 
L 640.574131 250.452336 
L 643.797542 253.600861 
L 647.158479 256.675122 
L 650.653591 259.672054 
L 654.279395 262.58867 
L 658.032277 265.422063 
L 661.908495 268.169408 
L 665.904186 270.827967 
L 670.015366 273.39509 
L 674.237938 275.868217 
L 678.567691 278.244883 
L 683.000312 280.52272 
L 687.531379 282.699456 
L 692.156378 284.772922 
L 696.870698 286.741051 
L 701.669639 288.601881 
L 706.548418 290.353557 
L 711.502172 291.994333 
L 716.525962 293.522574 
L 721.61478 294.936756 
L 726.763555 296.235469 
L 731.967153 297.417419 
L 737.220388 298.481428 
L 742.518023 299.426434 
L 747.854777 300.251497 
L 753.22533 300.955793 
L 758.624329 301.538621 
L 764.046393 301.999399 
L 769.486115 302.337668 
L 774.938075 302.553092 
L 780.396836 302.645455 
L 785.856959 302.614664 
L 791.312999 302.460752 
L 796.759519 302.183871 
L 802.191089 301.784298 
L 807.602294 301.26243 
L 812.987742 300.618788 
L 818.342062 299.854013 
L 823.659919 298.968868 
L 828.936012 297.964235 
L 834.16508 296.841116 
L 839.341911 295.60063 
L 844.461346 294.244013 
L 849.51828 292.772619 
L 854.507674 291.187913 
L 859.424552 289.491475 
L 864.264016 287.684997 
L 869.021239 285.770279 
L 873.69148 283.749229 
L 878.270084 281.623863 
L 882.752487 279.396299 
L 887.13422 277.068758 
L 891.410915 274.643559 
L 895.578311 272.12312 
L 899.632251 269.509954 
L 903.568696 266.806665 
L 907.383721 264.015948 
L 911.073524 261.140585 
L 914.634426 258.183443 
L 918.062878 255.147468 
L 921.355463 252.035687 
L 924.508897 248.851203 
L 927.520038 245.597189 
L 930.385884 242.276889 
L 933.103579 238.893613 
L 935.670413 235.450733 
L 938.083828 231.951682 
L 940.341418 228.399947 
L 942.440932 224.799069 
L 944.380278 221.152637 
L 946.157523 217.464287 
L 947.770894 213.737693 
L 949.218784 209.976572 
L 950.49975 206.184673 
L 951.612514 202.365775 
L 952.555967 198.523686 
L 953.329169 194.662234 
L 953.93135 190.785269 
L 954.361907 186.896657 
L 954.620414 183.000272 
L 954.706612 179.1 
L 954.706612 179.1 
" style="fill:none;stroke:#1f77b4;stroke-linecap:square;stroke-width:1.5;"/>
   </g>
   <g id="line2d_64">
    <defs>
     <path d="M 0 3 
C 0.795609 3 1.55874 2.683901 2.12132 2.12132 
C 2.683901 1.55874 3 0.795609 3 0 
C 3 -0.795609 2.683901 -1.55874 2.12132 -2.12132 
C 1.55874 -2.683901 0.795609 -3 0 -3 
C -0.795609 -3 -1.55874 -2.683901 -2.12132 -2.12132 
C -2.683901 -1.55874 -3 -0.795609 -3 0 
C -3 0.795609 -2.683901 1.55874 -2.12132 2.12132 
C -1.55874 2.683901 -0.795609 3 0 3 
z
" id="me92d507add" style="stroke:#0000ff;"/>
    </defs>
    <g clip-path="url(#pfae1d9feb9)">
     <use style="fill:#0000ff;stroke:#0000ff;" x="868.234282" xlink:href="#me92d507add" y="179.1"/>
    </g>
   </g>
   <g id="patch_9">
    <path d="M 591.545455 315 
L 591.545455 43.2 
" style="fill:none;stroke:#000000;stroke-linecap:square;stroke-linejoin:miter;stroke-width:0.8;"/>
   </g>
   <g id="patch_10">
    <path d="M 972 315 
L 972 43.2 
" style="fill:none;stroke:#000000;stroke-linecap:square;stroke-linejoin:miter;stroke-width:0.8;"/>
   </g>
   <g id="patch_11">
    <path d="M 591.545455 315 
L 972 315 
" style="fill:none;stroke:#000000;stroke-linecap:square;stroke-linejoin:miter;stroke-width:0.8;"/>
   </g>
   <g id="patch_12">
    <path d="M 591.545455 43.2 
L 972 43.2 
" style="fill:none;stroke:#000000;stroke-linecap:square;stroke-linejoin:miter;stroke-width:0.8;"/>
   </g>
  </g>
 </g>
 <defs>
  <clipPath id="pf5081edaf5">
   <rect height="271.8" width="380.454545" x="135" y="43.2"/>
  </clipPath>
  <clipPath id="pfae1d9feb9">
   <rect height="271.8" width="380.454545" x="591.545455" y="43.2"/>
  </clipPath>
 </defs>
</svg>
