<?xml version="1.0" encoding="utf-8" standalone="no"?>
<!DOCTYPE svg PUBLIC "-//W3C//DTD SVG 1.1//EN"
  "http://www.w3.org/Graphics/SVG/1.1/DTD/svg11.dtd">
<!-- Created with matplotlib (http://matplotlib.org/) -->
<svg height="360pt" version="1.1" viewBox="0 0 1080 360" width="1080pt" xmlns="http://www.w3.org/2000/svg" xmlns:xlink="http://www.w3.org/1999/xlink">
 <defs>
  <style type="text/css">
*{stroke-linecap:butt;stroke-linejoin:round;}
  </style>
 </defs>
 <g id="figure_1">
  <g id="patch_1">
   <path d="M 0 360 
L 1080 360 
L 1080 0 
L 0 0 
z
" style="fill:#ffffff;"/>
  </g>
  <g id="axes_1">
   <g id="patch_2">
    <path d="M 135 315 
L 515.454545 315 
L 515.454545 43.2 
L 135 43.2 
z
" style="fill:#ffffff;"/>
   </g>
   <g id="matplotlib.axis_1">
    <g id="xtick_1">
     <g id="line2d_1">
      <path clip-path="url(#p24bce341b9)" d="M 152.293388 315 
L 152.293388 43.2 
" style="fill:none;stroke:#b0b0b0;stroke-linecap:square;stroke-width:0.8;"/>
     </g>
     <g id="line2d_2">
      <defs>
       <path d="M 0 0 
L 0 3.5 
" id="mf8661f9d1f" style="stroke:#000000;stroke-width:0.8;"/>
      </defs>
      <g>
       <use style="stroke:#000000;stroke-width:0.8;" x="152.293388" xlink:href="#mf8661f9d1f" y="315"/>
      </g>
     </g>
     <g id="text_1">
      <!-- 0 -->
      <defs>
       <path d="M 31.78125 66.40625 
Q 24.171875 66.40625 20.328125 58.90625 
Q 16.5 51.421875 16.5 36.375 
Q 16.5 21.390625 20.328125 13.890625 
Q 24.171875 6.390625 31.78125 6.390625 
Q 39.453125 6.390625 43.28125 13.890625 
Q 47.125 21.390625 47.125 36.375 
Q 47.125 51.421875 43.28125 58.90625 
Q 39.453125 66.40625 31.78125 66.40625 
z
M 31.78125 74.21875 
Q 44.046875 74.21875 50.515625 64.515625 
Q 56.984375 54.828125 56.984375 36.375 
Q 56.984375 17.96875 50.515625 8.265625 
Q 44.046875 -1.421875 31.78125 -1.421875 
Q 19.53125 -1.421875 13.0625 8.265625 
Q 6.59375 17.96875 6.59375 36.375 
Q 6.59375 54.828125 13.0625 64.515625 
Q 19.53125 74.21875 31.78125 74.21875 
z
" id="DejaVuSans-30"/>
      </defs>
      <g transform="translate(149.112138 329.598437)scale(0.1 -0.1)">
       <use xlink:href="#DejaVuSans-30"/>
      </g>
     </g>
    </g>
    <g id="xtick_2">
     <g id="line2d_3">
      <path clip-path="url(#p24bce341b9)" d="M 238.760331 315 
L 238.760331 43.2 
" style="fill:none;stroke:#b0b0b0;stroke-linecap:square;stroke-width:0.8;"/>
     </g>
     <g id="line2d_4">
      <g>
       <use style="stroke:#000000;stroke-width:0.8;" x="238.760331" xlink:href="#mf8661f9d1f" y="315"/>
      </g>
     </g>
     <g id="text_2">
      <!-- 90 -->
      <defs>
       <path d="M 10.984375 1.515625 
L 10.984375 10.5 
Q 14.703125 8.734375 18.5 7.8125 
Q 22.3125 6.890625 25.984375 6.890625 
Q 35.75 6.890625 40.890625 13.453125 
Q 46.046875 20.015625 46.78125 33.40625 
Q 43.953125 29.203125 39.59375 26.953125 
Q 35.25 24.703125 29.984375 24.703125 
Q 19.046875 24.703125 12.671875 31.3125 
Q 6.296875 37.9375 6.296875 49.421875 
Q 6.296875 60.640625 12.9375 67.421875 
Q 19.578125 74.21875 30.609375 74.21875 
Q 43.265625 74.21875 49.921875 64.515625 
Q 56.59375 54.828125 56.59375 36.375 
Q 56.59375 19.140625 48.40625 8.859375 
Q 40.234375 -1.421875 26.421875 -1.421875 
Q 22.703125 -1.421875 18.890625 -0.6875 
Q 15.09375 0.046875 10.984375 1.515625 
z
M 30.609375 32.421875 
Q 37.25 32.421875 41.125 36.953125 
Q 45.015625 41.5 45.015625 49.421875 
Q 45.015625 57.28125 41.125 61.84375 
Q 37.25 66.40625 30.609375 66.40625 
Q 23.96875 66.40625 20.09375 61.84375 
Q 16.21875 57.28125 16.21875 49.421875 
Q 16.21875 41.5 20.09375 36.953125 
Q 23.96875 32.421875 30.609375 32.421875 
z
" id="DejaVuSans-39"/>
      </defs>
      <g transform="translate(232.397831 329.598437)scale(0.1 -0.1)">
       <use xlink:href="#DejaVuSans-39"/>
       <use x="63.623047" xlink:href="#DejaVuSans-30"/>
      </g>
     </g>
    </g>
    <g id="xtick_3">
     <g id="line2d_5">
      <path clip-path="url(#p24bce341b9)" d="M 325.227273 315 
L 325.227273 43.2 
" style="fill:none;stroke:#b0b0b0;stroke-linecap:square;stroke-width:0.8;"/>
     </g>
     <g id="line2d_6">
      <g>
       <use style="stroke:#000000;stroke-width:0.8;" x="325.227273" xlink:href="#mf8661f9d1f" y="315"/>
      </g>
     </g>
     <g id="text_3">
      <!-- 180 -->
      <defs>
       <path d="M 12.40625 8.296875 
L 28.515625 8.296875 
L 28.515625 63.921875 
L 10.984375 60.40625 
L 10.984375 69.390625 
L 28.421875 72.90625 
L 38.28125 72.90625 
L 38.28125 8.296875 
L 54.390625 8.296875 
L 54.390625 0 
L 12.40625 0 
z
" id="DejaVuSans-31"/>
       <path d="M 31.78125 34.625 
Q 24.75 34.625 20.71875 30.859375 
Q 16.703125 27.09375 16.703125 20.515625 
Q 16.703125 13.921875 20.71875 10.15625 
Q 24.75 6.390625 31.78125 6.390625 
Q 38.8125 6.390625 42.859375 10.171875 
Q 46.921875 13.96875 46.921875 20.515625 
Q 46.921875 27.09375 42.890625 30.859375 
Q 38.875 34.625 31.78125 34.625 
z
M 21.921875 38.8125 
Q 15.578125 40.375 12.03125 44.71875 
Q 8.5 49.078125 8.5 55.328125 
Q 8.5 64.0625 14.71875 69.140625 
Q 20.953125 74.21875 31.78125 74.21875 
Q 42.671875 74.21875 48.875 69.140625 
Q 55.078125 64.0625 55.078125 55.328125 
Q 55.078125 49.078125 51.53125 44.71875 
Q 48 40.375 41.703125 38.8125 
Q 48.828125 37.15625 52.796875 32.3125 
Q 56.78125 27.484375 56.78125 20.515625 
Q 56.78125 9.90625 50.3125 4.234375 
Q 43.84375 -1.421875 31.78125 -1.421875 
Q 19.734375 -1.421875 13.25 4.234375 
Q 6.78125 9.90625 6.78125 20.515625 
Q 6.78125 27.484375 10.78125 32.3125 
Q 14.796875 37.15625 21.921875 38.8125 
z
M 18.3125 54.390625 
Q 18.3125 48.734375 21.84375 45.5625 
Q 25.390625 42.390625 31.78125 42.390625 
Q 38.140625 42.390625 41.71875 45.5625 
Q 45.3125 48.734375 45.3125 54.390625 
Q 45.3125 60.0625 41.71875 63.234375 
Q 38.140625 66.40625 31.78125 66.40625 
Q 25.390625 66.40625 21.84375 63.234375 
Q 18.3125 60.0625 18.3125 54.390625 
z
" id="DejaVuSans-38"/>
      </defs>
      <g transform="translate(315.683523 329.598437)scale(0.1 -0.1)">
       <use xlink:href="#DejaVuSans-31"/>
       <use x="63.623047" xlink:href="#DejaVuSans-38"/>
       <use x="127.246094" xlink:href="#DejaVuSans-30"/>
      </g>
     </g>
    </g>
    <g id="xtick_4">
     <g id="line2d_7">
      <path clip-path="url(#p24bce341b9)" d="M 411.694215 315 
L 411.694215 43.2 
" style="fill:none;stroke:#b0b0b0;stroke-linecap:square;stroke-width:0.8;"/>
     </g>
     <g id="line2d_8">
      <g>
       <use style="stroke:#000000;stroke-width:0.8;" x="411.694215" xlink:href="#mf8661f9d1f" y="315"/>
      </g>
     </g>
     <g id="text_4">
      <!-- 270 -->
      <defs>
       <path d="M 19.1875 8.296875 
L 53.609375 8.296875 
L 53.609375 0 
L 7.328125 0 
L 7.328125 8.296875 
Q 12.9375 14.109375 22.625 23.890625 
Q 32.328125 33.6875 34.8125 36.53125 
Q 39.546875 41.84375 41.421875 45.53125 
Q 43.3125 49.21875 43.3125 52.78125 
Q 43.3125 58.59375 39.234375 62.25 
Q 35.15625 65.921875 28.609375 65.921875 
Q 23.96875 65.921875 18.8125 64.3125 
Q 13.671875 62.703125 7.8125 59.421875 
L 7.8125 69.390625 
Q 13.765625 71.78125 18.9375 73 
Q 24.125 74.21875 28.421875 74.21875 
Q 39.75 74.21875 46.484375 68.546875 
Q 53.21875 62.890625 53.21875 53.421875 
Q 53.21875 48.921875 51.53125 44.890625 
Q 49.859375 40.875 45.40625 35.40625 
Q 44.1875 33.984375 37.640625 27.21875 
Q 31.109375 20.453125 19.1875 8.296875 
z
" id="DejaVuSans-32"/>
       <path d="M 8.203125 72.90625 
L 55.078125 72.90625 
L 55.078125 68.703125 
L 28.609375 0 
L 18.3125 0 
L 43.21875 64.59375 
L 8.203125 64.59375 
z
" id="DejaVuSans-37"/>
      </defs>
      <g transform="translate(402.150465 329.598437)scale(0.1 -0.1)">
       <use xlink:href="#DejaVuSans-32"/>
       <use x="63.623047" xlink:href="#DejaVuSans-37"/>
       <use x="127.246094" xlink:href="#DejaVuSans-30"/>
      </g>
     </g>
    </g>
    <g id="xtick_5">
     <g id="line2d_9">
      <path clip-path="url(#p24bce341b9)" d="M 498.161157 315 
L 498.161157 43.2 
" style="fill:none;stroke:#b0b0b0;stroke-linecap:square;stroke-width:0.8;"/>
     </g>
     <g id="line2d_10">
      <g>
       <use style="stroke:#000000;stroke-width:0.8;" x="498.161157" xlink:href="#mf8661f9d1f" y="315"/>
      </g>
     </g>
     <g id="text_5">
      <!-- 360 -->
      <defs>
       <path d="M 40.578125 39.3125 
Q 47.65625 37.796875 51.625 33 
Q 55.609375 28.21875 55.609375 21.1875 
Q 55.609375 10.40625 48.1875 4.484375 
Q 40.765625 -1.421875 27.09375 -1.421875 
Q 22.515625 -1.421875 17.65625 -0.515625 
Q 12.796875 0.390625 7.625 2.203125 
L 7.625 11.71875 
Q 11.71875 9.328125 16.59375 8.109375 
Q 21.484375 6.890625 26.8125 6.890625 
Q 36.078125 6.890625 40.9375 10.546875 
Q 45.796875 14.203125 45.796875 21.1875 
Q 45.796875 27.640625 41.28125 31.265625 
Q 36.765625 34.90625 28.71875 34.90625 
L 20.21875 34.90625 
L 20.21875 43.015625 
L 29.109375 43.015625 
Q 36.375 43.015625 40.234375 45.921875 
Q 44.09375 48.828125 44.09375 54.296875 
Q 44.09375 59.90625 40.109375 62.90625 
Q 36.140625 65.921875 28.71875 65.921875 
Q 24.65625 65.921875 20.015625 65.03125 
Q 15.375 64.15625 9.8125 62.3125 
L 9.8125 71.09375 
Q 15.4375 72.65625 20.34375 73.4375 
Q 25.25 74.21875 29.59375 74.21875 
Q 40.828125 74.21875 47.359375 69.109375 
Q 53.90625 64.015625 53.90625 55.328125 
Q 53.90625 49.265625 50.4375 45.09375 
Q 46.96875 40.921875 40.578125 39.3125 
z
" id="DejaVuSans-33"/>
       <path d="M 33.015625 40.375 
Q 26.375 40.375 22.484375 35.828125 
Q 18.609375 31.296875 18.609375 23.390625 
Q 18.609375 15.53125 22.484375 10.953125 
Q 26.375 6.390625 33.015625 6.390625 
Q 39.65625 6.390625 43.53125 10.953125 
Q 47.40625 15.53125 47.40625 23.390625 
Q 47.40625 31.296875 43.53125 35.828125 
Q 39.65625 40.375 33.015625 40.375 
z
M 52.59375 71.296875 
L 52.59375 62.3125 
Q 48.875 64.0625 45.09375 64.984375 
Q 41.3125 65.921875 37.59375 65.921875 
Q 27.828125 65.921875 22.671875 59.328125 
Q 17.53125 52.734375 16.796875 39.40625 
Q 19.671875 43.65625 24.015625 45.921875 
Q 28.375 48.1875 33.59375 48.1875 
Q 44.578125 48.1875 50.953125 41.515625 
Q 57.328125 34.859375 57.328125 23.390625 
Q 57.328125 12.15625 50.6875 5.359375 
Q 44.046875 -1.421875 33.015625 -1.421875 
Q 20.359375 -1.421875 13.671875 8.265625 
Q 6.984375 17.96875 6.984375 36.375 
Q 6.984375 53.65625 15.1875 63.9375 
Q 23.390625 74.21875 37.203125 74.21875 
Q 40.921875 74.21875 44.703125 73.484375 
Q 48.484375 72.75 52.59375 71.296875 
z
" id="DejaVuSans-36"/>
      </defs>
      <g transform="translate(488.617407 329.598437)scale(0.1 -0.1)">
       <use xlink:href="#DejaVuSans-33"/>
       <use x="63.623047" xlink:href="#DejaVuSans-36"/>
       <use x="127.246094" xlink:href="#DejaVuSans-30"/>
      </g>
     </g>
    </g>
    <g id="text_6">
     <!-- $\theta$ [°] -->
     <defs>
      <path d="M 45.515625 34.671875 
L 14.453125 34.671875 
Q 12.359375 20.0625 14.5 13.875 
Q 17.1875 6.25 24.46875 6.25 
Q 31.78125 6.25 37.359375 13.921875 
Q 42.234375 20.65625 45.515625 34.671875 
z
M 47.015625 42.96875 
Q 48.34375 56.84375 46.625 61.71875 
Q 43.953125 69.4375 36.765625 69.4375 
Q 29.296875 69.4375 23.828125 61.8125 
Q 19.53125 55.671875 16.15625 42.96875 
z
M 38.1875 76.765625 
Q 49.90625 76.765625 54.59375 66.40625 
Q 59.28125 56.109375 55.71875 37.84375 
Q 52.203125 19.625 43.453125 9.28125 
Q 34.765625 -1.125 23.046875 -1.125 
Q 11.28125 -1.125 6.640625 9.28125 
Q 2 19.625 5.515625 37.84375 
Q 9.078125 56.109375 17.71875 66.40625 
Q 26.421875 76.765625 38.1875 76.765625 
z
" id="DejaVuSans-Oblique-3b8"/>
      <path id="DejaVuSans-20"/>
      <path d="M 8.59375 75.984375 
L 29.296875 75.984375 
L 29.296875 69 
L 17.578125 69 
L 17.578125 -6.203125 
L 29.296875 -6.203125 
L 29.296875 -13.1875 
L 8.59375 -13.1875 
z
" id="DejaVuSans-5b"/>
      <path d="M 25 67.921875 
Q 21.09375 67.921875 18.40625 65.203125 
Q 15.71875 62.5 15.71875 58.59375 
Q 15.71875 54.734375 18.40625 52.078125 
Q 21.09375 49.421875 25 49.421875 
Q 28.90625 49.421875 31.59375 52.078125 
Q 34.28125 54.734375 34.28125 58.59375 
Q 34.28125 62.453125 31.5625 65.1875 
Q 28.859375 67.921875 25 67.921875 
z
M 25 74.21875 
Q 28.125 74.21875 31 73.015625 
Q 33.890625 71.828125 35.984375 69.578125 
Q 38.234375 67.390625 39.359375 64.59375 
Q 40.484375 61.8125 40.484375 58.59375 
Q 40.484375 52.15625 35.96875 47.6875 
Q 31.453125 43.21875 24.90625 43.21875 
Q 18.3125 43.21875 13.90625 47.609375 
Q 9.515625 52 9.515625 58.59375 
Q 9.515625 65.140625 14 69.671875 
Q 18.5 74.21875 25 74.21875 
z
" id="DejaVuSans-b0"/>
      <path d="M 30.421875 75.984375 
L 30.421875 -13.1875 
L 9.71875 -13.1875 
L 9.71875 -6.203125 
L 21.390625 -6.203125 
L 21.390625 69 
L 9.71875 69 
L 9.71875 75.984375 
z
" id="DejaVuSans-5d"/>
     </defs>
     <g transform="translate(314.177273 343.276563)scale(0.1 -0.1)">
      <use transform="translate(0 0.234375)" xlink:href="#DejaVuSans-Oblique-3b8"/>
      <use transform="translate(61.181641 0.234375)" xlink:href="#DejaVuSans-20"/>
      <use transform="translate(92.96875 0.234375)" xlink:href="#DejaVuSans-5b"/>
      <use transform="translate(131.982422 0.234375)" xlink:href="#DejaVuSans-b0"/>
      <use transform="translate(181.982422 0.234375)" xlink:href="#DejaVuSans-5d"/>
     </g>
    </g>
   </g>
   <g id="matplotlib.axis_2">
    <g id="ytick_1">
     <g id="line2d_11">
      <path clip-path="url(#p24bce341b9)" d="M 135 305.175904 
L 515.454545 305.175904 
" style="fill:none;stroke:#b0b0b0;stroke-linecap:square;stroke-width:0.8;"/>
     </g>
     <g id="line2d_12">
      <defs>
       <path d="M 0 0 
L -3.5 0 
" id="m6f655c4f5a" style="stroke:#000000;stroke-width:0.8;"/>
      </defs>
      <g>
       <use style="stroke:#000000;stroke-width:0.8;" x="135" xlink:href="#m6f655c4f5a" y="305.175904"/>
      </g>
     </g>
     <g id="text_7">
      <!-- 0 -->
      <g transform="translate(121.6375 308.975122)scale(0.1 -0.1)">
       <use xlink:href="#DejaVuSans-30"/>
      </g>
     </g>
    </g>
    <g id="ytick_2">
     <g id="line2d_13">
      <path clip-path="url(#p24bce341b9)" d="M 135 239.681928 
L 515.454545 239.681928 
" style="fill:none;stroke:#b0b0b0;stroke-linecap:square;stroke-width:0.8;"/>
     </g>
     <g id="line2d_14">
      <g>
       <use style="stroke:#000000;stroke-width:0.8;" x="135" xlink:href="#m6f655c4f5a" y="239.681928"/>
      </g>
     </g>
     <g id="text_8">
      <!-- 90 -->
      <g transform="translate(115.275 243.481146)scale(0.1 -0.1)">
       <use xlink:href="#DejaVuSans-39"/>
       <use x="63.623047" xlink:href="#DejaVuSans-30"/>
      </g>
     </g>
    </g>
    <g id="ytick_3">
     <g id="line2d_15">
      <path clip-path="url(#p24bce341b9)" d="M 135 174.187952 
L 515.454545 174.187952 
" style="fill:none;stroke:#b0b0b0;stroke-linecap:square;stroke-width:0.8;"/>
     </g>
     <g id="line2d_16">
      <g>
       <use style="stroke:#000000;stroke-width:0.8;" x="135" xlink:href="#m6f655c4f5a" y="174.187952"/>
      </g>
     </g>
     <g id="text_9">
      <!-- 180 -->
      <g transform="translate(108.9125 177.987171)scale(0.1 -0.1)">
       <use xlink:href="#DejaVuSans-31"/>
       <use x="63.623047" xlink:href="#DejaVuSans-38"/>
       <use x="127.246094" xlink:href="#DejaVuSans-30"/>
      </g>
     </g>
    </g>
    <g id="ytick_4">
     <g id="line2d_17">
      <path clip-path="url(#p24bce341b9)" d="M 135 108.693976 
L 515.454545 108.693976 
" style="fill:none;stroke:#b0b0b0;stroke-linecap:square;stroke-width:0.8;"/>
     </g>
     <g id="line2d_18">
      <g>
       <use style="stroke:#000000;stroke-width:0.8;" x="135" xlink:href="#m6f655c4f5a" y="108.693976"/>
      </g>
     </g>
     <g id="text_10">
      <!-- 270 -->
      <g transform="translate(108.9125 112.493195)scale(0.1 -0.1)">
       <use xlink:href="#DejaVuSans-32"/>
       <use x="63.623047" xlink:href="#DejaVuSans-37"/>
       <use x="127.246094" xlink:href="#DejaVuSans-30"/>
      </g>
     </g>
    </g>
    <g id="ytick_5">
     <g id="line2d_19">
      <path clip-path="url(#p24bce341b9)" d="M 135 43.2 
L 515.454545 43.2 
" style="fill:none;stroke:#b0b0b0;stroke-linecap:square;stroke-width:0.8;"/>
     </g>
     <g id="line2d_20">
      <g>
       <use style="stroke:#000000;stroke-width:0.8;" x="135" xlink:href="#m6f655c4f5a" y="43.2"/>
      </g>
     </g>
     <g id="text_11">
      <!-- 360 -->
      <g transform="translate(108.9125 46.999219)scale(0.1 -0.1)">
       <use xlink:href="#DejaVuSans-33"/>
       <use x="63.623047" xlink:href="#DejaVuSans-36"/>
       <use x="127.246094" xlink:href="#DejaVuSans-30"/>
      </g>
     </g>
    </g>
    <g id="text_12">
     <!-- $\alpha/\beta$ [°] -->
     <defs>
      <path d="M 40.921875 25.4375 
L 40.96875 36.71875 
Q 41.015625 48.25 32.328125 48.296875 
Q 25.828125 48.34375 21.78125 42.921875 
Q 16.703125 36.234375 14.984375 27.296875 
Q 12.890625 16.546875 15.53125 11.421875 
Q 18.265625 6.203125 24.171875 6.203125 
Q 30.71875 6.203125 36.234375 16.609375 
z
M 33.84375 55.90625 
Q 49.078125 56.15625 48.875 40.375 
Q 48.875 40.375 56.5 54.6875 
L 64.5 54.6875 
L 48.734375 25.046875 
L 48.578125 14.359375 
Q 48.578125 11.96875 49.90625 9.96875 
Q 51.421875 7.625 52.984375 7.625 
L 57.328125 7.625 
L 55.859375 0 
L 50.4375 0 
Q 45.84375 0 42.53125 4.109375 
Q 40.96875 6.15625 40.921875 10.453125 
Q 37.75 5.21875 32.28125 0.78125 
Q 29.6875 -1.265625 22.703125 -1.21875 
Q 11.28125 -1.125 7.125 6.203125 
Q 2.875 13.8125 5.515625 27.296875 
Q 8.34375 41.796875 15.765625 48.390625 
Q 24.125 55.765625 33.84375 55.90625 
z
" id="DejaVuSans-Oblique-3b1"/>
      <path d="M 25.390625 72.90625 
L 33.6875 72.90625 
L 8.296875 -9.28125 
L 0 -9.28125 
z
" id="DejaVuSans-2f"/>
      <path d="M 13.625 3.375 
L 8.9375 -20.796875 
L -0.09375 -20.796875 
L 14.5 54.34375 
Q 18.84375 76.609375 39.65625 76.609375 
Q 60.75 76.609375 57.171875 57.8125 
Q 54.734375 44.4375 45.21875 39.546875 
Q 58.015625 35.15625 55.515625 22.125 
Q 51.125 -1.078125 27.484375 -1.03125 
Q 17.140625 -0.984375 13.625 3.375 
z
M 15.921875 15.09375 
Q 19.671875 6.59375 29.296875 6.640625 
Q 43.359375 6.640625 46.34375 21.96875 
Q 49.03125 35.75 26.171875 34.671875 
L 27.78125 42.96875 
Q 45.453125 42.671875 48.53125 58.59375 
Q 50.640625 69.34375 39.203125 69.28125 
Q 26.421875 69.28125 23.484375 54.046875 
z
" id="DejaVuSans-Oblique-3b2"/>
     </defs>
     <g transform="translate(102.8125 195.3)rotate(-90)scale(0.1 -0.1)">
      <use transform="translate(0 0.390625)" xlink:href="#DejaVuSans-Oblique-3b1"/>
      <use transform="translate(65.917969 0.390625)" xlink:href="#DejaVuSans-2f"/>
      <use transform="translate(99.609375 0.390625)" xlink:href="#DejaVuSans-Oblique-3b2"/>
      <use transform="translate(163.427734 0.390625)" xlink:href="#DejaVuSans-20"/>
      <use transform="translate(195.214844 0.390625)" xlink:href="#DejaVuSans-5b"/>
      <use transform="translate(234.228516 0.390625)" xlink:href="#DejaVuSans-b0"/>
      <use transform="translate(284.228516 0.390625)" xlink:href="#DejaVuSans-5d"/>
     </g>
    </g>
   </g>
   <g id="line2d_21">
    <path clip-path="url(#p24bce341b9)" d="M 152.293388 305.175904 
L 498.161157 305.175904 
L 498.161157 305.175904 
" style="fill:none;stroke:#1f77b4;stroke-linecap:square;stroke-width:1.5;"/>
   </g>
   <g id="line2d_22">
    <path clip-path="url(#p24bce341b9)" d="M 152.293388 239.681928 
L 238.425338 239.681928 
L 240.420112 108.693976 
L 410.034433 108.693976 
L 412.029207 239.681928 
L 498.161157 239.681928 
L 498.161157 239.681928 
" style="fill:none;stroke:#ff7f0e;stroke-linecap:square;stroke-width:1.5;"/>
   </g>
   <g id="patch_3">
    <path d="M 135 315 
L 135 43.2 
" style="fill:none;stroke:#000000;stroke-linecap:square;stroke-linejoin:miter;stroke-width:0.8;"/>
   </g>
   <g id="patch_4">
    <path d="M 515.454545 315 
L 515.454545 43.2 
" style="fill:none;stroke:#000000;stroke-linecap:square;stroke-linejoin:miter;stroke-width:0.8;"/>
   </g>
   <g id="patch_5">
    <path d="M 135 315 
L 515.454545 315 
" style="fill:none;stroke:#000000;stroke-linecap:square;stroke-linejoin:miter;stroke-width:0.8;"/>
   </g>
   <g id="patch_6">
    <path d="M 135 43.2 
L 515.454545 43.2 
" style="fill:none;stroke:#000000;stroke-linecap:square;stroke-linejoin:miter;stroke-width:0.8;"/>
   </g>
   <g id="text_13">
    <!-- Inclination (i) -->
    <defs>
     <path d="M 9.8125 72.90625 
L 19.671875 72.90625 
L 19.671875 0 
L 9.8125 0 
z
" id="DejaVuSans-49"/>
     <path d="M 54.890625 33.015625 
L 54.890625 0 
L 45.90625 0 
L 45.90625 32.71875 
Q 45.90625 40.484375 42.875 44.328125 
Q 39.84375 48.1875 33.796875 48.1875 
Q 26.515625 48.1875 22.3125 43.546875 
Q 18.109375 38.921875 18.109375 30.90625 
L 18.109375 0 
L 9.078125 0 
L 9.078125 54.6875 
L 18.109375 54.6875 
L 18.109375 46.1875 
Q 21.34375 51.125 25.703125 53.5625 
Q 30.078125 56 35.796875 56 
Q 45.21875 56 50.046875 50.171875 
Q 54.890625 44.34375 54.890625 33.015625 
z
" id="DejaVuSans-6e"/>
     <path d="M 48.78125 52.59375 
L 48.78125 44.1875 
Q 44.96875 46.296875 41.140625 47.34375 
Q 37.3125 48.390625 33.40625 48.390625 
Q 24.65625 48.390625 19.8125 42.84375 
Q 14.984375 37.3125 14.984375 27.296875 
Q 14.984375 17.28125 19.8125 11.734375 
Q 24.65625 6.203125 33.40625 6.203125 
Q 37.3125 6.203125 41.140625 7.25 
Q 44.96875 8.296875 48.78125 10.40625 
L 48.78125 2.09375 
Q 45.015625 0.34375 40.984375 -0.53125 
Q 36.96875 -1.421875 32.421875 -1.421875 
Q 20.0625 -1.421875 12.78125 6.34375 
Q 5.515625 14.109375 5.515625 27.296875 
Q 5.515625 40.671875 12.859375 48.328125 
Q 20.21875 56 33.015625 56 
Q 37.15625 56 41.109375 55.140625 
Q 45.0625 54.296875 48.78125 52.59375 
z
" id="DejaVuSans-63"/>
     <path d="M 9.421875 75.984375 
L 18.40625 75.984375 
L 18.40625 0 
L 9.421875 0 
z
" id="DejaVuSans-6c"/>
     <path d="M 9.421875 54.6875 
L 18.40625 54.6875 
L 18.40625 0 
L 9.421875 0 
z
M 9.421875 75.984375 
L 18.40625 75.984375 
L 18.40625 64.59375 
L 9.421875 64.59375 
z
" id="DejaVuSans-69"/>
     <path d="M 34.28125 27.484375 
Q 23.390625 27.484375 19.1875 25 
Q 14.984375 22.515625 14.984375 16.5 
Q 14.984375 11.71875 18.140625 8.90625 
Q 21.296875 6.109375 26.703125 6.109375 
Q 34.1875 6.109375 38.703125 11.40625 
Q 43.21875 16.703125 43.21875 25.484375 
L 43.21875 27.484375 
z
M 52.203125 31.203125 
L 52.203125 0 
L 43.21875 0 
L 43.21875 8.296875 
Q 40.140625 3.328125 35.546875 0.953125 
Q 30.953125 -1.421875 24.3125 -1.421875 
Q 15.921875 -1.421875 10.953125 3.296875 
Q 6 8.015625 6 15.921875 
Q 6 25.140625 12.171875 29.828125 
Q 18.359375 34.515625 30.609375 34.515625 
L 43.21875 34.515625 
L 43.21875 35.40625 
Q 43.21875 41.609375 39.140625 45 
Q 35.0625 48.390625 27.6875 48.390625 
Q 23 48.390625 18.546875 47.265625 
Q 14.109375 46.140625 10.015625 43.890625 
L 10.015625 52.203125 
Q 14.9375 54.109375 19.578125 55.046875 
Q 24.21875 56 28.609375 56 
Q 40.484375 56 46.34375 49.84375 
Q 52.203125 43.703125 52.203125 31.203125 
z
" id="DejaVuSans-61"/>
     <path d="M 18.3125 70.21875 
L 18.3125 54.6875 
L 36.8125 54.6875 
L 36.8125 47.703125 
L 18.3125 47.703125 
L 18.3125 18.015625 
Q 18.3125 11.328125 20.140625 9.421875 
Q 21.96875 7.515625 27.59375 7.515625 
L 36.8125 7.515625 
L 36.8125 0 
L 27.59375 0 
Q 17.1875 0 13.234375 3.875 
Q 9.28125 7.765625 9.28125 18.015625 
L 9.28125 47.703125 
L 2.6875 47.703125 
L 2.6875 54.6875 
L 9.28125 54.6875 
L 9.28125 70.21875 
z
" id="DejaVuSans-74"/>
     <path d="M 30.609375 48.390625 
Q 23.390625 48.390625 19.1875 42.75 
Q 14.984375 37.109375 14.984375 27.296875 
Q 14.984375 17.484375 19.15625 11.84375 
Q 23.34375 6.203125 30.609375 6.203125 
Q 37.796875 6.203125 41.984375 11.859375 
Q 46.1875 17.53125 46.1875 27.296875 
Q 46.1875 37.015625 41.984375 42.703125 
Q 37.796875 48.390625 30.609375 48.390625 
z
M 30.609375 56 
Q 42.328125 56 49.015625 48.375 
Q 55.71875 40.765625 55.71875 27.296875 
Q 55.71875 13.875 49.015625 6.21875 
Q 42.328125 -1.421875 30.609375 -1.421875 
Q 18.84375 -1.421875 12.171875 6.21875 
Q 5.515625 13.875 5.515625 27.296875 
Q 5.515625 40.765625 12.171875 48.375 
Q 18.84375 56 30.609375 56 
z
" id="DejaVuSans-6f"/>
     <path d="M 31 75.875 
Q 24.46875 64.65625 21.28125 53.65625 
Q 18.109375 42.671875 18.109375 31.390625 
Q 18.109375 20.125 21.3125 9.0625 
Q 24.515625 -2 31 -13.1875 
L 23.1875 -13.1875 
Q 15.875 -1.703125 12.234375 9.375 
Q 8.59375 20.453125 8.59375 31.390625 
Q 8.59375 42.28125 12.203125 53.3125 
Q 15.828125 64.359375 23.1875 75.875 
z
" id="DejaVuSans-28"/>
     <path d="M 8.015625 75.875 
L 15.828125 75.875 
Q 23.140625 64.359375 26.78125 53.3125 
Q 30.421875 42.28125 30.421875 31.390625 
Q 30.421875 20.453125 26.78125 9.375 
Q 23.140625 -1.703125 15.828125 -13.1875 
L 8.015625 -13.1875 
Q 14.5 -2 17.703125 9.0625 
Q 20.90625 20.125 20.90625 31.390625 
Q 20.90625 42.671875 17.703125 53.65625 
Q 14.5 64.65625 8.015625 75.875 
z
" id="DejaVuSans-29"/>
    </defs>
    <g transform="translate(285.794148 37.2)scale(0.12 -0.12)">
     <use xlink:href="#DejaVuSans-49"/>
     <use x="29.492188" xlink:href="#DejaVuSans-6e"/>
     <use x="92.871094" xlink:href="#DejaVuSans-63"/>
     <use x="147.851562" xlink:href="#DejaVuSans-6c"/>
     <use x="175.634766" xlink:href="#DejaVuSans-69"/>
     <use x="203.417969" xlink:href="#DejaVuSans-6e"/>
     <use x="266.796875" xlink:href="#DejaVuSans-61"/>
     <use x="328.076172" xlink:href="#DejaVuSans-74"/>
     <use x="367.285156" xlink:href="#DejaVuSans-69"/>
     <use x="395.068359" xlink:href="#DejaVuSans-6f"/>
     <use x="456.25" xlink:href="#DejaVuSans-6e"/>
     <use x="519.628906" xlink:href="#DejaVuSans-20"/>
     <use x="551.416016" xlink:href="#DejaVuSans-28"/>
     <use x="590.429688" xlink:href="#DejaVuSans-69"/>
     <use x="618.212891" xlink:href="#DejaVuSans-29"/>
    </g>
   </g>
   <g id="legend_1">
    <g id="patch_7">
     <path d="M 469.854545 80.678125 
L 508.454545 80.678125 
Q 510.454545 80.678125 510.454545 78.678125 
L 510.454545 50.2 
Q 510.454545 48.2 508.454545 48.2 
L 469.854545 48.2 
Q 467.854545 48.2 467.854545 50.2 
L 467.854545 78.678125 
Q 467.854545 80.678125 469.854545 80.678125 
z
" style="fill:#ffffff;opacity:0.8;stroke:#cccccc;stroke-linejoin:miter;"/>
    </g>
    <g id="line2d_23">
     <path d="M 471.854545 56.298438 
L 491.854545 56.298438 
" style="fill:none;stroke:#1f77b4;stroke-linecap:square;stroke-width:1.5;"/>
    </g>
    <g id="line2d_24"/>
    <g id="text_14">
     <!-- $\alpha$ -->
     <g transform="translate(499.854545 59.798438)scale(0.1 -0.1)">
      <use transform="translate(0 0.84375)" xlink:href="#DejaVuSans-Oblique-3b1"/>
     </g>
    </g>
    <g id="line2d_25">
     <path d="M 471.854545 71.078125 
L 491.854545 71.078125 
" style="fill:none;stroke:#ff7f0e;stroke-linecap:square;stroke-width:1.5;"/>
    </g>
    <g id="line2d_26"/>
    <g id="text_15">
     <!-- $\beta$ -->
     <g transform="translate(499.854545 74.578125)scale(0.1 -0.1)">
      <use transform="translate(0 0.390625)" xlink:href="#DejaVuSans-Oblique-3b2"/>
     </g>
    </g>
   </g>
  </g>
  <g id="patch_8">
   <path d="M 591.545455 315 
L 972 315 
L 972 43.2 
L 591.545455 43.2 
z
" style="fill:#ffffff;"/>
  </g>
  <g id="pane3d_1">
   <g id="patch_9">
    <path d="M 641.980584 254.941779 
L 750.868665 188.302577 
L 749.055794 60.966001 
L 634.096488 120.839953 
" style="fill:#f2f2f2;opacity:0.5;stroke:#f2f2f2;stroke-linejoin:miter;"/>
   </g>
  </g>
  <g id="pane3d_2">
   <g id="patch_10">
    <path d="M 750.868665 188.302577 
L 927.25712 225.558191 
L 934.637001 94.381832 
L 749.055794 60.966001 
" style="fill:#e6e6e6;opacity:0.5;stroke:#e6e6e6;stroke-linejoin:miter;"/>
   </g>
  </g>
  <g id="pane3d_3">
   <g id="patch_11">
    <path d="M 641.980584 254.941779 
L 827.565072 298.332012 
L 927.25712 225.558191 
L 750.868665 188.302577 
" style="fill:#ececec;opacity:0.5;stroke:#ececec;stroke-linejoin:miter;"/>
   </g>
  </g>
  <g id="axis3d_1">
   <g id="line2d_27">
    <path d="M 641.980584 254.941779 
L 827.565072 298.332012 
" style="fill:none;stroke:#000000;stroke-linecap:square;stroke-width:0.8;"/>
   </g>
   <g id="text_16">
    <!-- x -->
    <defs>
     <path d="M 54.890625 54.6875 
L 35.109375 28.078125 
L 55.90625 0 
L 45.3125 0 
L 29.390625 21.484375 
L 13.484375 0 
L 2.875 0 
L 24.125 28.609375 
L 4.6875 54.6875 
L 15.28125 54.6875 
L 29.78125 35.203125 
L 44.28125 54.6875 
z
" id="DejaVuSans-78"/>
    </defs>
    <g transform="translate(713.4467 309.055325)scale(0.1 -0.1)">
     <use xlink:href="#DejaVuSans-78"/>
    </g>
   </g>
   <g id="Line3DCollection_1">
    <path d="M 645.529608 255.771552 
L 754.252943 189.017383 
L 752.60885 61.605765 
" style="fill:none;stroke:#b0b0b0;stroke-width:0.8;"/>
    <path d="M 666.95779 260.781528 
L 774.677193 193.331259 
L 774.057977 65.467904 
" style="fill:none;stroke:#b0b0b0;stroke-width:0.8;"/>
    <path d="M 688.61845 265.845858 
L 795.306939 197.688538 
L 795.73389 69.370879 
" style="fill:none;stroke:#b0b0b0;stroke-width:0.8;"/>
    <path d="M 710.51539 270.965431 
L 816.145297 202.08988 
L 817.640204 73.315339 
" style="fill:none;stroke:#b0b0b0;stroke-width:0.8;"/>
    <path d="M 732.652499 276.141156 
L 837.195449 206.535955 
L 839.780613 77.30195 
" style="fill:none;stroke:#b0b0b0;stroke-width:0.8;"/>
    <path d="M 755.03375 281.373962 
L 858.460639 211.027449 
L 862.158889 81.331392 
" style="fill:none;stroke:#b0b0b0;stroke-width:0.8;"/>
    <path d="M 777.663204 286.664799 
L 879.94418 215.565062 
L 884.778887 85.404359 
" style="fill:none;stroke:#b0b0b0;stroke-width:0.8;"/>
    <path d="M 800.545012 292.014637 
L 901.649452 220.149507 
L 907.644543 89.521559 
" style="fill:none;stroke:#b0b0b0;stroke-width:0.8;"/>
    <path d="M 823.68342 297.424469 
L 923.579905 224.781514 
L 930.759883 93.683716 
" style="fill:none;stroke:#b0b0b0;stroke-width:0.8;"/>
   </g>
   <g id="xtick_6">
    <g id="line2d_28">
     <path d="M 646.466185 255.19651 
L 643.652967 256.923775 
" style="fill:none;stroke:#000000;stroke-linecap:square;stroke-width:0.8;"/>
    </g>
    <g id="text_17">
     <!-- −1.50 -->
     <defs>
      <path d="M 10.59375 35.5 
L 73.1875 35.5 
L 73.1875 27.203125 
L 10.59375 27.203125 
z
" id="DejaVuSans-2212"/>
      <path d="M 10.6875 12.40625 
L 21 12.40625 
L 21 0 
L 10.6875 0 
z
" id="DejaVuSans-2e"/>
      <path d="M 10.796875 72.90625 
L 49.515625 72.90625 
L 49.515625 64.59375 
L 19.828125 64.59375 
L 19.828125 46.734375 
Q 21.96875 47.46875 24.109375 47.828125 
Q 26.265625 48.1875 28.421875 48.1875 
Q 40.625 48.1875 47.75 41.5 
Q 54.890625 34.8125 54.890625 23.390625 
Q 54.890625 11.625 47.5625 5.09375 
Q 40.234375 -1.421875 26.90625 -1.421875 
Q 22.3125 -1.421875 17.546875 -0.640625 
Q 12.796875 0.140625 7.71875 1.703125 
L 7.71875 11.625 
Q 12.109375 9.234375 16.796875 8.0625 
Q 21.484375 6.890625 26.703125 6.890625 
Q 35.15625 6.890625 40.078125 11.328125 
Q 45.015625 15.765625 45.015625 23.390625 
Q 45.015625 31 40.078125 35.4375 
Q 35.15625 39.890625 26.703125 39.890625 
Q 22.75 39.890625 18.8125 39.015625 
Q 14.890625 38.140625 10.796875 36.28125 
z
" id="DejaVuSans-35"/>
     </defs>
     <g transform="translate(622.757098 276.878739)scale(0.1 -0.1)">
      <use xlink:href="#DejaVuSans-2212"/>
      <use x="83.789062" xlink:href="#DejaVuSans-31"/>
      <use x="147.412109" xlink:href="#DejaVuSans-2e"/>
      <use x="179.199219" xlink:href="#DejaVuSans-35"/>
      <use x="242.822266" xlink:href="#DejaVuSans-30"/>
     </g>
    </g>
   </g>
   <g id="xtick_7">
    <g id="line2d_29">
     <path d="M 667.886076 260.200266 
L 665.097745 261.946226 
" style="fill:none;stroke:#000000;stroke-linecap:square;stroke-width:0.8;"/>
    </g>
    <g id="text_18">
     <!-- −1.25 -->
     <g transform="translate(644.182741 281.970547)scale(0.1 -0.1)">
      <use xlink:href="#DejaVuSans-2212"/>
      <use x="83.789062" xlink:href="#DejaVuSans-31"/>
      <use x="147.412109" xlink:href="#DejaVuSans-2e"/>
      <use x="179.199219" xlink:href="#DejaVuSans-32"/>
      <use x="242.822266" xlink:href="#DejaVuSans-35"/>
     </g>
    </g>
   </g>
   <g id="xtick_8">
    <g id="line2d_30">
     <path d="M 689.538208 265.258275 
L 686.775471 267.023234 
" style="fill:none;stroke:#000000;stroke-linecap:square;stroke-width:0.8;"/>
    </g>
    <g id="text_19">
     <!-- −1.00 -->
     <g transform="translate(665.841245 287.117695)scale(0.1 -0.1)">
      <use xlink:href="#DejaVuSans-2212"/>
      <use x="83.789062" xlink:href="#DejaVuSans-31"/>
      <use x="147.412109" xlink:href="#DejaVuSans-2e"/>
      <use x="179.199219" xlink:href="#DejaVuSans-30"/>
      <use x="242.822266" xlink:href="#DejaVuSans-30"/>
     </g>
    </g>
   </g>
   <g id="xtick_9">
    <g id="line2d_31">
     <path d="M 711.426381 270.371423 
L 708.689963 272.155693 
" style="fill:none;stroke:#000000;stroke-linecap:square;stroke-width:0.8;"/>
    </g>
    <g id="text_20">
     <!-- −0.75 -->
     <g transform="translate(687.736427 292.32109)scale(0.1 -0.1)">
      <use xlink:href="#DejaVuSans-2212"/>
      <use x="83.789062" xlink:href="#DejaVuSans-30"/>
      <use x="147.412109" xlink:href="#DejaVuSans-2e"/>
      <use x="179.199219" xlink:href="#DejaVuSans-37"/>
      <use x="242.822266" xlink:href="#DejaVuSans-35"/>
     </g>
    </g>
   </g>
   <g id="xtick_10">
    <g id="line2d_32">
     <path d="M 733.554473 275.540617 
L 730.845121 277.344517 
" style="fill:none;stroke:#000000;stroke-linecap:square;stroke-width:0.8;"/>
    </g>
    <g id="text_21">
     <!-- −0.50 -->
     <g transform="translate(709.872188 297.581658)scale(0.1 -0.1)">
      <use xlink:href="#DejaVuSans-2212"/>
      <use x="83.789062" xlink:href="#DejaVuSans-30"/>
      <use x="147.412109" xlink:href="#DejaVuSans-2e"/>
      <use x="179.199219" xlink:href="#DejaVuSans-35"/>
      <use x="242.822266" xlink:href="#DejaVuSans-30"/>
     </g>
    </g>
   </g>
   <g id="xtick_11">
    <g id="line2d_33">
     <path d="M 755.926453 280.766784 
L 753.244931 282.59064 
" style="fill:none;stroke:#000000;stroke-linecap:square;stroke-width:0.8;"/>
    </g>
    <g id="text_22">
     <!-- −0.25 -->
     <g transform="translate(732.252515 302.900347)scale(0.1 -0.1)">
      <use xlink:href="#DejaVuSans-2212"/>
      <use x="83.789062" xlink:href="#DejaVuSans-30"/>
      <use x="147.412109" xlink:href="#DejaVuSans-2e"/>
      <use x="179.199219" xlink:href="#DejaVuSans-32"/>
      <use x="242.822266" xlink:href="#DejaVuSans-35"/>
     </g>
    </g>
   </g>
   <g id="xtick_12">
    <g id="line2d_34">
     <path d="M 778.546374 286.050871 
L 775.893468 287.895016 
" style="fill:none;stroke:#000000;stroke-linecap:square;stroke-width:0.8;"/>
    </g>
    <g id="text_23">
     <!-- 0.00 -->
     <g transform="translate(759.071328 308.278126)scale(0.1 -0.1)">
      <use xlink:href="#DejaVuSans-30"/>
      <use x="63.623047" xlink:href="#DejaVuSans-2e"/>
      <use x="95.410156" xlink:href="#DejaVuSans-30"/>
      <use x="159.033203" xlink:href="#DejaVuSans-30"/>
     </g>
    </g>
   </g>
   <g id="xtick_13">
    <g id="line2d_35">
     <path d="M 801.41838 291.393846 
L 798.794898 293.25862 
" style="fill:none;stroke:#000000;stroke-linecap:square;stroke-width:0.8;"/>
    </g>
    <g id="text_24">
     <!-- 0.25 -->
     <g transform="translate(781.953105 313.715985)scale(0.1 -0.1)">
      <use xlink:href="#DejaVuSans-30"/>
      <use x="63.623047" xlink:href="#DejaVuSans-2e"/>
      <use x="95.410156" xlink:href="#DejaVuSans-32"/>
      <use x="159.033203" xlink:href="#DejaVuSans-35"/>
     </g>
    </g>
   </g>
   <g id="xtick_14">
    <g id="line2d_36">
     <path d="M 824.546711 296.7967 
L 821.953481 298.682451 
" style="fill:none;stroke:#000000;stroke-linecap:square;stroke-width:0.8;"/>
    </g>
    <g id="text_25">
     <!-- 0.50 -->
     <g transform="translate(805.091951 319.214937)scale(0.1 -0.1)">
      <use xlink:href="#DejaVuSans-30"/>
      <use x="63.623047" xlink:href="#DejaVuSans-2e"/>
      <use x="95.410156" xlink:href="#DejaVuSans-35"/>
      <use x="159.033203" xlink:href="#DejaVuSans-30"/>
     </g>
    </g>
   </g>
  </g>
  <g id="axis3d_2">
   <g id="line2d_37">
    <path d="M 927.25712 225.558191 
L 827.565072 298.332012 
" style="fill:none;stroke:#000000;stroke-linecap:square;stroke-width:0.8;"/>
   </g>
   <g id="text_26">
    <!-- y -->
    <defs>
     <path d="M 32.171875 -5.078125 
Q 28.375 -14.84375 24.75 -17.8125 
Q 21.140625 -20.796875 15.09375 -20.796875 
L 7.90625 -20.796875 
L 7.90625 -13.28125 
L 13.1875 -13.28125 
Q 16.890625 -13.28125 18.9375 -11.515625 
Q 21 -9.765625 23.484375 -3.21875 
L 25.09375 0.875 
L 2.984375 54.6875 
L 12.5 54.6875 
L 29.59375 11.921875 
L 46.6875 54.6875 
L 56.203125 54.6875 
z
" id="DejaVuSans-79"/>
    </defs>
    <g transform="translate(903.47995 288.226265)scale(0.1 -0.1)">
     <use xlink:href="#DejaVuSans-79"/>
    </g>
   </g>
   <g id="Line3DCollection_2">
    <path d="M 636.57923 119.546873 
L 644.323251 253.508073 
L 829.716941 296.761177 
" style="fill:none;stroke:#b0b0b0;stroke-width:0.8;"/>
    <path d="M 651.307428 111.876024 
L 658.228599 244.998039 
L 842.483372 287.441858 
" style="fill:none;stroke:#b0b0b0;stroke-width:0.8;"/>
    <path d="M 665.753192 104.352275 
L 671.880777 236.642944 
L 855.006723 278.299984 
" style="fill:none;stroke:#b0b0b0;stroke-width:0.8;"/>
    <path d="M 679.924569 96.971435 
L 685.286638 228.438595 
L 867.293871 269.330536 
" style="fill:none;stroke:#b0b0b0;stroke-width:0.8;"/>
    <path d="M 693.829301 89.729469 
L 698.452787 220.380948 
L 879.351436 260.52868 
" style="fill:none;stroke:#b0b0b0;stroke-width:0.8;"/>
    <path d="M 707.474846 82.622496 
L 711.385598 212.466104 
L 891.185793 251.889762 
" style="fill:none;stroke:#b0b0b0;stroke-width:0.8;"/>
    <path d="M 720.868382 75.646776 
L 724.091218 204.6903 
L 902.803083 243.409301 
" style="fill:none;stroke:#b0b0b0;stroke-width:0.8;"/>
    <path d="M 734.016828 68.798706 
L 736.575583 197.049904 
L 914.209225 235.082975 
" style="fill:none;stroke:#b0b0b0;stroke-width:0.8;"/>
    <path d="M 746.926849 62.074813 
L 748.844421 189.541409 
L 925.409921 226.906621 
" style="fill:none;stroke:#b0b0b0;stroke-width:0.8;"/>
   </g>
   <g id="xtick_15">
    <g id="line2d_38">
     <path d="M 828.165118 296.39913 
L 832.824068 297.486082 
" style="fill:none;stroke:#000000;stroke-linecap:square;stroke-width:0.8;"/>
    </g>
    <g id="text_27">
     <!-- −1.00 -->
     <g transform="translate(827.369607 316.265175)scale(0.1 -0.1)">
      <use xlink:href="#DejaVuSans-2212"/>
      <use x="83.789062" xlink:href="#DejaVuSans-31"/>
      <use x="147.412109" xlink:href="#DejaVuSans-2e"/>
      <use x="179.199219" xlink:href="#DejaVuSans-30"/>
      <use x="242.822266" xlink:href="#DejaVuSans-30"/>
     </g>
    </g>
   </g>
   <g id="xtick_16">
    <g id="line2d_39">
     <path d="M 840.941738 287.086736 
L 845.570066 288.15289 
" style="fill:none;stroke:#000000;stroke-linecap:square;stroke-width:0.8;"/>
    </g>
    <g id="text_28">
     <!-- −0.75 -->
     <g transform="translate(840.005202 306.83599)scale(0.1 -0.1)">
      <use xlink:href="#DejaVuSans-2212"/>
      <use x="83.789062" xlink:href="#DejaVuSans-30"/>
      <use x="147.412109" xlink:href="#DejaVuSans-2e"/>
      <use x="179.199219" xlink:href="#DejaVuSans-37"/>
      <use x="242.822266" xlink:href="#DejaVuSans-35"/>
     </g>
    </g>
   </g>
   <g id="xtick_17">
    <g id="line2d_40">
     <path d="M 853.475173 277.951591 
L 858.073194 278.997537 
" style="fill:none;stroke:#000000;stroke-linecap:square;stroke-width:0.8;"/>
    </g>
    <g id="text_29">
     <!-- −0.50 -->
     <g transform="translate(852.400324 297.586255)scale(0.1 -0.1)">
      <use xlink:href="#DejaVuSans-2212"/>
      <use x="83.789062" xlink:href="#DejaVuSans-30"/>
      <use x="147.412109" xlink:href="#DejaVuSans-2e"/>
      <use x="179.199219" xlink:href="#DejaVuSans-35"/>
      <use x="242.822266" xlink:href="#DejaVuSans-30"/>
     </g>
    </g>
   </g>
   <g id="xtick_18">
    <g id="line2d_41">
     <path d="M 865.772301 268.988681 
L 870.340329 270.01499 
" style="fill:none;stroke:#000000;stroke-linecap:square;stroke-width:0.8;"/>
    </g>
    <g id="text_30">
     <!-- −0.25 -->
     <g transform="translate(864.561772 288.510897)scale(0.1 -0.1)">
      <use xlink:href="#DejaVuSans-2212"/>
      <use x="83.789062" xlink:href="#DejaVuSans-30"/>
      <use x="147.412109" xlink:href="#DejaVuSans-2e"/>
      <use x="179.199219" xlink:href="#DejaVuSans-32"/>
      <use x="242.822266" xlink:href="#DejaVuSans-35"/>
     </g>
    </g>
   </g>
   <g id="xtick_19">
    <g id="line2d_42">
     <path d="M 877.839742 260.193182 
L 882.37809 261.2004 
" style="fill:none;stroke:#000000;stroke-linecap:square;stroke-width:0.8;"/>
    </g>
    <g id="text_31">
     <!-- 0.00 -->
     <g transform="translate(880.685936 279.605031)scale(0.1 -0.1)">
      <use xlink:href="#DejaVuSans-30"/>
      <use x="63.623047" xlink:href="#DejaVuSans-2e"/>
      <use x="95.410156" xlink:href="#DejaVuSans-30"/>
      <use x="159.033203" xlink:href="#DejaVuSans-30"/>
     </g>
    </g>
   </g>
   <g id="xtick_20">
    <g id="line2d_43">
     <path d="M 889.683871 251.560445 
L 894.192851 252.549101 
" style="fill:none;stroke:#000000;stroke-linecap:square;stroke-width:0.8;"/>
    </g>
    <g id="text_32">
     <!-- 0.25 -->
     <g transform="translate(892.399433 270.863951)scale(0.1 -0.1)">
      <use xlink:href="#DejaVuSans-30"/>
      <use x="63.623047" xlink:href="#DejaVuSans-2e"/>
      <use x="95.410156" xlink:href="#DejaVuSans-32"/>
      <use x="159.033203" xlink:href="#DejaVuSans-35"/>
     </g>
    </g>
   </g>
   <g id="xtick_21">
    <g id="line2d_44">
     <path d="M 901.310831 243.085995 
L 905.790751 244.056597 
" style="fill:none;stroke:#000000;stroke-linecap:square;stroke-width:0.8;"/>
    </g>
    <g id="text_33">
     <!-- 0.50 -->
     <g transform="translate(903.898179 262.283128)scale(0.1 -0.1)">
      <use xlink:href="#DejaVuSans-30"/>
      <use x="63.623047" xlink:href="#DejaVuSans-2e"/>
      <use x="95.410156" xlink:href="#DejaVuSans-35"/>
      <use x="159.033203" xlink:href="#DejaVuSans-30"/>
     </g>
    </g>
   </g>
   <g id="xtick_22">
    <g id="line2d_45">
     <path d="M 912.72654 234.765518 
L 917.177707 235.718555 
" style="fill:none;stroke:#000000;stroke-linecap:square;stroke-width:0.8;"/>
    </g>
    <g id="text_34">
     <!-- 0.75 -->
     <g transform="translate(915.188026 253.858193)scale(0.1 -0.1)">
      <use xlink:href="#DejaVuSans-30"/>
      <use x="63.623047" xlink:href="#DejaVuSans-2e"/>
      <use x="95.410156" xlink:href="#DejaVuSans-37"/>
      <use x="159.033203" xlink:href="#DejaVuSans-35"/>
     </g>
    </g>
   </g>
   <g id="xtick_23">
    <g id="line2d_46">
     <path d="M 923.936704 226.594855 
L 928.359422 227.530801 
" style="fill:none;stroke:#000000;stroke-linecap:square;stroke-width:0.8;"/>
    </g>
    <g id="text_35">
     <!-- 1.00 -->
     <g transform="translate(926.274616 245.584937)scale(0.1 -0.1)">
      <use xlink:href="#DejaVuSans-31"/>
      <use x="63.623047" xlink:href="#DejaVuSans-2e"/>
      <use x="95.410156" xlink:href="#DejaVuSans-30"/>
      <use x="159.033203" xlink:href="#DejaVuSans-30"/>
     </g>
    </g>
   </g>
  </g>
  <g id="axis3d_3">
   <g id="line2d_47">
    <path d="M 927.25712 225.558191 
L 934.637001 94.381832 
" style="fill:none;stroke:#000000;stroke-linecap:square;stroke-width:0.8;"/>
   </g>
   <g id="text_36">
    <!-- z -->
    <defs>
     <path d="M 5.515625 54.6875 
L 48.1875 54.6875 
L 48.1875 46.484375 
L 14.40625 7.171875 
L 48.1875 7.171875 
L 48.1875 0 
L 4.296875 0 
L 4.296875 8.203125 
L 38.09375 47.515625 
L 5.515625 47.515625 
z
" id="DejaVuSans-7a"/>
    </defs>
    <g transform="translate(969.712081 160.439151)scale(0.1 -0.1)">
     <use xlink:href="#DejaVuSans-7a"/>
    </g>
   </g>
   <g id="Line3DCollection_3">
    <path d="M 927.397484 223.063236 
L 750.834111 185.875474 
L 641.830882 252.395485 
" style="fill:none;stroke:#b0b0b0;stroke-width:0.8;"/>
    <path d="M 928.245601 207.98807 
L 750.625386 171.214565 
L 640.92614 237.006574 
" style="fill:none;stroke:#b0b0b0;stroke-width:0.8;"/>
    <path d="M 929.104021 192.729776 
L 750.414232 156.383039 
L 640.010042 221.424526 
" style="fill:none;stroke:#b0b0b0;stroke-width:0.8;"/>
    <path d="M 929.972933 177.284998 
L 750.200606 141.377902 
L 639.082375 205.645684 
" style="fill:none;stroke:#b0b0b0;stroke-width:0.8;"/>
    <path d="M 930.852529 161.650296 
L 749.984465 126.196087 
L 638.142917 189.666295 
" style="fill:none;stroke:#b0b0b0;stroke-width:0.8;"/>
    <path d="M 931.743009 145.822145 
L 749.765763 110.834455 
L 637.191442 173.482512 
" style="fill:none;stroke:#b0b0b0;stroke-width:0.8;"/>
    <path d="M 932.644575 129.796932 
L 749.544456 95.289791 
L 636.227719 157.090388 
" style="fill:none;stroke:#b0b0b0;stroke-width:0.8;"/>
    <path d="M 933.557436 113.570954 
L 749.320497 79.558807 
L 635.251509 140.485873 
" style="fill:none;stroke:#b0b0b0;stroke-width:0.8;"/>
    <path d="M 934.481806 97.140415 
L 749.093837 63.63813 
L 634.262567 123.664814 
" style="fill:none;stroke:#b0b0b0;stroke-width:0.8;"/>
   </g>
   <g id="xtick_24">
    <g id="line2d_48">
     <path d="M 925.924315 222.752958 
L 930.346887 223.684439 
" style="fill:none;stroke:#000000;stroke-linecap:square;stroke-width:0.8;"/>
    </g>
    <g id="text_37">
     <!-- −1.00 -->
     <g transform="translate(930.755673 228.742853)scale(0.1 -0.1)">
      <use xlink:href="#DejaVuSans-2212"/>
      <use x="83.789062" xlink:href="#DejaVuSans-31"/>
      <use x="147.412109" xlink:href="#DejaVuSans-2e"/>
      <use x="179.199219" xlink:href="#DejaVuSans-30"/>
      <use x="242.822266" xlink:href="#DejaVuSans-30"/>
     </g>
    </g>
   </g>
   <g id="xtick_25">
    <g id="line2d_49">
     <path d="M 926.763246 207.681171 
L 931.213414 208.602509 
" style="fill:none;stroke:#000000;stroke-linecap:square;stroke-width:0.8;"/>
    </g>
    <g id="text_38">
     <!-- −0.75 -->
     <g transform="translate(931.714499 213.68861)scale(0.1 -0.1)">
      <use xlink:href="#DejaVuSans-2212"/>
      <use x="83.789062" xlink:href="#DejaVuSans-30"/>
      <use x="147.412109" xlink:href="#DejaVuSans-2e"/>
      <use x="179.199219" xlink:href="#DejaVuSans-37"/>
      <use x="242.822266" xlink:href="#DejaVuSans-35"/>
     </g>
    </g>
   </g>
   <g id="xtick_26">
    <g id="line2d_50">
     <path d="M 927.612365 192.426363 
L 932.090475 193.337241 
" style="fill:none;stroke:#000000;stroke-linecap:square;stroke-width:0.8;"/>
    </g>
    <g id="text_39">
     <!-- −0.50 -->
     <g transform="translate(932.684947 198.451891)scale(0.1 -0.1)">
      <use xlink:href="#DejaVuSans-2212"/>
      <use x="83.789062" xlink:href="#DejaVuSans-30"/>
      <use x="147.412109" xlink:href="#DejaVuSans-2e"/>
      <use x="179.199219" xlink:href="#DejaVuSans-35"/>
      <use x="242.822266" xlink:href="#DejaVuSans-30"/>
     </g>
    </g>
   </g>
   <g id="xtick_27">
    <g id="line2d_51">
     <path d="M 928.471857 176.985179 
L 932.978263 177.885272 
" style="fill:none;stroke:#000000;stroke-linecap:square;stroke-width:0.8;"/>
    </g>
    <g id="text_40">
     <!-- −0.25 -->
     <g transform="translate(933.667229 183.029358)scale(0.1 -0.1)">
      <use xlink:href="#DejaVuSans-2212"/>
      <use x="83.789062" xlink:href="#DejaVuSans-30"/>
      <use x="147.412109" xlink:href="#DejaVuSans-2e"/>
      <use x="179.199219" xlink:href="#DejaVuSans-32"/>
      <use x="242.822266" xlink:href="#DejaVuSans-35"/>
     </g>
    </g>
   </g>
   <g id="xtick_28">
    <g id="line2d_52">
     <path d="M 929.341916 161.354182 
L 933.876976 162.243156 
" style="fill:none;stroke:#000000;stroke-linecap:square;stroke-width:0.8;"/>
    </g>
    <g id="text_41">
     <!-- 0.00 -->
     <g transform="translate(938.851408 167.41759)scale(0.1 -0.1)">
      <use xlink:href="#DejaVuSans-30"/>
      <use x="63.623047" xlink:href="#DejaVuSans-2e"/>
      <use x="95.410156" xlink:href="#DejaVuSans-30"/>
      <use x="159.033203" xlink:href="#DejaVuSans-30"/>
     </g>
    </g>
   </g>
   <g id="xtick_29">
    <g id="line2d_53">
     <path d="M 930.222735 145.529851 
L 934.786816 146.40736 
" style="fill:none;stroke:#000000;stroke-linecap:square;stroke-width:0.8;"/>
    </g>
    <g id="text_42">
     <!-- 0.25 -->
     <g transform="translate(939.858019 151.613083)scale(0.1 -0.1)">
      <use xlink:href="#DejaVuSans-30"/>
      <use x="63.623047" xlink:href="#DejaVuSans-2e"/>
      <use x="95.410156" xlink:href="#DejaVuSans-32"/>
      <use x="159.033203" xlink:href="#DejaVuSans-35"/>
     </g>
    </g>
   </g>
   <g id="xtick_30">
    <g id="line2d_54">
     <path d="M 931.114517 129.508577 
L 935.707992 130.374265 
" style="fill:none;stroke:#000000;stroke-linecap:square;stroke-width:0.8;"/>
    </g>
    <g id="text_43">
     <!-- 0.50 -->
     <g transform="translate(940.877135 135.612246)scale(0.1 -0.1)">
      <use xlink:href="#DejaVuSans-30"/>
      <use x="63.623047" xlink:href="#DejaVuSans-2e"/>
      <use x="95.410156" xlink:href="#DejaVuSans-35"/>
      <use x="159.033203" xlink:href="#DejaVuSans-30"/>
     </g>
    </g>
   </g>
   <g id="xtick_31">
    <g id="line2d_55">
     <path d="M 932.017467 113.286659 
L 936.640717 114.140162 
" style="fill:none;stroke:#000000;stroke-linecap:square;stroke-width:0.8;"/>
    </g>
    <g id="text_44">
     <!-- 0.75 -->
     <g transform="translate(941.908989 119.411398)scale(0.1 -0.1)">
      <use xlink:href="#DejaVuSans-30"/>
      <use x="63.623047" xlink:href="#DejaVuSans-2e"/>
      <use x="95.410156" xlink:href="#DejaVuSans-37"/>
      <use x="159.033203" xlink:href="#DejaVuSans-35"/>
     </g>
    </g>
   </g>
   <g id="xtick_32">
    <g id="line2d_56">
     <path d="M 932.931797 96.860306 
L 937.58521 97.701245 
" style="fill:none;stroke:#000000;stroke-linecap:square;stroke-width:0.8;"/>
    </g>
    <g id="text_45">
     <!-- 1.00 -->
     <g transform="translate(942.953823 103.006764)scale(0.1 -0.1)">
      <use xlink:href="#DejaVuSans-31"/>
      <use x="63.623047" xlink:href="#DejaVuSans-2e"/>
      <use x="95.410156" xlink:href="#DejaVuSans-30"/>
      <use x="159.033203" xlink:href="#DejaVuSans-30"/>
     </g>
    </g>
   </g>
  </g>
  <g id="axes_2">
   <g id="Line3DCollection_4">
    <path clip-path="url(#pc895e886e0)" d="M 892.485388 184.341949 
L 877.934191 194.198302 
" style="fill:none;stroke:#000000;stroke-width:1.5;"/>
    <path clip-path="url(#pc895e886e0)" d="M 892.62266 178.865094 
L 883.426911 189.461109 
" style="fill:none;stroke:#000000;stroke-width:1.5;"/>
    <path clip-path="url(#pc895e886e0)" d="M 890.150469 173.461661 
L 886.431889 184.424576 
" style="fill:none;stroke:#000000;stroke-width:1.5;"/>
    <path clip-path="url(#pc895e886e0)" d="M 885.297684 168.249132 
L 886.915013 179.223065 
" style="fill:none;stroke:#000000;stroke-width:1.5;"/>
    <path clip-path="url(#pc895e886e0)" d="M 878.299108 163.31815 
L 884.909352 173.990614 
" style="fill:none;stroke:#000000;stroke-width:1.5;"/>
    <path clip-path="url(#pc895e886e0)" d="M 869.374855 158.742992 
L 880.509738 168.857269 
" style="fill:none;stroke:#000000;stroke-width:1.5;"/>
    <path clip-path="url(#pc895e886e0)" d="M 858.731009 154.591159 
L 873.866008 163.945999 
" style="fill:none;stroke:#000000;stroke-width:1.5;"/>
    <path clip-path="url(#pc895e886e0)" d="M 846.571609 150.928936 
L 865.175528 159.370226 
" style="fill:none;stroke:#000000;stroke-width:1.5;"/>
    <path clip-path="url(#pc895e886e0)" d="M 833.112441 147.822845 
L 854.675458 155.231945 
" style="fill:none;stroke:#000000;stroke-width:1.5;"/>
    <path clip-path="url(#pc895e886e0)" d="M 818.591598 145.338355 
L 842.635183 151.620375 
" style="fill:none;stroke:#000000;stroke-width:1.5;"/>
    <path clip-path="url(#pc895e886e0)" d="M 803.275662 143.53727 
L 829.349157 148.611057 
" style="fill:none;stroke:#000000;stroke-width:1.5;"/>
    <path clip-path="url(#pc895e886e0)" d="M 787.462358 142.474681 
L 815.130313 146.265295 
" style="fill:none;stroke:#000000;stroke-width:1.5;"/>
    <path clip-path="url(#pc895e886e0)" d="M 771.480897 142.195757 
L 800.304099 144.629847 
" style="fill:none;stroke:#000000;stroke-width:1.5;"/>
    <path clip-path="url(#pc895e886e0)" d="M 755.690728 142.732291 
L 785.203071 143.736786 
" style="fill:none;stroke:#000000;stroke-width:1.5;"/>
    <path clip-path="url(#pc895e886e0)" d="M 740.478391 144.098701 
L 770.161962 143.60344 
" style="fill:none;stroke:#000000;stroke-width:1.5;"/>
    <path clip-path="url(#pc895e886e0)" d="M 726.250976 146.287286 
L 755.513039 144.232388 
" style="fill:none;stroke:#000000;stroke-width:1.5;"/>
    <path clip-path="url(#pc895e886e0)" d="M 713.423506 149.262959 
L 741.581605 145.61145 
" style="fill:none;stroke:#000000;stroke-width:1.5;"/>
    <path clip-path="url(#pc895e886e0)" d="M 702.397283 152.958617 
L 728.681433 147.713701 
" style="fill:none;stroke:#000000;stroke-width:1.5;"/>
    <path clip-path="url(#pc895e886e0)" d="M 693.528431 157.273451 
L 717.109976 150.4975 
" style="fill:none;stroke:#000000;stroke-width:1.5;"/>
    <path clip-path="url(#pc895e886e0)" d="M 687.091586 162.077096 
L 707.143227 153.9066 
" style="fill:none;stroke:#000000;stroke-width:1.5;"/>
    <path clip-path="url(#pc895e886e0)" d="M 683.251017 167.220984 
L 699.030131 157.870383 
" style="fill:none;stroke:#000000;stroke-width:1.5;"/>
    <path clip-path="url(#pc895e886e0)" d="M 682.053788 172.554384 
L 692.986558 162.304324 
" style="fill:none;stroke:#000000;stroke-width:1.5;"/>
    <path clip-path="url(#pc895e886e0)" d="M 683.450514 177.938698 
L 689.188913 167.110762 
" style="fill:none;stroke:#000000;stroke-width:1.5;"/>
    <path clip-path="url(#pc895e886e0)" d="M 687.332999 183.253828 
L 687.767566 172.180079 
" style="fill:none;stroke:#000000;stroke-width:1.5;"/>
    <path clip-path="url(#pc895e886e0)" d="M 693.568605 188.395342 
L 688.800394 177.392393 
" style="fill:none;stroke:#000000;stroke-width:1.5;"/>
    <path clip-path="url(#pc895e886e0)" d="M 702.016647 193.266469 
L 692.306848 182.619809 
" style="fill:none;stroke:#000000;stroke-width:1.5;"/>
    <path clip-path="url(#pc895e886e0)" d="M 712.525349 197.770434 
L 698.243025 187.729296 
" style="fill:none;stroke:#000000;stroke-width:1.5;"/>
    <path clip-path="url(#pc895e886e0)" d="M 724.917251 201.806536 
L 706.4983 192.586154 
" style="fill:none;stroke:#000000;stroke-width:1.5;"/>
    <path clip-path="url(#pc895e886e0)" d="M 738.972341 205.270614 
L 716.894081 197.058017 
" style="fill:none;stroke:#000000;stroke-width:1.5;"/>
    <path clip-path="url(#pc895e886e0)" d="M 754.415051 208.058866 
L 729.185166 201.019243 
" style="fill:none;stroke:#000000;stroke-width:1.5;"/>
    <path clip-path="url(#pc895e886e0)" d="M 770.907659 210.073678 
L 743.064097 204.355493 
" style="fill:none;stroke:#000000;stroke-width:1.5;"/>
    <path clip-path="url(#pc895e886e0)" d="M 788.050396 211.230336 
L 758.168654 206.968225 
" style="fill:none;stroke:#000000;stroke-width:1.5;"/>
    <path clip-path="url(#pc895e886e0)" d="M 805.387678 211.463949 
L 774.092413 208.778831 
" style="fill:none;stroke:#000000;stroke-width:1.5;"/>
    <path clip-path="url(#pc895e886e0)" d="M 822.419899 210.736208 
L 790.397977 209.732089 
" style="fill:none;stroke:#000000;stroke-width:1.5;"/>
    <path clip-path="url(#pc895e886e0)" d="M 838.620726 209.041718 
L 806.632244 209.798679 
" style="fill:none;stroke:#000000;stroke-width:1.5;"/>
    <path clip-path="url(#pc895e886e0)" d="M 853.460517 206.41354 
L 822.342806 208.976547 
" style="fill:none;stroke:#000000;stroke-width:1.5;"/>
    <path clip-path="url(#pc895e886e0)" d="M 866.436851 202.927064 
L 837.094485 207.291 
" style="fill:none;stroke:#000000;stroke-width:1.5;"/>
    <path clip-path="url(#pc895e886e0)" d="M 877.112132 198.700573 
L 850.484943 204.793527 
" style="fill:none;stroke:#000000;stroke-width:1.5;"/>
    <path clip-path="url(#pc895e886e0)" d="M 885.154627 193.890097 
L 862.158422 201.559446 
" style="fill:none;stroke:#000000;stroke-width:1.5;"/>
    <path clip-path="url(#pc895e886e0)" d="M 890.373196 188.676744 
L 871.81684 197.684572 
" style="fill:none;stroke:#000000;stroke-width:1.5;"/>
    <path clip-path="url(#pc895e886e0)" d="M 892.485388 184.341949 
L 888.243107 188.669563 
" style="fill:none;stroke:#000000;stroke-width:1.5;"/>
    <path clip-path="url(#pc895e886e0)" d="M 892.485388 184.341949 
L 888.362828 185.678599 
" style="fill:none;stroke:#000000;stroke-width:1.5;"/>
    <path clip-path="url(#pc895e886e0)" d="M 892.62266 178.865094 
L 889.920833 183.397231 
" style="fill:none;stroke:#000000;stroke-width:1.5;"/>
    <path clip-path="url(#pc895e886e0)" d="M 892.62266 178.865094 
L 890.041791 180.418401 
" style="fill:none;stroke:#000000;stroke-width:1.5;"/>
    <path clip-path="url(#pc895e886e0)" d="M 890.150469 173.461661 
L 889.023186 178.091914 
" style="fill:none;stroke:#000000;stroke-width:1.5;"/>
    <path clip-path="url(#pc895e886e0)" d="M 890.150469 173.461661 
L 889.142346 175.125373 
" style="fill:none;stroke:#000000;stroke-width:1.5;"/>
    <path clip-path="url(#pc895e886e0)" d="M 885.297684 168.249132 
L 885.70479 172.876272 
" style="fill:none;stroke:#000000;stroke-width:1.5;"/>
    <path clip-path="url(#pc895e886e0)" d="M 885.297684 168.249132 
L 885.81937 169.921886 
" style="fill:none;stroke:#000000;stroke-width:1.5;"/>
    <path clip-path="url(#pc895e886e0)" d="M 878.299108 163.31815 
L 880.143688 167.853466 
" style="fill:none;stroke:#000000;stroke-width:1.5;"/>
    <path clip-path="url(#pc895e886e0)" d="M 878.299108 163.31815 
L 880.251176 164.910856 
" style="fill:none;stroke:#000000;stroke-width:1.5;"/>
    <path clip-path="url(#pc895e886e0)" d="M 869.374855 158.742992 
L 872.524816 163.11366 
" style="fill:none;stroke:#000000;stroke-width:1.5;"/>
    <path clip-path="url(#pc895e886e0)" d="M 869.374855 158.742992 
L 872.622963 160.182227 
" style="fill:none;stroke:#000000;stroke-width:1.5;"/>
    <path clip-path="url(#pc895e886e0)" d="M 858.731009 154.591159 
L 863.038476 158.74009 
" style="fill:none;stroke:#000000;stroke-width:1.5;"/>
    <path clip-path="url(#pc895e886e0)" d="M 858.731009 154.591159 
L 863.12529 155.819024 
" style="fill:none;stroke:#000000;stroke-width:1.5;"/>
    <path clip-path="url(#pc895e886e0)" d="M 846.571609 150.928936 
L 851.886806 154.81239 
" style="fill:none;stroke:#000000;stroke-width:1.5;"/>
    <path clip-path="url(#pc895e886e0)" d="M 846.571609 150.928936 
L 851.960552 151.900678 
" style="fill:none;stroke:#000000;stroke-width:1.5;"/>
    <path clip-path="url(#pc895e886e0)" d="M 833.112441 147.822845 
L 839.291526 151.407121 
" style="fill:none;stroke:#000000;stroke-width:1.5;"/>
    <path clip-path="url(#pc895e886e0)" d="M 833.112441 147.822845 
L 839.350731 148.503555 
" style="fill:none;stroke:#000000;stroke-width:1.5;"/>
    <path clip-path="url(#pc895e886e0)" d="M 818.591598 145.338355 
L 825.499384 148.596466 
" style="fill:none;stroke:#000000;stroke-width:1.5;"/>
    <path clip-path="url(#pc895e886e0)" d="M 818.591598 145.338355 
L 825.54285 145.699645 
" style="fill:none;stroke:#000000;stroke-width:1.5;"/>
    <path clip-path="url(#pc895e886e0)" d="M 803.275662 143.53727 
L 810.784573 146.446089 
" style="fill:none;stroke:#000000;stroke-width:1.5;"/>
    <path clip-path="url(#pc895e886e0)" d="M 803.275662 143.53727 
L 810.811393 143.554445 
" style="fill:none;stroke:#000000;stroke-width:1.5;"/>
    <path clip-path="url(#pc895e886e0)" d="M 787.462358 142.474681 
L 795.448744 145.012785 
" style="fill:none;stroke:#000000;stroke-width:1.5;"/>
    <path clip-path="url(#pc895e886e0)" d="M 787.462358 142.474681 
L 795.458316 142.124598 
" style="fill:none;stroke:#000000;stroke-width:1.5;"/>
    <path clip-path="url(#pc895e886e0)" d="M 771.480897 142.195757 
L 779.819514 144.342084 
" style="fill:none;stroke:#000000;stroke-width:1.5;"/>
    <path clip-path="url(#pc895e886e0)" d="M 771.480897 142.195757 
L 779.811563 141.455517 
" style="fill:none;stroke:#000000;stroke-width:1.5;"/>
    <path clip-path="url(#pc895e886e0)" d="M 755.690728 142.732291 
L 764.247969 144.465741 
" style="fill:none;stroke:#000000;stroke-width:1.5;"/>
    <path clip-path="url(#pc895e886e0)" d="M 755.690728 142.732291 
L 764.222565 141.578875 
" style="fill:none;stroke:#000000;stroke-width:1.5;"/>
    <path clip-path="url(#pc895e886e0)" d="M 740.478391 144.098701 
L 749.104935 145.398873 
" style="fill:none;stroke:#000000;stroke-width:1.5;"/>
    <path clip-path="url(#pc895e886e0)" d="M 740.478391 144.098701 
L 749.06251 142.509754 
" style="fill:none;stroke:#000000;stroke-width:1.5;"/>
    <path clip-path="url(#pc895e886e0)" d="M 726.250976 146.287286 
L 734.774905 147.1366 
" style="fill:none;stroke:#000000;stroke-width:1.5;"/>
    <path clip-path="url(#pc895e886e0)" d="M 726.250976 146.287286 
L 734.716275 144.243293 
" style="fill:none;stroke:#000000;stroke-width:1.5;"/>
    <path clip-path="url(#pc895e886e0)" d="M 713.423506 149.262959 
L 721.645708 149.650344 
" style="fill:none;stroke:#000000;stroke-width:1.5;"/>
    <path clip-path="url(#pc895e886e0)" d="M 713.423506 149.262959 
L 721.572089 146.750991 
" style="fill:none;stroke:#000000;stroke-width:1.5;"/>
    <path clip-path="url(#pc895e886e0)" d="M 702.397283 152.958617 
L 710.09183 152.884599 
" style="fill:none;stroke:#000000;stroke-width:1.5;"/>
    <path clip-path="url(#pc895e886e0)" d="M 702.397283 152.958617 
L 710.004838 149.977495 
" style="fill:none;stroke:#000000;stroke-width:1.5;"/>
    <path clip-path="url(#pc895e886e0)" d="M 693.528431 157.273451 
L 700.450842 156.755825 
" style="fill:none;stroke:#000000;stroke-width:1.5;"/>
    <path clip-path="url(#pc895e886e0)" d="M 693.528431 157.273451 
L 700.352474 153.83948 
" style="fill:none;stroke:#000000;stroke-width:1.5;"/>
    <path clip-path="url(#pc895e886e0)" d="M 687.091586 162.077096 
L 692.996452 161.15546 
" style="fill:none;stroke:#000000;stroke-width:1.5;"/>
    <path clip-path="url(#pc895e886e0)" d="M 687.091586 162.077096 
L 692.889035 158.228662 
" style="fill:none;stroke:#000000;stroke-width:1.5;"/>
    <path clip-path="url(#pc895e886e0)" d="M 683.251017 167.220984 
L 687.916796 165.958026 
" style="fill:none;stroke:#000000;stroke-width:1.5;"/>
    <path clip-path="url(#pc895e886e0)" d="M 683.251017 167.220984 
L 687.802917 163.019878 
" style="fill:none;stroke:#000000;stroke-width:1.5;"/>
    <path clip-path="url(#pc895e886e0)" d="M 682.053788 172.554384 
L 685.30814 171.032527 
" style="fill:none;stroke:#000000;stroke-width:1.5;"/>
    <path clip-path="url(#pc895e886e0)" d="M 682.053788 172.554384 
L 685.190552 168.082456 
" style="fill:none;stroke:#000000;stroke-width:1.5;"/>
    <path clip-path="url(#pc895e886e0)" d="M 683.450514 177.938698 
L 685.187737 176.252652 
" style="fill:none;stroke:#000000;stroke-width:1.5;"/>
    <path clip-path="url(#pc895e886e0)" d="M 683.450514 177.938698 
L 685.06928 173.290388 
" style="fill:none;stroke:#000000;stroke-width:1.5;"/>
    <path clip-path="url(#pc895e886e0)" d="M 687.332999 183.253828 
L 687.51829 181.501501 
" style="fill:none;stroke:#000000;stroke-width:1.5;"/>
    <path clip-path="url(#pc895e886e0)" d="M 687.332999 183.253828 
L 687.401831 178.527054 
" style="fill:none;stroke:#000000;stroke-width:1.5;"/>
    <path clip-path="url(#pc895e886e0)" d="M 693.568605 188.395342 
L 692.230003 186.670042 
" style="fill:none;stroke:#000000;stroke-width:1.5;"/>
    <path clip-path="url(#pc895e886e0)" d="M 693.568605 188.395342 
L 692.118393 183.68367 
" style="fill:none;stroke:#000000;stroke-width:1.5;"/>
    <path clip-path="url(#pc895e886e0)" d="M 702.016647 193.266469 
L 699.23013 191.652141 
" style="fill:none;stroke:#000000;stroke-width:1.5;"/>
    <path clip-path="url(#pc895e886e0)" d="M 702.016647 193.266469 
L 699.126171 188.654345 
" style="fill:none;stroke:#000000;stroke-width:1.5;"/>
    <path clip-path="url(#pc895e886e0)" d="M 712.525349 197.770434 
L 708.399236 196.340049 
" style="fill:none;stroke:#000000;stroke-width:1.5;"/>
    <path clip-path="url(#pc895e886e0)" d="M 712.525349 197.770434 
L 708.305642 193.331566 
" style="fill:none;stroke:#000000;stroke-width:1.5;"/>
    <path clip-path="url(#pc895e886e0)" d="M 724.917251 201.806536 
L 719.579891 200.622713 
" style="fill:none;stroke:#000000;stroke-width:1.5;"/>
    <path clip-path="url(#pc895e886e0)" d="M 724.917251 201.806536 
L 719.49923 197.604518 
" style="fill:none;stroke:#000000;stroke-width:1.5;"/>
    <path clip-path="url(#pc895e886e0)" d="M 738.972341 205.270614 
L 732.564445 204.387307 
" style="fill:none;stroke:#000000;stroke-width:1.5;"/>
    <path clip-path="url(#pc895e886e0)" d="M 738.972341 205.270614 
L 732.499057 201.360617 
" style="fill:none;stroke:#000000;stroke-width:1.5;"/>
    <path clip-path="url(#pc895e886e0)" d="M 754.415051 208.058866 
L 747.086288 207.523249 
" style="fill:none;stroke:#000000;stroke-width:1.5;"/>
    <path clip-path="url(#pc895e886e0)" d="M 754.415051 208.058866 
L 747.0382 204.489512 
" style="fill:none;stroke:#000000;stroke-width:1.5;"/>
    <path clip-path="url(#pc895e886e0)" d="M 770.907659 210.073678 
L 762.816507 209.92766 
" style="fill:none;stroke:#000000;stroke-width:1.5;"/>
    <path clip-path="url(#pc895e886e0)" d="M 770.907659 210.073678 
L 762.787333 206.888538 
" style="fill:none;stroke:#000000;stroke-width:1.5;"/>
    <path clip-path="url(#pc895e886e0)" d="M 788.050396 211.230336 
L 779.366155 211.511436 
" style="fill:none;stroke:#000000;stroke-width:1.5;"/>
    <path clip-path="url(#pc895e886e0)" d="M 788.050396 211.230336 
L 779.357001 208.468775 
" style="fill:none;stroke:#000000;stroke-width:1.5;"/>
    <path clip-path="url(#pc895e886e0)" d="M 805.387678 211.463949 
L 796.293717 212.205361 
" style="fill:none;stroke:#000000;stroke-width:1.5;"/>
    <path clip-path="url(#pc895e886e0)" d="M 805.387678 211.463949 
L 796.305103 209.161152 
" style="fill:none;stroke:#000000;stroke-width:1.5;"/>
    <path clip-path="url(#pc895e886e0)" d="M 822.419899 210.736208 
L 813.117274 211.965916 
" style="fill:none;stroke:#000000;stroke-width:1.5;"/>
    <path clip-path="url(#pc895e886e0)" d="M 822.419899 210.736208 
L 813.149071 208.922241 
" style="fill:none;stroke:#000000;stroke-width:1.5;"/>
    <path clip-path="url(#pc895e886e0)" d="M 838.620726 209.041718 
L 829.331137 210.780529 
" style="fill:none;stroke:#000000;stroke-width:1.5;"/>
    <path clip-path="url(#pc895e886e0)" d="M 838.620726 209.041718 
L 829.382541 207.7395 
" style="fill:none;stroke:#000000;stroke-width:1.5;"/>
    <path clip-path="url(#pc895e886e0)" d="M 853.460517 206.41354 
L 844.427182 208.671947 
" style="fill:none;stroke:#000000;stroke-width:1.5;"/>
    <path clip-path="url(#pc895e886e0)" d="M 853.460517 206.41354 
L 844.496714 205.635634 
" style="fill:none;stroke:#000000;stroke-width:1.5;"/>
    <path clip-path="url(#pc895e886e0)" d="M 866.436851 202.927064 
L 857.92132 205.701087 
" style="fill:none;stroke:#000000;stroke-width:1.5;"/>
    <path clip-path="url(#pc895e886e0)" d="M 866.436851 202.927064 
L 858.006877 202.671441 
" style="fill:none;stroke:#000000;stroke-width:1.5;"/>
    <path clip-path="url(#pc895e886e0)" d="M 877.112132 198.700573 
L 869.384845 201.967163 
" style="fill:none;stroke:#000000;stroke-width:1.5;"/>
    <path clip-path="url(#pc895e886e0)" d="M 877.112132 198.700573 
L 869.483791 198.945929 
" style="fill:none;stroke:#000000;stroke-width:1.5;"/>
    <path clip-path="url(#pc895e886e0)" d="M 885.154627 193.890097 
L 878.477836 197.603402 
" style="fill:none;stroke:#000000;stroke-width:1.5;"/>
    <path clip-path="url(#pc895e886e0)" d="M 885.154627 193.890097 
L 878.587143 194.592048 
" style="fill:none;stroke:#000000;stroke-width:1.5;"/>
    <path clip-path="url(#pc895e886e0)" d="M 890.373196 188.676744 
L 884.977442 192.767052 
" style="fill:none;stroke:#000000;stroke-width:1.5;"/>
    <path clip-path="url(#pc895e886e0)" d="M 890.373196 188.676744 
L 885.093857 189.766709 
" style="fill:none;stroke:#000000;stroke-width:1.5;"/>
   </g>
   <g id="Line3DCollection_5">
    <path clip-path="url(#pc895e886e0)" d="M 878.637339 174.684932 
L 877.934191 194.198302 
" style="fill:none;stroke:#ff0000;stroke-width:1.5;"/>
    <path clip-path="url(#pc895e886e0)" d="M 884.168387 170.018782 
L 883.426911 189.461109 
" style="fill:none;stroke:#ff0000;stroke-width:1.5;"/>
    <path clip-path="url(#pc895e886e0)" d="M 887.191952 165.058213 
L 886.431889 184.424576 
" style="fill:none;stroke:#ff0000;stroke-width:1.5;"/>
    <path clip-path="url(#pc895e886e0)" d="M 887.674095 159.935622 
L 886.915013 179.223065 
" style="fill:none;stroke:#ff0000;stroke-width:1.5;"/>
    <path clip-path="url(#pc895e886e0)" d="M 885.648608 154.783039 
L 884.909352 173.990614 
" style="fill:none;stroke:#ff0000;stroke-width:1.5;"/>
    <path clip-path="url(#pc895e886e0)" d="M 881.211491 149.728515 
L 880.509738 168.857269 
" style="fill:none;stroke:#ff0000;stroke-width:1.5;"/>
    <path clip-path="url(#pc895e886e0)" d="M 874.514116 144.89309 
L 873.866008 163.945999 
" style="fill:none;stroke:#ff0000;stroke-width:1.5;"/>
    <path clip-path="url(#pc895e886e0)" d="M 864.603883 178.074793 
L 865.175528 159.370226 
" style="fill:none;stroke:#ff0000;stroke-width:1.5;"/>
    <path clip-path="url(#pc895e886e0)" d="M 854.182952 173.874251 
L 854.675458 155.231945 
" style="fill:none;stroke:#ff0000;stroke-width:1.5;"/>
    <path clip-path="url(#pc895e886e0)" d="M 842.231943 170.208096 
L 842.635183 151.620375 
" style="fill:none;stroke:#ff0000;stroke-width:1.5;"/>
    <path clip-path="url(#pc895e886e0)" d="M 829.043177 167.153118 
L 829.349157 148.611057 
" style="fill:none;stroke:#ff0000;stroke-width:1.5;"/>
    <path clip-path="url(#pc895e886e0)" d="M 814.927435 164.771651 
L 815.130313 146.265295 
" style="fill:none;stroke:#ff0000;stroke-width:1.5;"/>
    <path clip-path="url(#pc895e886e0)" d="M 800.208014 163.111253 
L 800.304099 144.629847 
" style="fill:none;stroke:#ff0000;stroke-width:1.5;"/>
    <path clip-path="url(#pc895e886e0)" d="M 785.215335 162.204546 
L 785.203071 143.736786 
" style="fill:none;stroke:#ff0000;stroke-width:1.5;"/>
    <path clip-path="url(#pc895e886e0)" d="M 770.282022 162.069162 
L 770.161962 143.60344 
" style="fill:none;stroke:#ff0000;stroke-width:1.5;"/>
    <path clip-path="url(#pc895e886e0)" d="M 755.738258 162.707722 
L 755.513039 144.232388 
" style="fill:none;stroke:#ff0000;stroke-width:1.5;"/>
    <path clip-path="url(#pc895e886e0)" d="M 741.907291 164.107837 
L 741.581605 145.61145 
" style="fill:none;stroke:#ff0000;stroke-width:1.5;"/>
    <path clip-path="url(#pc895e886e0)" d="M 729.100865 166.242114 
L 728.681433 147.713701 
" style="fill:none;stroke:#ff0000;stroke-width:1.5;"/>
    <path clip-path="url(#pc895e886e0)" d="M 717.614448 169.068203 
L 717.109976 150.4975 
" style="fill:none;stroke:#ff0000;stroke-width:1.5;"/>
    <path clip-path="url(#pc895e886e0)" d="M 707.722098 172.528902 
L 707.143227 153.9066 
" style="fill:none;stroke:#ff0000;stroke-width:1.5;"/>
    <path clip-path="url(#pc895e886e0)" d="M 699.670911 176.55242 
L 699.030131 157.870383 
" style="fill:none;stroke:#ff0000;stroke-width:1.5;"/>
    <path clip-path="url(#pc895e886e0)" d="M 693.675031 181.05285 
L 692.986558 162.304324 
" style="fill:none;stroke:#ff0000;stroke-width:1.5;"/>
    <path clip-path="url(#pc895e886e0)" d="M 689.909316 185.930966 
L 689.188913 167.110762 
" style="fill:none;stroke:#ff0000;stroke-width:1.5;"/>
    <path clip-path="url(#pc895e886e0)" d="M 688.502825 191.075437 
L 687.767566 172.180079 
" style="fill:none;stroke:#ff0000;stroke-width:1.5;"/>
    <path clip-path="url(#pc895e886e0)" d="M 689.532448 196.364546 
L 688.800394 177.392393 
" style="fill:none;stroke:#ff0000;stroke-width:1.5;"/>
    <path clip-path="url(#pc895e886e0)" d="M 693.017047 201.668494 
L 692.306848 182.619809 
" style="fill:none;stroke:#ff0000;stroke-width:1.5;"/>
    <path clip-path="url(#pc895e886e0)" d="M 698.912608 206.852316 
L 698.243025 187.729296 
" style="fill:none;stroke:#ff0000;stroke-width:1.5;"/>
    <path clip-path="url(#pc895e886e0)" d="M 707.108946 211.779403 
L 706.4983 192.586154 
" style="fill:none;stroke:#ff0000;stroke-width:1.5;"/>
    <path clip-path="url(#pc895e886e0)" d="M 717.428512 216.315557 
L 716.894081 197.058017 
" style="fill:none;stroke:#ff0000;stroke-width:1.5;"/>
    <path clip-path="url(#pc895e886e0)" d="M 729.627776 220.333436 
L 729.185166 201.019243 
" style="fill:none;stroke:#ff0000;stroke-width:1.5;"/>
    <path clip-path="url(#pc895e886e0)" d="M 743.40157 223.717183 
L 743.064097 204.355493 
" style="fill:none;stroke:#ff0000;stroke-width:1.5;"/>
    <path clip-path="url(#pc895e886e0)" d="M 758.390535 226.366974 
L 758.168654 206.968225 
" style="fill:none;stroke:#ff0000;stroke-width:1.5;"/>
    <path clip-path="url(#pc895e886e0)" d="M 774.191582 228.203189 
L 774.092413 208.778831 
" style="fill:none;stroke:#ff0000;stroke-width:1.5;"/>
    <path clip-path="url(#pc895e886e0)" d="M 790.371001 229.169907 
L 790.397977 209.732089 
" style="fill:none;stroke:#ff0000;stroke-width:1.5;"/>
    <path clip-path="url(#pc895e886e0)" d="M 806.787334 190.054138 
L 806.632244 209.798679 
" style="fill:none;stroke:#ff0000;stroke-width:1.5;"/>
    <path clip-path="url(#pc895e886e0)" d="M 822.621202 189.244082 
L 822.342806 208.976547 
" style="fill:none;stroke:#ff0000;stroke-width:1.5;"/>
    <path clip-path="url(#pc895e886e0)" d="M 837.488038 187.58333 
L 837.094485 207.291 
" style="fill:none;stroke:#ff0000;stroke-width:1.5;"/>
    <path clip-path="url(#pc895e886e0)" d="M 850.982089 185.122688 
L 850.484943 204.793527 
" style="fill:none;stroke:#ff0000;stroke-width:1.5;"/>
    <path clip-path="url(#pc895e886e0)" d="M 862.744673 181.936464 
L 862.158422 201.559446 
" style="fill:none;stroke:#ff0000;stroke-width:1.5;"/>
    <path clip-path="url(#pc895e886e0)" d="M 872.475388 178.11917 
L 871.81684 197.684572 
" style="fill:none;stroke:#ff0000;stroke-width:1.5;"/>
    <path clip-path="url(#pc895e886e0)" d="M 878.637339 174.684932 
L 879.580076 179.605187 
" style="fill:none;stroke:#ff0000;stroke-width:1.5;"/>
    <path clip-path="url(#pc895e886e0)" d="M 878.637339 174.684932 
L 877.282796 181.137043 
" style="fill:none;stroke:#ff0000;stroke-width:1.5;"/>
    <path clip-path="url(#pc895e886e0)" d="M 884.168387 170.018782 
L 884.677969 174.860084 
" style="fill:none;stroke:#ff0000;stroke-width:1.5;"/>
    <path clip-path="url(#pc895e886e0)" d="M 884.168387 170.018782 
L 883.225329 176.508334 
" style="fill:none;stroke:#ff0000;stroke-width:1.5;"/>
    <path clip-path="url(#pc895e886e0)" d="M 887.191952 165.058213 
L 887.263724 169.848351 
" style="fill:none;stroke:#ff0000;stroke-width:1.5;"/>
    <path clip-path="url(#pc895e886e0)" d="M 887.191952 165.058213 
L 886.676703 171.55443 
" style="fill:none;stroke:#ff0000;stroke-width:1.5;"/>
    <path clip-path="url(#pc895e886e0)" d="M 887.674095 159.935622 
L 887.324628 164.70171 
" style="fill:none;stroke:#ff0000;stroke-width:1.5;"/>
    <path clip-path="url(#pc895e886e0)" d="M 887.674095 159.935622 
L 887.581527 166.409548 
" style="fill:none;stroke:#ff0000;stroke-width:1.5;"/>
    <path clip-path="url(#pc895e886e0)" d="M 885.648608 154.783039 
L 884.910654 159.549376 
" style="fill:none;stroke:#ff0000;stroke-width:1.5;"/>
    <path clip-path="url(#pc895e886e0)" d="M 885.648608 154.783039 
L 885.956874 161.209723 
" style="fill:none;stroke:#ff0000;stroke-width:1.5;"/>
    <path clip-path="url(#pc895e886e0)" d="M 881.211491 149.728515 
L 880.127679 154.515566 
" style="fill:none;stroke:#ff0000;stroke-width:1.5;"/>
    <path clip-path="url(#pc895e886e0)" d="M 881.211491 149.728515 
L 881.888109 156.088038 
" style="fill:none;stroke:#ff0000;stroke-width:1.5;"/>
    <path clip-path="url(#pc895e886e0)" d="M 874.514116 144.89309 
L 873.131233 149.717465 
" style="fill:none;stroke:#ff0000;stroke-width:1.5;"/>
    <path clip-path="url(#pc895e886e0)" d="M 874.514116 144.89309 
L 875.52151 151.170545 
" style="fill:none;stroke:#ff0000;stroke-width:1.5;"/>
    <path clip-path="url(#pc895e886e0)" d="M 864.603883 178.074793 
L 863.318411 172.014091 
" style="fill:none;stroke:#ff0000;stroke-width:1.5;"/>
    <path clip-path="url(#pc895e886e0)" d="M 864.603883 178.074793 
L 866.22123 173.352575 
" style="fill:none;stroke:#ff0000;stroke-width:1.5;"/>
    <path clip-path="url(#pc895e886e0)" d="M 854.182952 173.874251 
L 852.645694 167.91375 
" style="fill:none;stroke:#ff0000;stroke-width:1.5;"/>
    <path clip-path="url(#pc895e886e0)" d="M 854.182952 173.874251 
L 856.006512 169.087209 
" style="fill:none;stroke:#ff0000;stroke-width:1.5;"/>
    <path clip-path="url(#pc895e886e0)" d="M 842.231943 170.208096 
L 840.477944 164.352993 
" style="fill:none;stroke:#ff0000;stroke-width:1.5;"/>
    <path clip-path="url(#pc895e886e0)" d="M 842.231943 170.208096 
L 844.220658 165.346657 
" style="fill:none;stroke:#ff0000;stroke-width:1.5;"/>
    <path clip-path="url(#pc895e886e0)" d="M 829.043177 167.153118 
L 827.105841 161.407099 
" style="fill:none;stroke:#ff0000;stroke-width:1.5;"/>
    <path clip-path="url(#pc895e886e0)" d="M 829.043177 167.153118 
L 831.158881 162.208515 
" style="fill:none;stroke:#ff0000;stroke-width:1.5;"/>
    <path clip-path="url(#pc895e886e0)" d="M 814.927435 164.771651 
L 812.839505 159.13756 
" style="fill:none;stroke:#ff0000;stroke-width:1.5;"/>
    <path clip-path="url(#pc895e886e0)" d="M 814.927435 164.771651 
L 817.133886 159.735381 
" style="fill:none;stroke:#ff0000;stroke-width:1.5;"/>
    <path clip-path="url(#pc895e886e0)" d="M 800.208014 163.111253 
L 798.003027 157.59152 
" style="fill:none;stroke:#ff0000;stroke-width:1.5;"/>
    <path clip-path="url(#pc895e886e0)" d="M 800.208014 163.111253 
L 802.469432 157.974775 
" style="fill:none;stroke:#ff0000;stroke-width:1.5;"/>
    <path clip-path="url(#pc895e886e0)" d="M 785.215335 162.204546 
L 782.929391 156.801366 
" style="fill:none;stroke:#ff0000;stroke-width:1.5;"/>
    <path clip-path="url(#pc895e886e0)" d="M 785.215335 162.204546 
L 787.494643 156.959252 
" style="fill:none;stroke:#ff0000;stroke-width:1.5;"/>
    <path clip-path="url(#pc895e886e0)" d="M 770.282022 162.069162 
L 767.955649 156.784353 
" style="fill:none;stroke:#ff0000;stroke-width:1.5;"/>
    <path clip-path="url(#pc895e886e0)" d="M 770.282022 162.069162 
L 772.538953 156.706651 
" style="fill:none;stroke:#ff0000;stroke-width:1.5;"/>
    <path clip-path="url(#pc895e886e0)" d="M 755.738258 162.707722 
L 753.418117 157.542231 
" style="fill:none;stroke:#ff0000;stroke-width:1.5;"/>
    <path clip-path="url(#pc895e886e0)" d="M 755.738258 162.707722 
L 757.927664 157.220452 
" style="fill:none;stroke:#ff0000;stroke-width:1.5;"/>
    <path clip-path="url(#pc895e886e0)" d="M 741.907291 164.107837 
L 739.647218 159.060837 
" style="fill:none;stroke:#ff0000;stroke-width:1.5;"/>
    <path clip-path="url(#pc895e886e0)" d="M 741.907291 164.107837 
L 743.978089 158.490161 
" style="fill:none;stroke:#ff0000;stroke-width:1.5;"/>
    <path clip-path="url(#pc895e886e0)" d="M 729.100865 166.242114 
L 726.961609 161.309771 
" style="fill:none;stroke:#ff0000;stroke-width:1.5;"/>
    <path clip-path="url(#pc895e886e0)" d="M 729.100865 166.242114 
L 730.996304 160.491662 
" style="fill:none;stroke:#ff0000;stroke-width:1.5;"/>
    <path clip-path="url(#pc895e886e0)" d="M 717.614448 169.068203 
L 715.661383 164.242318 
" style="fill:none;stroke:#ff0000;stroke-width:1.5;"/>
    <path clip-path="url(#pc895e886e0)" d="M 717.614448 169.068203 
L 719.274369 163.187359 
" style="fill:none;stroke:#ff0000;stroke-width:1.5;"/>
    <path clip-path="url(#pc895e886e0)" d="M 707.722098 172.528902 
L 706.020647 167.795895 
" style="fill:none;stroke:#ff0000;stroke-width:1.5;"/>
    <path clip-path="url(#pc895e886e0)" d="M 707.722098 172.528902 
L 709.087476 166.525954 
" style="fill:none;stroke:#ff0000;stroke-width:1.5;"/>
    <path clip-path="url(#pc895e886e0)" d="M 699.670911 176.55242 
L 698.28029 171.893159 
" style="fill:none;stroke:#ff0000;stroke-width:1.5;"/>
    <path clip-path="url(#pc895e886e0)" d="M 699.670911 176.55242 
L 700.690019 170.441839 
" style="fill:none;stroke:#ff0000;stroke-width:1.5;"/>
    <path clip-path="url(#pc895e886e0)" d="M 693.675031 181.05285 
L 692.64203 176.443651 
" style="fill:none;stroke:#ff0000;stroke-width:1.5;"/>
    <path clip-path="url(#pc895e886e0)" d="M 693.675031 181.05285 
L 694.309544 174.854412 
" style="fill:none;stroke:#ff0000;stroke-width:1.5;"/>
    <path clip-path="url(#pc895e886e0)" d="M 689.909316 185.930966 
L 689.264145 181.345584 
" style="fill:none;stroke:#ff0000;stroke-width:1.5;"/>
    <path clip-path="url(#pc895e886e0)" d="M 689.909316 185.930966 
L 690.138304 179.667872 
" style="fill:none;stroke:#ff0000;stroke-width:1.5;"/>
    <path clip-path="url(#pc895e886e0)" d="M 688.502825 191.075437 
L 688.258248 186.487405 
" style="fill:none;stroke:#ff0000;stroke-width:1.5;"/>
    <path clip-path="url(#pc895e886e0)" d="M 688.502825 191.075437 
L 688.323463 184.772076 
" style="fill:none;stroke:#ff0000;stroke-width:1.5;"/>
    <path clip-path="url(#pc895e886e0)" d="M 689.532448 196.364546 
L 689.685876 191.749139 
" style="fill:none;stroke:#ff0000;stroke-width:1.5;"/>
    <path clip-path="url(#pc895e886e0)" d="M 689.532448 196.364546 
L 688.957727 190.044612 
" style="fill:none;stroke:#ff0000;stroke-width:1.5;"/>
    <path clip-path="url(#pc895e886e0)" d="M 693.017047 201.668494 
L 693.554209 197.003902 
" style="fill:none;stroke:#ff0000;stroke-width:1.5;"/>
    <path clip-path="url(#pc895e886e0)" d="M 693.017047 201.668494 
L 692.071893 195.353871 
" style="fill:none;stroke:#ff0000;stroke-width:1.5;"/>
    <path clip-path="url(#pc895e886e0)" d="M 698.912608 206.852316 
L 699.811296 202.12001 
" style="fill:none;stroke:#ff0000;stroke-width:1.5;"/>
    <path clip-path="url(#pc895e886e0)" d="M 698.912608 206.852316 
L 697.629888 200.562727 
" style="fill:none;stroke:#ff0000;stroke-width:1.5;"/>
    <path clip-path="url(#pc895e886e0)" d="M 707.108946 211.779403 
L 708.341879 206.963941 
" style="fill:none;stroke:#ff0000;stroke-width:1.5;"/>
    <path clip-path="url(#pc895e886e0)" d="M 707.108946 211.779403 
L 705.526315 205.532601 
" style="fill:none;stroke:#ff0000;stroke-width:1.5;"/>
    <path clip-path="url(#pc895e886e0)" d="M 717.428512 216.315557 
L 718.965005 211.404106 
" style="fill:none;stroke:#ff0000;stroke-width:1.5;"/>
    <path clip-path="url(#pc895e886e0)" d="M 717.428512 216.315557 
L 715.586409 210.127751 
" style="fill:none;stroke:#ff0000;stroke-width:1.5;"/>
    <path clip-path="url(#pc895e886e0)" d="M 729.627776 220.333436 
L 731.434336 215.315249 
" style="fill:none;stroke:#ff0000;stroke-width:1.5;"/>
    <path clip-path="url(#pc895e886e0)" d="M 729.627776 220.333436 
L 727.568484 214.219742 
" style="fill:none;stroke:#ff0000;stroke-width:1.5;"/>
    <path clip-path="url(#pc895e886e0)" d="M 743.40157 223.717183 
L 745.441667 218.583148 
" style="fill:none;stroke:#ff0000;stroke-width:1.5;"/>
    <path clip-path="url(#pc895e886e0)" d="M 743.40157 223.717183 
L 741.169097 217.691961 
" style="fill:none;stroke:#ff0000;stroke-width:1.5;"/>
    <path clip-path="url(#pc895e886e0)" d="M 758.390535 226.366974 
L 760.623823 221.109328 
" style="fill:none;stroke:#ff0000;stroke-width:1.5;"/>
    <path clip-path="url(#pc895e886e0)" d="M 758.390535 226.366974 
L 756.031071 220.443987 
" style="fill:none;stroke:#ff0000;stroke-width:1.5;"/>
    <path clip-path="url(#pc895e886e0)" d="M 774.191582 228.203189 
L 776.572812 222.815434 
" style="fill:none;stroke:#ff0000;stroke-width:1.5;"/>
    <path clip-path="url(#pc895e886e0)" d="M 774.191582 228.203189 
L 771.754325 222.395529 
" style="fill:none;stroke:#ff0000;stroke-width:1.5;"/>
    <path clip-path="url(#pc895e886e0)" d="M 790.371001 229.169907 
L 792.848842 223.646973 
" style="fill:none;stroke:#ff0000;stroke-width:1.5;"/>
    <path clip-path="url(#pc895e886e0)" d="M 790.371001 229.169907 
L 787.909143 223.489649 
" style="fill:none;stroke:#ff0000;stroke-width:1.5;"/>
    <path clip-path="url(#pc895e886e0)" d="M 806.787334 190.054138 
L 809.241723 195.749343 
" style="fill:none;stroke:#ff0000;stroke-width:1.5;"/>
    <path clip-path="url(#pc895e886e0)" d="M 806.787334 190.054138 
L 804.242226 195.865774 
" style="fill:none;stroke:#ff0000;stroke-width:1.5;"/>
    <path clip-path="url(#pc895e886e0)" d="M 822.621202 189.244082 
L 824.976174 194.79648 
" style="fill:none;stroke:#ff0000;stroke-width:1.5;"/>
    <path clip-path="url(#pc895e886e0)" d="M 822.621202 189.244082 
L 820.102877 195.191511 
" style="fill:none;stroke:#ff0000;stroke-width:1.5;"/>
    <path clip-path="url(#pc895e886e0)" d="M 837.488038 187.58333 
L 839.674745 192.989055 
" style="fill:none;stroke:#ff0000;stroke-width:1.5;"/>
    <path clip-path="url(#pc895e886e0)" d="M 837.488038 187.58333 
L 835.070187 193.663032 
" style="fill:none;stroke:#ff0000;stroke-width:1.5;"/>
    <path clip-path="url(#pc895e886e0)" d="M 850.982089 185.122688 
L 852.929373 190.383274 
" style="fill:none;stroke:#ff0000;stroke-width:1.5;"/>
    <path clip-path="url(#pc895e886e0)" d="M 850.982089 185.122688 
L 848.742799 191.326136 
" style="fill:none;stroke:#ff0000;stroke-width:1.5;"/>
    <path clip-path="url(#pc895e886e0)" d="M 862.744673 181.936464 
L 864.383618 187.060101 
" style="fill:none;stroke:#ff0000;stroke-width:1.5;"/>
    <path clip-path="url(#pc895e886e0)" d="M 862.744673 181.936464 
L 860.761585 188.249045 
" style="fill:none;stroke:#ff0000;stroke-width:1.5;"/>
    <path clip-path="url(#pc895e886e0)" d="M 872.475388 178.11917 
L 873.745821 183.121223 
" style="fill:none;stroke:#ff0000;stroke-width:1.5;"/>
    <path clip-path="url(#pc895e886e0)" d="M 872.475388 178.11917 
L 870.818803 184.519821 
" style="fill:none;stroke:#ff0000;stroke-width:1.5;"/>
   </g>
   <g id="line2d_57">
    <path clip-path="url(#pc895e886e0)" d="M 877.934191 194.198302 
L 880.424709 192.347837 
L 882.525066 190.436755 
L 884.22902 188.473478 
L 885.532163 186.466547 
L 886.431889 184.424576 
L 886.927363 182.356214 
L 887.019477 180.270096 
L 886.710798 178.17481 
L 886.005511 176.078856 
L 884.909352 173.990614 
L 883.429544 171.918309 
L 881.574718 169.869984 
L 879.354841 167.853469 
L 876.781137 165.876361 
L 873.866008 163.945999 
L 870.622954 162.069446 
L 867.066491 160.253468 
L 863.212078 158.504525 
L 859.076032 156.82875 
L 854.675458 155.231945 
L 850.028171 153.719567 
L 845.152627 152.296724 
L 837.453085 150.340621 
L 829.349157 148.611057 
L 820.909175 147.120652 
L 812.203088 145.880142 
L 803.30203 144.89836 
L 794.277918 144.182235 
L 785.203071 143.736786 
L 776.149842 143.565117 
L 767.190264 143.668423 
L 758.395697 144.045987 
L 749.836487 144.695176 
L 741.581605 145.61145 
L 733.69829 146.788354 
L 726.251669 148.217527 
L 721.560906 149.305469 
L 717.109976 150.4975 
L 712.916102 151.789741 
L 708.995814 153.177942 
L 705.364892 154.65749 
L 702.038301 156.223413 
L 699.030131 157.870383 
L 696.353525 159.592726 
L 694.020622 161.38443 
L 692.042478 163.239157 
L 690.429008 165.150252 
L 689.188913 167.110762 
L 688.329615 169.113448 
L 687.857188 171.150808 
L 687.776299 173.215096 
L 688.090145 175.298344 
L 688.800394 177.392393 
L 689.907136 179.488917 
L 691.40883 181.579456 
L 693.30227 183.655451 
L 695.582547 185.708281 
L 698.243025 187.729296 
L 701.275323 189.709865 
L 704.669314 191.641414 
L 708.413122 193.515472 
L 712.493145 195.323716 
L 716.894081 197.058017 
L 721.598967 198.710489 
L 726.589237 200.273537 
L 731.844785 201.7399 
L 737.344048 203.102701 
L 743.064097 204.355493 
L 748.980745 205.492297 
L 755.068664 206.507651 
L 764.46381 207.792371 
L 774.092413 208.778831 
L 783.85877 209.456146 
L 793.665127 209.816803 
L 803.412955 209.85679 
L 813.004244 209.575662 
L 822.342806 208.976547 
L 828.381968 208.403621 
L 834.240762 207.695072 
L 839.893608 206.854374 
L 845.316061 205.885626 
L 850.484943 204.793527 
L 855.378458 203.58334 
L 859.976297 202.260856 
L 864.259733 200.832352 
L 868.211696 199.30455 
L 871.81684 197.684572 
L 875.061592 195.979895 
L 877.934191 194.198302 
L 877.934191 194.198302 
" style="fill:none;stroke:#1f77b4;stroke-linecap:square;stroke-width:1.5;"/>
   </g>
   <g id="line2d_58">
    <defs>
     <path d="M 0 3 
C 0.795609 3 1.55874 2.683901 2.12132 2.12132 
C 2.683901 1.55874 3 0.795609 3 0 
C 3 -0.795609 2.683901 -1.55874 2.12132 -2.12132 
C 1.55874 -2.683901 0.795609 -3 0 -3 
C -0.795609 -3 -1.55874 -2.683901 -2.12132 -2.12132 
C -2.683901 -1.55874 -3 -0.795609 -3 0 
C -3 0.795609 -2.683901 1.55874 -2.12132 2.12132 
C -1.55874 2.683901 -0.795609 3 0 3 
z
" id="m0dae80a920" style="stroke:#0000ff;"/>
    </defs>
    <g clip-path="url(#pc895e886e0)">
     <use style="fill:#0000ff;stroke:#0000ff;" x="831.926045" xlink:href="#m0dae80a920" y="184.70995"/>
    </g>
   </g>
  </g>
 </g>
 <defs>
  <clipPath id="p24bce341b9">
   <rect height="271.8" width="380.454545" x="135" y="43.2"/>
  </clipPath>
  <clipPath id="pc895e886e0">
   <rect height="271.8" width="380.454545" x="591.545455" y="43.2"/>
  </clipPath>
 </defs>
</svg>
