<?xml version="1.0" encoding="utf-8" standalone="no"?>
<!DOCTYPE svg PUBLIC "-//W3C//DTD SVG 1.1//EN"
  "http://www.w3.org/Graphics/SVG/1.1/DTD/svg11.dtd">
<!-- Created with matplotlib (http://matplotlib.org/) -->
<svg height="360pt" version="1.1" viewBox="0 0 1080 360" width="1080pt" xmlns="http://www.w3.org/2000/svg" xmlns:xlink="http://www.w3.org/1999/xlink">
 <defs>
  <style type="text/css">
*{stroke-linecap:butt;stroke-linejoin:round;}
  </style>
 </defs>
 <g id="figure_1">
  <g id="patch_1">
   <path d="M 0 360 
L 1080 360 
L 1080 0 
L 0 0 
z
" style="fill:#ffffff;"/>
  </g>
  <g id="axes_1">
   <g id="patch_2">
    <path d="M 135 315 
L 515.454545 315 
L 515.454545 43.2 
L 135 43.2 
z
" style="fill:#ffffff;"/>
   </g>
   <g id="matplotlib.axis_1">
    <g id="xtick_1">
     <g id="line2d_1">
      <path clip-path="url(#p9420e5a943)" d="M 152.293388 315 
L 152.293388 43.2 
" style="fill:none;stroke:#b0b0b0;stroke-linecap:square;stroke-width:0.8;"/>
     </g>
     <g id="line2d_2">
      <defs>
       <path d="M 0 0 
L 0 3.5 
" id="m63fe99e8ac" style="stroke:#000000;stroke-width:0.8;"/>
      </defs>
      <g>
       <use style="stroke:#000000;stroke-width:0.8;" x="152.293388" xlink:href="#m63fe99e8ac" y="315"/>
      </g>
     </g>
     <g id="text_1">
      <!-- 0 -->
      <defs>
       <path d="M 31.78125 66.40625 
Q 24.171875 66.40625 20.328125 58.90625 
Q 16.5 51.421875 16.5 36.375 
Q 16.5 21.390625 20.328125 13.890625 
Q 24.171875 6.390625 31.78125 6.390625 
Q 39.453125 6.390625 43.28125 13.890625 
Q 47.125 21.390625 47.125 36.375 
Q 47.125 51.421875 43.28125 58.90625 
Q 39.453125 66.40625 31.78125 66.40625 
z
M 31.78125 74.21875 
Q 44.046875 74.21875 50.515625 64.515625 
Q 56.984375 54.828125 56.984375 36.375 
Q 56.984375 17.96875 50.515625 8.265625 
Q 44.046875 -1.421875 31.78125 -1.421875 
Q 19.53125 -1.421875 13.0625 8.265625 
Q 6.59375 17.96875 6.59375 36.375 
Q 6.59375 54.828125 13.0625 64.515625 
Q 19.53125 74.21875 31.78125 74.21875 
z
" id="DejaVuSans-30"/>
      </defs>
      <g transform="translate(149.112138 329.598437)scale(0.1 -0.1)">
       <use xlink:href="#DejaVuSans-30"/>
      </g>
     </g>
    </g>
    <g id="xtick_2">
     <g id="line2d_3">
      <path clip-path="url(#p9420e5a943)" d="M 238.760331 315 
L 238.760331 43.2 
" style="fill:none;stroke:#b0b0b0;stroke-linecap:square;stroke-width:0.8;"/>
     </g>
     <g id="line2d_4">
      <g>
       <use style="stroke:#000000;stroke-width:0.8;" x="238.760331" xlink:href="#m63fe99e8ac" y="315"/>
      </g>
     </g>
     <g id="text_2">
      <!-- 90 -->
      <defs>
       <path d="M 10.984375 1.515625 
L 10.984375 10.5 
Q 14.703125 8.734375 18.5 7.8125 
Q 22.3125 6.890625 25.984375 6.890625 
Q 35.75 6.890625 40.890625 13.453125 
Q 46.046875 20.015625 46.78125 33.40625 
Q 43.953125 29.203125 39.59375 26.953125 
Q 35.25 24.703125 29.984375 24.703125 
Q 19.046875 24.703125 12.671875 31.3125 
Q 6.296875 37.9375 6.296875 49.421875 
Q 6.296875 60.640625 12.9375 67.421875 
Q 19.578125 74.21875 30.609375 74.21875 
Q 43.265625 74.21875 49.921875 64.515625 
Q 56.59375 54.828125 56.59375 36.375 
Q 56.59375 19.140625 48.40625 8.859375 
Q 40.234375 -1.421875 26.421875 -1.421875 
Q 22.703125 -1.421875 18.890625 -0.6875 
Q 15.09375 0.046875 10.984375 1.515625 
z
M 30.609375 32.421875 
Q 37.25 32.421875 41.125 36.953125 
Q 45.015625 41.5 45.015625 49.421875 
Q 45.015625 57.28125 41.125 61.84375 
Q 37.25 66.40625 30.609375 66.40625 
Q 23.96875 66.40625 20.09375 61.84375 
Q 16.21875 57.28125 16.21875 49.421875 
Q 16.21875 41.5 20.09375 36.953125 
Q 23.96875 32.421875 30.609375 32.421875 
z
" id="DejaVuSans-39"/>
      </defs>
      <g transform="translate(232.397831 329.598437)scale(0.1 -0.1)">
       <use xlink:href="#DejaVuSans-39"/>
       <use x="63.623047" xlink:href="#DejaVuSans-30"/>
      </g>
     </g>
    </g>
    <g id="xtick_3">
     <g id="line2d_5">
      <path clip-path="url(#p9420e5a943)" d="M 325.227273 315 
L 325.227273 43.2 
" style="fill:none;stroke:#b0b0b0;stroke-linecap:square;stroke-width:0.8;"/>
     </g>
     <g id="line2d_6">
      <g>
       <use style="stroke:#000000;stroke-width:0.8;" x="325.227273" xlink:href="#m63fe99e8ac" y="315"/>
      </g>
     </g>
     <g id="text_3">
      <!-- 180 -->
      <defs>
       <path d="M 12.40625 8.296875 
L 28.515625 8.296875 
L 28.515625 63.921875 
L 10.984375 60.40625 
L 10.984375 69.390625 
L 28.421875 72.90625 
L 38.28125 72.90625 
L 38.28125 8.296875 
L 54.390625 8.296875 
L 54.390625 0 
L 12.40625 0 
z
" id="DejaVuSans-31"/>
       <path d="M 31.78125 34.625 
Q 24.75 34.625 20.71875 30.859375 
Q 16.703125 27.09375 16.703125 20.515625 
Q 16.703125 13.921875 20.71875 10.15625 
Q 24.75 6.390625 31.78125 6.390625 
Q 38.8125 6.390625 42.859375 10.171875 
Q 46.921875 13.96875 46.921875 20.515625 
Q 46.921875 27.09375 42.890625 30.859375 
Q 38.875 34.625 31.78125 34.625 
z
M 21.921875 38.8125 
Q 15.578125 40.375 12.03125 44.71875 
Q 8.5 49.078125 8.5 55.328125 
Q 8.5 64.0625 14.71875 69.140625 
Q 20.953125 74.21875 31.78125 74.21875 
Q 42.671875 74.21875 48.875 69.140625 
Q 55.078125 64.0625 55.078125 55.328125 
Q 55.078125 49.078125 51.53125 44.71875 
Q 48 40.375 41.703125 38.8125 
Q 48.828125 37.15625 52.796875 32.3125 
Q 56.78125 27.484375 56.78125 20.515625 
Q 56.78125 9.90625 50.3125 4.234375 
Q 43.84375 -1.421875 31.78125 -1.421875 
Q 19.734375 -1.421875 13.25 4.234375 
Q 6.78125 9.90625 6.78125 20.515625 
Q 6.78125 27.484375 10.78125 32.3125 
Q 14.796875 37.15625 21.921875 38.8125 
z
M 18.3125 54.390625 
Q 18.3125 48.734375 21.84375 45.5625 
Q 25.390625 42.390625 31.78125 42.390625 
Q 38.140625 42.390625 41.71875 45.5625 
Q 45.3125 48.734375 45.3125 54.390625 
Q 45.3125 60.0625 41.71875 63.234375 
Q 38.140625 66.40625 31.78125 66.40625 
Q 25.390625 66.40625 21.84375 63.234375 
Q 18.3125 60.0625 18.3125 54.390625 
z
" id="DejaVuSans-38"/>
      </defs>
      <g transform="translate(315.683523 329.598437)scale(0.1 -0.1)">
       <use xlink:href="#DejaVuSans-31"/>
       <use x="63.623047" xlink:href="#DejaVuSans-38"/>
       <use x="127.246094" xlink:href="#DejaVuSans-30"/>
      </g>
     </g>
    </g>
    <g id="xtick_4">
     <g id="line2d_7">
      <path clip-path="url(#p9420e5a943)" d="M 411.694215 315 
L 411.694215 43.2 
" style="fill:none;stroke:#b0b0b0;stroke-linecap:square;stroke-width:0.8;"/>
     </g>
     <g id="line2d_8">
      <g>
       <use style="stroke:#000000;stroke-width:0.8;" x="411.694215" xlink:href="#m63fe99e8ac" y="315"/>
      </g>
     </g>
     <g id="text_4">
      <!-- 270 -->
      <defs>
       <path d="M 19.1875 8.296875 
L 53.609375 8.296875 
L 53.609375 0 
L 7.328125 0 
L 7.328125 8.296875 
Q 12.9375 14.109375 22.625 23.890625 
Q 32.328125 33.6875 34.8125 36.53125 
Q 39.546875 41.84375 41.421875 45.53125 
Q 43.3125 49.21875 43.3125 52.78125 
Q 43.3125 58.59375 39.234375 62.25 
Q 35.15625 65.921875 28.609375 65.921875 
Q 23.96875 65.921875 18.8125 64.3125 
Q 13.671875 62.703125 7.8125 59.421875 
L 7.8125 69.390625 
Q 13.765625 71.78125 18.9375 73 
Q 24.125 74.21875 28.421875 74.21875 
Q 39.75 74.21875 46.484375 68.546875 
Q 53.21875 62.890625 53.21875 53.421875 
Q 53.21875 48.921875 51.53125 44.890625 
Q 49.859375 40.875 45.40625 35.40625 
Q 44.1875 33.984375 37.640625 27.21875 
Q 31.109375 20.453125 19.1875 8.296875 
z
" id="DejaVuSans-32"/>
       <path d="M 8.203125 72.90625 
L 55.078125 72.90625 
L 55.078125 68.703125 
L 28.609375 0 
L 18.3125 0 
L 43.21875 64.59375 
L 8.203125 64.59375 
z
" id="DejaVuSans-37"/>
      </defs>
      <g transform="translate(402.150465 329.598437)scale(0.1 -0.1)">
       <use xlink:href="#DejaVuSans-32"/>
       <use x="63.623047" xlink:href="#DejaVuSans-37"/>
       <use x="127.246094" xlink:href="#DejaVuSans-30"/>
      </g>
     </g>
    </g>
    <g id="xtick_5">
     <g id="line2d_9">
      <path clip-path="url(#p9420e5a943)" d="M 498.161157 315 
L 498.161157 43.2 
" style="fill:none;stroke:#b0b0b0;stroke-linecap:square;stroke-width:0.8;"/>
     </g>
     <g id="line2d_10">
      <g>
       <use style="stroke:#000000;stroke-width:0.8;" x="498.161157" xlink:href="#m63fe99e8ac" y="315"/>
      </g>
     </g>
     <g id="text_5">
      <!-- 360 -->
      <defs>
       <path d="M 40.578125 39.3125 
Q 47.65625 37.796875 51.625 33 
Q 55.609375 28.21875 55.609375 21.1875 
Q 55.609375 10.40625 48.1875 4.484375 
Q 40.765625 -1.421875 27.09375 -1.421875 
Q 22.515625 -1.421875 17.65625 -0.515625 
Q 12.796875 0.390625 7.625 2.203125 
L 7.625 11.71875 
Q 11.71875 9.328125 16.59375 8.109375 
Q 21.484375 6.890625 26.8125 6.890625 
Q 36.078125 6.890625 40.9375 10.546875 
Q 45.796875 14.203125 45.796875 21.1875 
Q 45.796875 27.640625 41.28125 31.265625 
Q 36.765625 34.90625 28.71875 34.90625 
L 20.21875 34.90625 
L 20.21875 43.015625 
L 29.109375 43.015625 
Q 36.375 43.015625 40.234375 45.921875 
Q 44.09375 48.828125 44.09375 54.296875 
Q 44.09375 59.90625 40.109375 62.90625 
Q 36.140625 65.921875 28.71875 65.921875 
Q 24.65625 65.921875 20.015625 65.03125 
Q 15.375 64.15625 9.8125 62.3125 
L 9.8125 71.09375 
Q 15.4375 72.65625 20.34375 73.4375 
Q 25.25 74.21875 29.59375 74.21875 
Q 40.828125 74.21875 47.359375 69.109375 
Q 53.90625 64.015625 53.90625 55.328125 
Q 53.90625 49.265625 50.4375 45.09375 
Q 46.96875 40.921875 40.578125 39.3125 
z
" id="DejaVuSans-33"/>
       <path d="M 33.015625 40.375 
Q 26.375 40.375 22.484375 35.828125 
Q 18.609375 31.296875 18.609375 23.390625 
Q 18.609375 15.53125 22.484375 10.953125 
Q 26.375 6.390625 33.015625 6.390625 
Q 39.65625 6.390625 43.53125 10.953125 
Q 47.40625 15.53125 47.40625 23.390625 
Q 47.40625 31.296875 43.53125 35.828125 
Q 39.65625 40.375 33.015625 40.375 
z
M 52.59375 71.296875 
L 52.59375 62.3125 
Q 48.875 64.0625 45.09375 64.984375 
Q 41.3125 65.921875 37.59375 65.921875 
Q 27.828125 65.921875 22.671875 59.328125 
Q 17.53125 52.734375 16.796875 39.40625 
Q 19.671875 43.65625 24.015625 45.921875 
Q 28.375 48.1875 33.59375 48.1875 
Q 44.578125 48.1875 50.953125 41.515625 
Q 57.328125 34.859375 57.328125 23.390625 
Q 57.328125 12.15625 50.6875 5.359375 
Q 44.046875 -1.421875 33.015625 -1.421875 
Q 20.359375 -1.421875 13.671875 8.265625 
Q 6.984375 17.96875 6.984375 36.375 
Q 6.984375 53.65625 15.1875 63.9375 
Q 23.390625 74.21875 37.203125 74.21875 
Q 40.921875 74.21875 44.703125 73.484375 
Q 48.484375 72.75 52.59375 71.296875 
z
" id="DejaVuSans-36"/>
      </defs>
      <g transform="translate(488.617407 329.598437)scale(0.1 -0.1)">
       <use xlink:href="#DejaVuSans-33"/>
       <use x="63.623047" xlink:href="#DejaVuSans-36"/>
       <use x="127.246094" xlink:href="#DejaVuSans-30"/>
      </g>
     </g>
    </g>
    <g id="text_6">
     <!-- $\theta$ [°] -->
     <defs>
      <path d="M 45.515625 34.671875 
L 14.453125 34.671875 
Q 12.359375 20.0625 14.5 13.875 
Q 17.1875 6.25 24.46875 6.25 
Q 31.78125 6.25 37.359375 13.921875 
Q 42.234375 20.65625 45.515625 34.671875 
z
M 47.015625 42.96875 
Q 48.34375 56.84375 46.625 61.71875 
Q 43.953125 69.4375 36.765625 69.4375 
Q 29.296875 69.4375 23.828125 61.8125 
Q 19.53125 55.671875 16.15625 42.96875 
z
M 38.1875 76.765625 
Q 49.90625 76.765625 54.59375 66.40625 
Q 59.28125 56.109375 55.71875 37.84375 
Q 52.203125 19.625 43.453125 9.28125 
Q 34.765625 -1.125 23.046875 -1.125 
Q 11.28125 -1.125 6.640625 9.28125 
Q 2 19.625 5.515625 37.84375 
Q 9.078125 56.109375 17.71875 66.40625 
Q 26.421875 76.765625 38.1875 76.765625 
z
" id="DejaVuSans-Oblique-3b8"/>
      <path id="DejaVuSans-20"/>
      <path d="M 8.59375 75.984375 
L 29.296875 75.984375 
L 29.296875 69 
L 17.578125 69 
L 17.578125 -6.203125 
L 29.296875 -6.203125 
L 29.296875 -13.1875 
L 8.59375 -13.1875 
z
" id="DejaVuSans-5b"/>
      <path d="M 25 67.921875 
Q 21.09375 67.921875 18.40625 65.203125 
Q 15.71875 62.5 15.71875 58.59375 
Q 15.71875 54.734375 18.40625 52.078125 
Q 21.09375 49.421875 25 49.421875 
Q 28.90625 49.421875 31.59375 52.078125 
Q 34.28125 54.734375 34.28125 58.59375 
Q 34.28125 62.453125 31.5625 65.1875 
Q 28.859375 67.921875 25 67.921875 
z
M 25 74.21875 
Q 28.125 74.21875 31 73.015625 
Q 33.890625 71.828125 35.984375 69.578125 
Q 38.234375 67.390625 39.359375 64.59375 
Q 40.484375 61.8125 40.484375 58.59375 
Q 40.484375 52.15625 35.96875 47.6875 
Q 31.453125 43.21875 24.90625 43.21875 
Q 18.3125 43.21875 13.90625 47.609375 
Q 9.515625 52 9.515625 58.59375 
Q 9.515625 65.140625 14 69.671875 
Q 18.5 74.21875 25 74.21875 
z
" id="DejaVuSans-b0"/>
      <path d="M 30.421875 75.984375 
L 30.421875 -13.1875 
L 9.71875 -13.1875 
L 9.71875 -6.203125 
L 21.390625 -6.203125 
L 21.390625 69 
L 9.71875 69 
L 9.71875 75.984375 
z
" id="DejaVuSans-5d"/>
     </defs>
     <g transform="translate(314.177273 343.276563)scale(0.1 -0.1)">
      <use transform="translate(0 0.234375)" xlink:href="#DejaVuSans-Oblique-3b8"/>
      <use transform="translate(61.181641 0.234375)" xlink:href="#DejaVuSans-20"/>
      <use transform="translate(92.96875 0.234375)" xlink:href="#DejaVuSans-5b"/>
      <use transform="translate(131.982422 0.234375)" xlink:href="#DejaVuSans-b0"/>
      <use transform="translate(181.982422 0.234375)" xlink:href="#DejaVuSans-5d"/>
     </g>
    </g>
   </g>
   <g id="matplotlib.axis_2">
    <g id="ytick_1">
     <g id="line2d_11">
      <path clip-path="url(#p9420e5a943)" d="M 135 305.175904 
L 515.454545 305.175904 
" style="fill:none;stroke:#b0b0b0;stroke-linecap:square;stroke-width:0.8;"/>
     </g>
     <g id="line2d_12">
      <defs>
       <path d="M 0 0 
L -3.5 0 
" id="m0f546afed7" style="stroke:#000000;stroke-width:0.8;"/>
      </defs>
      <g>
       <use style="stroke:#000000;stroke-width:0.8;" x="135" xlink:href="#m0f546afed7" y="305.175904"/>
      </g>
     </g>
     <g id="text_7">
      <!-- 0 -->
      <g transform="translate(121.6375 308.975122)scale(0.1 -0.1)">
       <use xlink:href="#DejaVuSans-30"/>
      </g>
     </g>
    </g>
    <g id="ytick_2">
     <g id="line2d_13">
      <path clip-path="url(#p9420e5a943)" d="M 135 239.681928 
L 515.454545 239.681928 
" style="fill:none;stroke:#b0b0b0;stroke-linecap:square;stroke-width:0.8;"/>
     </g>
     <g id="line2d_14">
      <g>
       <use style="stroke:#000000;stroke-width:0.8;" x="135" xlink:href="#m0f546afed7" y="239.681928"/>
      </g>
     </g>
     <g id="text_8">
      <!-- 90 -->
      <g transform="translate(115.275 243.481146)scale(0.1 -0.1)">
       <use xlink:href="#DejaVuSans-39"/>
       <use x="63.623047" xlink:href="#DejaVuSans-30"/>
      </g>
     </g>
    </g>
    <g id="ytick_3">
     <g id="line2d_15">
      <path clip-path="url(#p9420e5a943)" d="M 135 174.187952 
L 515.454545 174.187952 
" style="fill:none;stroke:#b0b0b0;stroke-linecap:square;stroke-width:0.8;"/>
     </g>
     <g id="line2d_16">
      <g>
       <use style="stroke:#000000;stroke-width:0.8;" x="135" xlink:href="#m0f546afed7" y="174.187952"/>
      </g>
     </g>
     <g id="text_9">
      <!-- 180 -->
      <g transform="translate(108.9125 177.987171)scale(0.1 -0.1)">
       <use xlink:href="#DejaVuSans-31"/>
       <use x="63.623047" xlink:href="#DejaVuSans-38"/>
       <use x="127.246094" xlink:href="#DejaVuSans-30"/>
      </g>
     </g>
    </g>
    <g id="ytick_4">
     <g id="line2d_17">
      <path clip-path="url(#p9420e5a943)" d="M 135 108.693976 
L 515.454545 108.693976 
" style="fill:none;stroke:#b0b0b0;stroke-linecap:square;stroke-width:0.8;"/>
     </g>
     <g id="line2d_18">
      <g>
       <use style="stroke:#000000;stroke-width:0.8;" x="135" xlink:href="#m0f546afed7" y="108.693976"/>
      </g>
     </g>
     <g id="text_10">
      <!-- 270 -->
      <g transform="translate(108.9125 112.493195)scale(0.1 -0.1)">
       <use xlink:href="#DejaVuSans-32"/>
       <use x="63.623047" xlink:href="#DejaVuSans-37"/>
       <use x="127.246094" xlink:href="#DejaVuSans-30"/>
      </g>
     </g>
    </g>
    <g id="ytick_5">
     <g id="line2d_19">
      <path clip-path="url(#p9420e5a943)" d="M 135 43.2 
L 515.454545 43.2 
" style="fill:none;stroke:#b0b0b0;stroke-linecap:square;stroke-width:0.8;"/>
     </g>
     <g id="line2d_20">
      <g>
       <use style="stroke:#000000;stroke-width:0.8;" x="135" xlink:href="#m0f546afed7" y="43.2"/>
      </g>
     </g>
     <g id="text_11">
      <!-- 360 -->
      <g transform="translate(108.9125 46.999219)scale(0.1 -0.1)">
       <use xlink:href="#DejaVuSans-33"/>
       <use x="63.623047" xlink:href="#DejaVuSans-36"/>
       <use x="127.246094" xlink:href="#DejaVuSans-30"/>
      </g>
     </g>
    </g>
    <g id="text_12">
     <!-- $\alpha/\beta$ [°] -->
     <defs>
      <path d="M 40.921875 25.4375 
L 40.96875 36.71875 
Q 41.015625 48.25 32.328125 48.296875 
Q 25.828125 48.34375 21.78125 42.921875 
Q 16.703125 36.234375 14.984375 27.296875 
Q 12.890625 16.546875 15.53125 11.421875 
Q 18.265625 6.203125 24.171875 6.203125 
Q 30.71875 6.203125 36.234375 16.609375 
z
M 33.84375 55.90625 
Q 49.078125 56.15625 48.875 40.375 
Q 48.875 40.375 56.5 54.6875 
L 64.5 54.6875 
L 48.734375 25.046875 
L 48.578125 14.359375 
Q 48.578125 11.96875 49.90625 9.96875 
Q 51.421875 7.625 52.984375 7.625 
L 57.328125 7.625 
L 55.859375 0 
L 50.4375 0 
Q 45.84375 0 42.53125 4.109375 
Q 40.96875 6.15625 40.921875 10.453125 
Q 37.75 5.21875 32.28125 0.78125 
Q 29.6875 -1.265625 22.703125 -1.21875 
Q 11.28125 -1.125 7.125 6.203125 
Q 2.875 13.8125 5.515625 27.296875 
Q 8.34375 41.796875 15.765625 48.390625 
Q 24.125 55.765625 33.84375 55.90625 
z
" id="DejaVuSans-Oblique-3b1"/>
      <path d="M 25.390625 72.90625 
L 33.6875 72.90625 
L 8.296875 -9.28125 
L 0 -9.28125 
z
" id="DejaVuSans-2f"/>
      <path d="M 13.625 3.375 
L 8.9375 -20.796875 
L -0.09375 -20.796875 
L 14.5 54.34375 
Q 18.84375 76.609375 39.65625 76.609375 
Q 60.75 76.609375 57.171875 57.8125 
Q 54.734375 44.4375 45.21875 39.546875 
Q 58.015625 35.15625 55.515625 22.125 
Q 51.125 -1.078125 27.484375 -1.03125 
Q 17.140625 -0.984375 13.625 3.375 
z
M 15.921875 15.09375 
Q 19.671875 6.59375 29.296875 6.640625 
Q 43.359375 6.640625 46.34375 21.96875 
Q 49.03125 35.75 26.171875 34.671875 
L 27.78125 42.96875 
Q 45.453125 42.671875 48.53125 58.59375 
Q 50.640625 69.34375 39.203125 69.28125 
Q 26.421875 69.28125 23.484375 54.046875 
z
" id="DejaVuSans-Oblique-3b2"/>
     </defs>
     <g transform="translate(102.8125 195.3)rotate(-90)scale(0.1 -0.1)">
      <use transform="translate(0 0.390625)" xlink:href="#DejaVuSans-Oblique-3b1"/>
      <use transform="translate(65.917969 0.390625)" xlink:href="#DejaVuSans-2f"/>
      <use transform="translate(99.609375 0.390625)" xlink:href="#DejaVuSans-Oblique-3b2"/>
      <use transform="translate(163.427734 0.390625)" xlink:href="#DejaVuSans-20"/>
      <use transform="translate(195.214844 0.390625)" xlink:href="#DejaVuSans-5b"/>
      <use transform="translate(234.228516 0.390625)" xlink:href="#DejaVuSans-b0"/>
      <use transform="translate(284.228516 0.390625)" xlink:href="#DejaVuSans-5d"/>
     </g>
    </g>
   </g>
   <g id="line2d_21">
    <path clip-path="url(#p9420e5a943)" d="M 152.293388 305.175904 
L 498.161157 305.175904 
L 498.161157 305.175904 
" style="fill:none;stroke:#1f77b4;stroke-linecap:square;stroke-width:1.5;"/>
   </g>
   <g id="line2d_22">
    <path clip-path="url(#p9420e5a943)" d="M 152.293388 305.175904 
L 155.303243 239.681928 
L 324.72554 239.681928 
L 325.729005 108.693976 
L 498.161157 108.693976 
L 498.161157 108.693976 
" style="fill:none;stroke:#ff7f0e;stroke-linecap:square;stroke-width:1.5;"/>
   </g>
   <g id="patch_3">
    <path d="M 135 315 
L 135 43.2 
" style="fill:none;stroke:#000000;stroke-linecap:square;stroke-linejoin:miter;stroke-width:0.8;"/>
   </g>
   <g id="patch_4">
    <path d="M 515.454545 315 
L 515.454545 43.2 
" style="fill:none;stroke:#000000;stroke-linecap:square;stroke-linejoin:miter;stroke-width:0.8;"/>
   </g>
   <g id="patch_5">
    <path d="M 135 315 
L 515.454545 315 
" style="fill:none;stroke:#000000;stroke-linecap:square;stroke-linejoin:miter;stroke-width:0.8;"/>
   </g>
   <g id="patch_6">
    <path d="M 135 43.2 
L 515.454545 43.2 
" style="fill:none;stroke:#000000;stroke-linecap:square;stroke-linejoin:miter;stroke-width:0.8;"/>
   </g>
   <g id="text_13">
    <!-- RAAN ($\Omega$) -->
    <defs>
     <path d="M 44.390625 34.1875 
Q 47.5625 33.109375 50.5625 29.59375 
Q 53.5625 26.078125 56.59375 19.921875 
L 66.609375 0 
L 56 0 
L 46.6875 18.703125 
Q 43.0625 26.03125 39.671875 28.421875 
Q 36.28125 30.8125 30.421875 30.8125 
L 19.671875 30.8125 
L 19.671875 0 
L 9.8125 0 
L 9.8125 72.90625 
L 32.078125 72.90625 
Q 44.578125 72.90625 50.734375 67.671875 
Q 56.890625 62.453125 56.890625 51.90625 
Q 56.890625 45.015625 53.6875 40.46875 
Q 50.484375 35.9375 44.390625 34.1875 
z
M 19.671875 64.796875 
L 19.671875 38.921875 
L 32.078125 38.921875 
Q 39.203125 38.921875 42.84375 42.21875 
Q 46.484375 45.515625 46.484375 51.90625 
Q 46.484375 58.296875 42.84375 61.546875 
Q 39.203125 64.796875 32.078125 64.796875 
z
" id="DejaVuSans-52"/>
     <path d="M 34.1875 63.1875 
L 20.796875 26.90625 
L 47.609375 26.90625 
z
M 28.609375 72.90625 
L 39.796875 72.90625 
L 67.578125 0 
L 57.328125 0 
L 50.6875 18.703125 
L 17.828125 18.703125 
L 11.1875 0 
L 0.78125 0 
z
" id="DejaVuSans-41"/>
     <path d="M 9.8125 72.90625 
L 23.09375 72.90625 
L 55.421875 11.921875 
L 55.421875 72.90625 
L 64.984375 72.90625 
L 64.984375 0 
L 51.703125 0 
L 19.390625 60.984375 
L 19.390625 0 
L 9.8125 0 
z
" id="DejaVuSans-4e"/>
     <path d="M 31 75.875 
Q 24.46875 64.65625 21.28125 53.65625 
Q 18.109375 42.671875 18.109375 31.390625 
Q 18.109375 20.125 21.3125 9.0625 
Q 24.515625 -2 31 -13.1875 
L 23.1875 -13.1875 
Q 15.875 -1.703125 12.234375 9.375 
Q 8.59375 20.453125 8.59375 31.390625 
Q 8.59375 42.28125 12.203125 53.3125 
Q 15.828125 64.359375 23.1875 75.875 
z
" id="DejaVuSans-28"/>
     <path d="M 72.609375 8.6875 
L 72.609375 0 
L 43.3125 0 
L 43.3125 8.6875 
Q 51.953125 13.421875 56.78125 21.53125 
Q 61.625 29.640625 61.625 39.5 
Q 61.625 51.21875 55.171875 58.296875 
Q 48.734375 65.375 38.1875 65.375 
Q 27.640625 65.375 21.171875 58.265625 
Q 14.703125 51.171875 14.703125 39.5 
Q 14.703125 29.640625 19.53125 21.53125 
Q 24.421875 13.421875 33.109375 8.6875 
L 33.109375 0 
L 3.8125 0 
L 3.8125 8.6875 
L 19.390625 8.6875 
Q 11.671875 15.484375 8.109375 22.75 
Q 4.59375 30.03125 4.59375 39.015625 
Q 4.59375 54.546875 13.96875 64.15625 
Q 23.296875 73.78125 38.1875 73.78125 
Q 52.984375 73.78125 62.40625 64.15625 
Q 71.78125 54.59375 71.78125 39.5 
Q 71.78125 30.03125 68.3125 22.796875 
Q 64.84375 15.578125 56.984375 8.6875 
z
" id="DejaVuSans-3a9"/>
     <path d="M 8.015625 75.875 
L 15.828125 75.875 
Q 23.140625 64.359375 26.78125 53.3125 
Q 30.421875 42.28125 30.421875 31.390625 
Q 30.421875 20.453125 26.78125 9.375 
Q 23.140625 -1.703125 15.828125 -13.1875 
L 8.015625 -13.1875 
Q 14.5 -2 17.703125 9.0625 
Q 20.90625 20.125 20.90625 31.390625 
Q 20.90625 42.671875 17.703125 53.65625 
Q 14.5 64.65625 8.015625 75.875 
z
" id="DejaVuSans-29"/>
    </defs>
    <g transform="translate(297.147273 37.2)scale(0.12 -0.12)">
     <use transform="translate(0 0.125)" xlink:href="#DejaVuSans-52"/>
     <use transform="translate(69.482422 0.125)" xlink:href="#DejaVuSans-41"/>
     <use transform="translate(137.890625 0.125)" xlink:href="#DejaVuSans-41"/>
     <use transform="translate(206.298828 0.125)" xlink:href="#DejaVuSans-4e"/>
     <use transform="translate(281.103516 0.125)" xlink:href="#DejaVuSans-20"/>
     <use transform="translate(312.890625 0.125)" xlink:href="#DejaVuSans-28"/>
     <use transform="translate(351.904297 0.125)" xlink:href="#DejaVuSans-3a9"/>
     <use transform="translate(428.320312 0.125)" xlink:href="#DejaVuSans-29"/>
    </g>
   </g>
   <g id="legend_1">
    <g id="patch_7">
     <path d="M 469.854545 80.678125 
L 508.454545 80.678125 
Q 510.454545 80.678125 510.454545 78.678125 
L 510.454545 50.2 
Q 510.454545 48.2 508.454545 48.2 
L 469.854545 48.2 
Q 467.854545 48.2 467.854545 50.2 
L 467.854545 78.678125 
Q 467.854545 80.678125 469.854545 80.678125 
z
" style="fill:#ffffff;opacity:0.8;stroke:#cccccc;stroke-linejoin:miter;"/>
    </g>
    <g id="line2d_23">
     <path d="M 471.854545 56.298438 
L 491.854545 56.298438 
" style="fill:none;stroke:#1f77b4;stroke-linecap:square;stroke-width:1.5;"/>
    </g>
    <g id="line2d_24"/>
    <g id="text_14">
     <!-- $\alpha$ -->
     <g transform="translate(499.854545 59.798438)scale(0.1 -0.1)">
      <use transform="translate(0 0.84375)" xlink:href="#DejaVuSans-Oblique-3b1"/>
     </g>
    </g>
    <g id="line2d_25">
     <path d="M 471.854545 71.078125 
L 491.854545 71.078125 
" style="fill:none;stroke:#ff7f0e;stroke-linecap:square;stroke-width:1.5;"/>
    </g>
    <g id="line2d_26"/>
    <g id="text_15">
     <!-- $\beta$ -->
     <g transform="translate(499.854545 74.578125)scale(0.1 -0.1)">
      <use transform="translate(0 0.390625)" xlink:href="#DejaVuSans-Oblique-3b2"/>
     </g>
    </g>
   </g>
  </g>
  <g id="patch_8">
   <path d="M 591.545455 315 
L 972 315 
L 972 43.2 
L 591.545455 43.2 
z
" style="fill:#ffffff;"/>
  </g>
  <g id="pane3d_1">
   <g id="patch_9">
    <path d="M 641.980584 254.941779 
L 750.868665 188.302577 
L 749.055794 60.966001 
L 634.096488 120.839953 
" style="fill:#f2f2f2;opacity:0.5;stroke:#f2f2f2;stroke-linejoin:miter;"/>
   </g>
  </g>
  <g id="pane3d_2">
   <g id="patch_10">
    <path d="M 750.868665 188.302577 
L 927.25712 225.558191 
L 934.637001 94.381832 
L 749.055794 60.966001 
" style="fill:#e6e6e6;opacity:0.5;stroke:#e6e6e6;stroke-linejoin:miter;"/>
   </g>
  </g>
  <g id="pane3d_3">
   <g id="patch_11">
    <path d="M 641.980584 254.941779 
L 827.565072 298.332012 
L 927.25712 225.558191 
L 750.868665 188.302577 
" style="fill:#ececec;opacity:0.5;stroke:#ececec;stroke-linejoin:miter;"/>
   </g>
  </g>
  <g id="axis3d_1">
   <g id="line2d_27">
    <path d="M 641.980584 254.941779 
L 827.565072 298.332012 
" style="fill:none;stroke:#000000;stroke-linecap:square;stroke-width:0.8;"/>
   </g>
   <g id="text_16">
    <!-- x -->
    <defs>
     <path d="M 54.890625 54.6875 
L 35.109375 28.078125 
L 55.90625 0 
L 45.3125 0 
L 29.390625 21.484375 
L 13.484375 0 
L 2.875 0 
L 24.125 28.609375 
L 4.6875 54.6875 
L 15.28125 54.6875 
L 29.78125 35.203125 
L 44.28125 54.6875 
z
" id="DejaVuSans-78"/>
    </defs>
    <g transform="translate(713.4467 309.055325)scale(0.1 -0.1)">
     <use xlink:href="#DejaVuSans-78"/>
    </g>
   </g>
   <g id="Line3DCollection_1">
    <path d="M 645.529608 255.771552 
L 754.252943 189.017383 
L 752.60885 61.605765 
" style="fill:none;stroke:#b0b0b0;stroke-width:0.8;"/>
    <path d="M 666.95779 260.781528 
L 774.677193 193.331259 
L 774.057977 65.467904 
" style="fill:none;stroke:#b0b0b0;stroke-width:0.8;"/>
    <path d="M 688.61845 265.845858 
L 795.306939 197.688538 
L 795.73389 69.370879 
" style="fill:none;stroke:#b0b0b0;stroke-width:0.8;"/>
    <path d="M 710.51539 270.965431 
L 816.145297 202.08988 
L 817.640204 73.315339 
" style="fill:none;stroke:#b0b0b0;stroke-width:0.8;"/>
    <path d="M 732.652499 276.141156 
L 837.195449 206.535955 
L 839.780613 77.30195 
" style="fill:none;stroke:#b0b0b0;stroke-width:0.8;"/>
    <path d="M 755.03375 281.373962 
L 858.460639 211.027449 
L 862.158889 81.331392 
" style="fill:none;stroke:#b0b0b0;stroke-width:0.8;"/>
    <path d="M 777.663204 286.664799 
L 879.94418 215.565062 
L 884.778887 85.404359 
" style="fill:none;stroke:#b0b0b0;stroke-width:0.8;"/>
    <path d="M 800.545012 292.014637 
L 901.649452 220.149507 
L 907.644543 89.521559 
" style="fill:none;stroke:#b0b0b0;stroke-width:0.8;"/>
    <path d="M 823.68342 297.424469 
L 923.579905 224.781514 
L 930.759883 93.683716 
" style="fill:none;stroke:#b0b0b0;stroke-width:0.8;"/>
   </g>
   <g id="xtick_6">
    <g id="line2d_28">
     <path d="M 646.466185 255.19651 
L 643.652967 256.923775 
" style="fill:none;stroke:#000000;stroke-linecap:square;stroke-width:0.8;"/>
    </g>
    <g id="text_17">
     <!-- −1.50 -->
     <defs>
      <path d="M 10.59375 35.5 
L 73.1875 35.5 
L 73.1875 27.203125 
L 10.59375 27.203125 
z
" id="DejaVuSans-2212"/>
      <path d="M 10.6875 12.40625 
L 21 12.40625 
L 21 0 
L 10.6875 0 
z
" id="DejaVuSans-2e"/>
      <path d="M 10.796875 72.90625 
L 49.515625 72.90625 
L 49.515625 64.59375 
L 19.828125 64.59375 
L 19.828125 46.734375 
Q 21.96875 47.46875 24.109375 47.828125 
Q 26.265625 48.1875 28.421875 48.1875 
Q 40.625 48.1875 47.75 41.5 
Q 54.890625 34.8125 54.890625 23.390625 
Q 54.890625 11.625 47.5625 5.09375 
Q 40.234375 -1.421875 26.90625 -1.421875 
Q 22.3125 -1.421875 17.546875 -0.640625 
Q 12.796875 0.140625 7.71875 1.703125 
L 7.71875 11.625 
Q 12.109375 9.234375 16.796875 8.0625 
Q 21.484375 6.890625 26.703125 6.890625 
Q 35.15625 6.890625 40.078125 11.328125 
Q 45.015625 15.765625 45.015625 23.390625 
Q 45.015625 31 40.078125 35.4375 
Q 35.15625 39.890625 26.703125 39.890625 
Q 22.75 39.890625 18.8125 39.015625 
Q 14.890625 38.140625 10.796875 36.28125 
z
" id="DejaVuSans-35"/>
     </defs>
     <g transform="translate(622.757098 276.878739)scale(0.1 -0.1)">
      <use xlink:href="#DejaVuSans-2212"/>
      <use x="83.789062" xlink:href="#DejaVuSans-31"/>
      <use x="147.412109" xlink:href="#DejaVuSans-2e"/>
      <use x="179.199219" xlink:href="#DejaVuSans-35"/>
      <use x="242.822266" xlink:href="#DejaVuSans-30"/>
     </g>
    </g>
   </g>
   <g id="xtick_7">
    <g id="line2d_29">
     <path d="M 667.886076 260.200266 
L 665.097745 261.946226 
" style="fill:none;stroke:#000000;stroke-linecap:square;stroke-width:0.8;"/>
    </g>
    <g id="text_18">
     <!-- −1.25 -->
     <g transform="translate(644.182741 281.970547)scale(0.1 -0.1)">
      <use xlink:href="#DejaVuSans-2212"/>
      <use x="83.789062" xlink:href="#DejaVuSans-31"/>
      <use x="147.412109" xlink:href="#DejaVuSans-2e"/>
      <use x="179.199219" xlink:href="#DejaVuSans-32"/>
      <use x="242.822266" xlink:href="#DejaVuSans-35"/>
     </g>
    </g>
   </g>
   <g id="xtick_8">
    <g id="line2d_30">
     <path d="M 689.538208 265.258275 
L 686.775471 267.023234 
" style="fill:none;stroke:#000000;stroke-linecap:square;stroke-width:0.8;"/>
    </g>
    <g id="text_19">
     <!-- −1.00 -->
     <g transform="translate(665.841245 287.117695)scale(0.1 -0.1)">
      <use xlink:href="#DejaVuSans-2212"/>
      <use x="83.789062" xlink:href="#DejaVuSans-31"/>
      <use x="147.412109" xlink:href="#DejaVuSans-2e"/>
      <use x="179.199219" xlink:href="#DejaVuSans-30"/>
      <use x="242.822266" xlink:href="#DejaVuSans-30"/>
     </g>
    </g>
   </g>
   <g id="xtick_9">
    <g id="line2d_31">
     <path d="M 711.426381 270.371423 
L 708.689963 272.155693 
" style="fill:none;stroke:#000000;stroke-linecap:square;stroke-width:0.8;"/>
    </g>
    <g id="text_20">
     <!-- −0.75 -->
     <g transform="translate(687.736427 292.32109)scale(0.1 -0.1)">
      <use xlink:href="#DejaVuSans-2212"/>
      <use x="83.789062" xlink:href="#DejaVuSans-30"/>
      <use x="147.412109" xlink:href="#DejaVuSans-2e"/>
      <use x="179.199219" xlink:href="#DejaVuSans-37"/>
      <use x="242.822266" xlink:href="#DejaVuSans-35"/>
     </g>
    </g>
   </g>
   <g id="xtick_10">
    <g id="line2d_32">
     <path d="M 733.554473 275.540617 
L 730.845121 277.344517 
" style="fill:none;stroke:#000000;stroke-linecap:square;stroke-width:0.8;"/>
    </g>
    <g id="text_21">
     <!-- −0.50 -->
     <g transform="translate(709.872188 297.581658)scale(0.1 -0.1)">
      <use xlink:href="#DejaVuSans-2212"/>
      <use x="83.789062" xlink:href="#DejaVuSans-30"/>
      <use x="147.412109" xlink:href="#DejaVuSans-2e"/>
      <use x="179.199219" xlink:href="#DejaVuSans-35"/>
      <use x="242.822266" xlink:href="#DejaVuSans-30"/>
     </g>
    </g>
   </g>
   <g id="xtick_11">
    <g id="line2d_33">
     <path d="M 755.926453 280.766784 
L 753.244931 282.59064 
" style="fill:none;stroke:#000000;stroke-linecap:square;stroke-width:0.8;"/>
    </g>
    <g id="text_22">
     <!-- −0.25 -->
     <g transform="translate(732.252515 302.900347)scale(0.1 -0.1)">
      <use xlink:href="#DejaVuSans-2212"/>
      <use x="83.789062" xlink:href="#DejaVuSans-30"/>
      <use x="147.412109" xlink:href="#DejaVuSans-2e"/>
      <use x="179.199219" xlink:href="#DejaVuSans-32"/>
      <use x="242.822266" xlink:href="#DejaVuSans-35"/>
     </g>
    </g>
   </g>
   <g id="xtick_12">
    <g id="line2d_34">
     <path d="M 778.546374 286.050871 
L 775.893468 287.895016 
" style="fill:none;stroke:#000000;stroke-linecap:square;stroke-width:0.8;"/>
    </g>
    <g id="text_23">
     <!-- 0.00 -->
     <g transform="translate(759.071328 308.278126)scale(0.1 -0.1)">
      <use xlink:href="#DejaVuSans-30"/>
      <use x="63.623047" xlink:href="#DejaVuSans-2e"/>
      <use x="95.410156" xlink:href="#DejaVuSans-30"/>
      <use x="159.033203" xlink:href="#DejaVuSans-30"/>
     </g>
    </g>
   </g>
   <g id="xtick_13">
    <g id="line2d_35">
     <path d="M 801.41838 291.393846 
L 798.794898 293.25862 
" style="fill:none;stroke:#000000;stroke-linecap:square;stroke-width:0.8;"/>
    </g>
    <g id="text_24">
     <!-- 0.25 -->
     <g transform="translate(781.953105 313.715985)scale(0.1 -0.1)">
      <use xlink:href="#DejaVuSans-30"/>
      <use x="63.623047" xlink:href="#DejaVuSans-2e"/>
      <use x="95.410156" xlink:href="#DejaVuSans-32"/>
      <use x="159.033203" xlink:href="#DejaVuSans-35"/>
     </g>
    </g>
   </g>
   <g id="xtick_14">
    <g id="line2d_36">
     <path d="M 824.546711 296.7967 
L 821.953481 298.682451 
" style="fill:none;stroke:#000000;stroke-linecap:square;stroke-width:0.8;"/>
    </g>
    <g id="text_25">
     <!-- 0.50 -->
     <g transform="translate(805.091951 319.214937)scale(0.1 -0.1)">
      <use xlink:href="#DejaVuSans-30"/>
      <use x="63.623047" xlink:href="#DejaVuSans-2e"/>
      <use x="95.410156" xlink:href="#DejaVuSans-35"/>
      <use x="159.033203" xlink:href="#DejaVuSans-30"/>
     </g>
    </g>
   </g>
  </g>
  <g id="axis3d_2">
   <g id="line2d_37">
    <path d="M 927.25712 225.558191 
L 827.565072 298.332012 
" style="fill:none;stroke:#000000;stroke-linecap:square;stroke-width:0.8;"/>
   </g>
   <g id="text_26">
    <!-- y -->
    <defs>
     <path d="M 32.171875 -5.078125 
Q 28.375 -14.84375 24.75 -17.8125 
Q 21.140625 -20.796875 15.09375 -20.796875 
L 7.90625 -20.796875 
L 7.90625 -13.28125 
L 13.1875 -13.28125 
Q 16.890625 -13.28125 18.9375 -11.515625 
Q 21 -9.765625 23.484375 -3.21875 
L 25.09375 0.875 
L 2.984375 54.6875 
L 12.5 54.6875 
L 29.59375 11.921875 
L 46.6875 54.6875 
L 56.203125 54.6875 
z
" id="DejaVuSans-79"/>
    </defs>
    <g transform="translate(903.47995 288.226265)scale(0.1 -0.1)">
     <use xlink:href="#DejaVuSans-79"/>
    </g>
   </g>
   <g id="Line3DCollection_2">
    <path d="M 636.57923 119.546873 
L 644.323251 253.508073 
L 829.716941 296.761177 
" style="fill:none;stroke:#b0b0b0;stroke-width:0.8;"/>
    <path d="M 651.307428 111.876024 
L 658.228599 244.998039 
L 842.483372 287.441858 
" style="fill:none;stroke:#b0b0b0;stroke-width:0.8;"/>
    <path d="M 665.753192 104.352275 
L 671.880777 236.642944 
L 855.006723 278.299984 
" style="fill:none;stroke:#b0b0b0;stroke-width:0.8;"/>
    <path d="M 679.924569 96.971435 
L 685.286638 228.438595 
L 867.293871 269.330536 
" style="fill:none;stroke:#b0b0b0;stroke-width:0.8;"/>
    <path d="M 693.829301 89.729469 
L 698.452787 220.380948 
L 879.351436 260.52868 
" style="fill:none;stroke:#b0b0b0;stroke-width:0.8;"/>
    <path d="M 707.474846 82.622496 
L 711.385598 212.466104 
L 891.185793 251.889762 
" style="fill:none;stroke:#b0b0b0;stroke-width:0.8;"/>
    <path d="M 720.868382 75.646776 
L 724.091218 204.6903 
L 902.803083 243.409301 
" style="fill:none;stroke:#b0b0b0;stroke-width:0.8;"/>
    <path d="M 734.016828 68.798706 
L 736.575583 197.049904 
L 914.209225 235.082975 
" style="fill:none;stroke:#b0b0b0;stroke-width:0.8;"/>
    <path d="M 746.926849 62.074813 
L 748.844421 189.541409 
L 925.409921 226.906621 
" style="fill:none;stroke:#b0b0b0;stroke-width:0.8;"/>
   </g>
   <g id="xtick_15">
    <g id="line2d_38">
     <path d="M 828.165118 296.39913 
L 832.824068 297.486082 
" style="fill:none;stroke:#000000;stroke-linecap:square;stroke-width:0.8;"/>
    </g>
    <g id="text_27">
     <!-- −1.00 -->
     <g transform="translate(827.369607 316.265175)scale(0.1 -0.1)">
      <use xlink:href="#DejaVuSans-2212"/>
      <use x="83.789062" xlink:href="#DejaVuSans-31"/>
      <use x="147.412109" xlink:href="#DejaVuSans-2e"/>
      <use x="179.199219" xlink:href="#DejaVuSans-30"/>
      <use x="242.822266" xlink:href="#DejaVuSans-30"/>
     </g>
    </g>
   </g>
   <g id="xtick_16">
    <g id="line2d_39">
     <path d="M 840.941738 287.086736 
L 845.570066 288.15289 
" style="fill:none;stroke:#000000;stroke-linecap:square;stroke-width:0.8;"/>
    </g>
    <g id="text_28">
     <!-- −0.75 -->
     <g transform="translate(840.005202 306.83599)scale(0.1 -0.1)">
      <use xlink:href="#DejaVuSans-2212"/>
      <use x="83.789062" xlink:href="#DejaVuSans-30"/>
      <use x="147.412109" xlink:href="#DejaVuSans-2e"/>
      <use x="179.199219" xlink:href="#DejaVuSans-37"/>
      <use x="242.822266" xlink:href="#DejaVuSans-35"/>
     </g>
    </g>
   </g>
   <g id="xtick_17">
    <g id="line2d_40">
     <path d="M 853.475173 277.951591 
L 858.073194 278.997537 
" style="fill:none;stroke:#000000;stroke-linecap:square;stroke-width:0.8;"/>
    </g>
    <g id="text_29">
     <!-- −0.50 -->
     <g transform="translate(852.400324 297.586255)scale(0.1 -0.1)">
      <use xlink:href="#DejaVuSans-2212"/>
      <use x="83.789062" xlink:href="#DejaVuSans-30"/>
      <use x="147.412109" xlink:href="#DejaVuSans-2e"/>
      <use x="179.199219" xlink:href="#DejaVuSans-35"/>
      <use x="242.822266" xlink:href="#DejaVuSans-30"/>
     </g>
    </g>
   </g>
   <g id="xtick_18">
    <g id="line2d_41">
     <path d="M 865.772301 268.988681 
L 870.340329 270.01499 
" style="fill:none;stroke:#000000;stroke-linecap:square;stroke-width:0.8;"/>
    </g>
    <g id="text_30">
     <!-- −0.25 -->
     <g transform="translate(864.561772 288.510897)scale(0.1 -0.1)">
      <use xlink:href="#DejaVuSans-2212"/>
      <use x="83.789062" xlink:href="#DejaVuSans-30"/>
      <use x="147.412109" xlink:href="#DejaVuSans-2e"/>
      <use x="179.199219" xlink:href="#DejaVuSans-32"/>
      <use x="242.822266" xlink:href="#DejaVuSans-35"/>
     </g>
    </g>
   </g>
   <g id="xtick_19">
    <g id="line2d_42">
     <path d="M 877.839742 260.193182 
L 882.37809 261.2004 
" style="fill:none;stroke:#000000;stroke-linecap:square;stroke-width:0.8;"/>
    </g>
    <g id="text_31">
     <!-- 0.00 -->
     <g transform="translate(880.685936 279.605031)scale(0.1 -0.1)">
      <use xlink:href="#DejaVuSans-30"/>
      <use x="63.623047" xlink:href="#DejaVuSans-2e"/>
      <use x="95.410156" xlink:href="#DejaVuSans-30"/>
      <use x="159.033203" xlink:href="#DejaVuSans-30"/>
     </g>
    </g>
   </g>
   <g id="xtick_20">
    <g id="line2d_43">
     <path d="M 889.683871 251.560445 
L 894.192851 252.549101 
" style="fill:none;stroke:#000000;stroke-linecap:square;stroke-width:0.8;"/>
    </g>
    <g id="text_32">
     <!-- 0.25 -->
     <g transform="translate(892.399433 270.863951)scale(0.1 -0.1)">
      <use xlink:href="#DejaVuSans-30"/>
      <use x="63.623047" xlink:href="#DejaVuSans-2e"/>
      <use x="95.410156" xlink:href="#DejaVuSans-32"/>
      <use x="159.033203" xlink:href="#DejaVuSans-35"/>
     </g>
    </g>
   </g>
   <g id="xtick_21">
    <g id="line2d_44">
     <path d="M 901.310831 243.085995 
L 905.790751 244.056597 
" style="fill:none;stroke:#000000;stroke-linecap:square;stroke-width:0.8;"/>
    </g>
    <g id="text_33">
     <!-- 0.50 -->
     <g transform="translate(903.898179 262.283128)scale(0.1 -0.1)">
      <use xlink:href="#DejaVuSans-30"/>
      <use x="63.623047" xlink:href="#DejaVuSans-2e"/>
      <use x="95.410156" xlink:href="#DejaVuSans-35"/>
      <use x="159.033203" xlink:href="#DejaVuSans-30"/>
     </g>
    </g>
   </g>
   <g id="xtick_22">
    <g id="line2d_45">
     <path d="M 912.72654 234.765518 
L 917.177707 235.718555 
" style="fill:none;stroke:#000000;stroke-linecap:square;stroke-width:0.8;"/>
    </g>
    <g id="text_34">
     <!-- 0.75 -->
     <g transform="translate(915.188026 253.858193)scale(0.1 -0.1)">
      <use xlink:href="#DejaVuSans-30"/>
      <use x="63.623047" xlink:href="#DejaVuSans-2e"/>
      <use x="95.410156" xlink:href="#DejaVuSans-37"/>
      <use x="159.033203" xlink:href="#DejaVuSans-35"/>
     </g>
    </g>
   </g>
   <g id="xtick_23">
    <g id="line2d_46">
     <path d="M 923.936704 226.594855 
L 928.359422 227.530801 
" style="fill:none;stroke:#000000;stroke-linecap:square;stroke-width:0.8;"/>
    </g>
    <g id="text_35">
     <!-- 1.00 -->
     <g transform="translate(926.274616 245.584937)scale(0.1 -0.1)">
      <use xlink:href="#DejaVuSans-31"/>
      <use x="63.623047" xlink:href="#DejaVuSans-2e"/>
      <use x="95.410156" xlink:href="#DejaVuSans-30"/>
      <use x="159.033203" xlink:href="#DejaVuSans-30"/>
     </g>
    </g>
   </g>
  </g>
  <g id="axis3d_3">
   <g id="line2d_47">
    <path d="M 927.25712 225.558191 
L 934.637001 94.381832 
" style="fill:none;stroke:#000000;stroke-linecap:square;stroke-width:0.8;"/>
   </g>
   <g id="text_36">
    <!-- z -->
    <defs>
     <path d="M 5.515625 54.6875 
L 48.1875 54.6875 
L 48.1875 46.484375 
L 14.40625 7.171875 
L 48.1875 7.171875 
L 48.1875 0 
L 4.296875 0 
L 4.296875 8.203125 
L 38.09375 47.515625 
L 5.515625 47.515625 
z
" id="DejaVuSans-7a"/>
    </defs>
    <g transform="translate(969.712081 160.439151)scale(0.1 -0.1)">
     <use xlink:href="#DejaVuSans-7a"/>
    </g>
   </g>
   <g id="Line3DCollection_3">
    <path d="M 927.397484 223.063236 
L 750.834111 185.875474 
L 641.830882 252.395485 
" style="fill:none;stroke:#b0b0b0;stroke-width:0.8;"/>
    <path d="M 928.245601 207.98807 
L 750.625386 171.214565 
L 640.92614 237.006574 
" style="fill:none;stroke:#b0b0b0;stroke-width:0.8;"/>
    <path d="M 929.104021 192.729776 
L 750.414232 156.383039 
L 640.010042 221.424526 
" style="fill:none;stroke:#b0b0b0;stroke-width:0.8;"/>
    <path d="M 929.972933 177.284998 
L 750.200606 141.377902 
L 639.082375 205.645684 
" style="fill:none;stroke:#b0b0b0;stroke-width:0.8;"/>
    <path d="M 930.852529 161.650296 
L 749.984465 126.196087 
L 638.142917 189.666295 
" style="fill:none;stroke:#b0b0b0;stroke-width:0.8;"/>
    <path d="M 931.743009 145.822145 
L 749.765763 110.834455 
L 637.191442 173.482512 
" style="fill:none;stroke:#b0b0b0;stroke-width:0.8;"/>
    <path d="M 932.644575 129.796932 
L 749.544456 95.289791 
L 636.227719 157.090388 
" style="fill:none;stroke:#b0b0b0;stroke-width:0.8;"/>
    <path d="M 933.557436 113.570954 
L 749.320497 79.558807 
L 635.251509 140.485873 
" style="fill:none;stroke:#b0b0b0;stroke-width:0.8;"/>
    <path d="M 934.481806 97.140415 
L 749.093837 63.63813 
L 634.262567 123.664814 
" style="fill:none;stroke:#b0b0b0;stroke-width:0.8;"/>
   </g>
   <g id="xtick_24">
    <g id="line2d_48">
     <path d="M 925.924315 222.752958 
L 930.346887 223.684439 
" style="fill:none;stroke:#000000;stroke-linecap:square;stroke-width:0.8;"/>
    </g>
    <g id="text_37">
     <!-- −1.00 -->
     <g transform="translate(930.755673 228.742853)scale(0.1 -0.1)">
      <use xlink:href="#DejaVuSans-2212"/>
      <use x="83.789062" xlink:href="#DejaVuSans-31"/>
      <use x="147.412109" xlink:href="#DejaVuSans-2e"/>
      <use x="179.199219" xlink:href="#DejaVuSans-30"/>
      <use x="242.822266" xlink:href="#DejaVuSans-30"/>
     </g>
    </g>
   </g>
   <g id="xtick_25">
    <g id="line2d_49">
     <path d="M 926.763246 207.681171 
L 931.213414 208.602509 
" style="fill:none;stroke:#000000;stroke-linecap:square;stroke-width:0.8;"/>
    </g>
    <g id="text_38">
     <!-- −0.75 -->
     <g transform="translate(931.714499 213.68861)scale(0.1 -0.1)">
      <use xlink:href="#DejaVuSans-2212"/>
      <use x="83.789062" xlink:href="#DejaVuSans-30"/>
      <use x="147.412109" xlink:href="#DejaVuSans-2e"/>
      <use x="179.199219" xlink:href="#DejaVuSans-37"/>
      <use x="242.822266" xlink:href="#DejaVuSans-35"/>
     </g>
    </g>
   </g>
   <g id="xtick_26">
    <g id="line2d_50">
     <path d="M 927.612365 192.426363 
L 932.090475 193.337241 
" style="fill:none;stroke:#000000;stroke-linecap:square;stroke-width:0.8;"/>
    </g>
    <g id="text_39">
     <!-- −0.50 -->
     <g transform="translate(932.684947 198.451891)scale(0.1 -0.1)">
      <use xlink:href="#DejaVuSans-2212"/>
      <use x="83.789062" xlink:href="#DejaVuSans-30"/>
      <use x="147.412109" xlink:href="#DejaVuSans-2e"/>
      <use x="179.199219" xlink:href="#DejaVuSans-35"/>
      <use x="242.822266" xlink:href="#DejaVuSans-30"/>
     </g>
    </g>
   </g>
   <g id="xtick_27">
    <g id="line2d_51">
     <path d="M 928.471857 176.985179 
L 932.978263 177.885272 
" style="fill:none;stroke:#000000;stroke-linecap:square;stroke-width:0.8;"/>
    </g>
    <g id="text_40">
     <!-- −0.25 -->
     <g transform="translate(933.667229 183.029358)scale(0.1 -0.1)">
      <use xlink:href="#DejaVuSans-2212"/>
      <use x="83.789062" xlink:href="#DejaVuSans-30"/>
      <use x="147.412109" xlink:href="#DejaVuSans-2e"/>
      <use x="179.199219" xlink:href="#DejaVuSans-32"/>
      <use x="242.822266" xlink:href="#DejaVuSans-35"/>
     </g>
    </g>
   </g>
   <g id="xtick_28">
    <g id="line2d_52">
     <path d="M 929.341916 161.354182 
L 933.876976 162.243156 
" style="fill:none;stroke:#000000;stroke-linecap:square;stroke-width:0.8;"/>
    </g>
    <g id="text_41">
     <!-- 0.00 -->
     <g transform="translate(938.851408 167.41759)scale(0.1 -0.1)">
      <use xlink:href="#DejaVuSans-30"/>
      <use x="63.623047" xlink:href="#DejaVuSans-2e"/>
      <use x="95.410156" xlink:href="#DejaVuSans-30"/>
      <use x="159.033203" xlink:href="#DejaVuSans-30"/>
     </g>
    </g>
   </g>
   <g id="xtick_29">
    <g id="line2d_53">
     <path d="M 930.222735 145.529851 
L 934.786816 146.40736 
" style="fill:none;stroke:#000000;stroke-linecap:square;stroke-width:0.8;"/>
    </g>
    <g id="text_42">
     <!-- 0.25 -->
     <g transform="translate(939.858019 151.613083)scale(0.1 -0.1)">
      <use xlink:href="#DejaVuSans-30"/>
      <use x="63.623047" xlink:href="#DejaVuSans-2e"/>
      <use x="95.410156" xlink:href="#DejaVuSans-32"/>
      <use x="159.033203" xlink:href="#DejaVuSans-35"/>
     </g>
    </g>
   </g>
   <g id="xtick_30">
    <g id="line2d_54">
     <path d="M 931.114517 129.508577 
L 935.707992 130.374265 
" style="fill:none;stroke:#000000;stroke-linecap:square;stroke-width:0.8;"/>
    </g>
    <g id="text_43">
     <!-- 0.50 -->
     <g transform="translate(940.877135 135.612246)scale(0.1 -0.1)">
      <use xlink:href="#DejaVuSans-30"/>
      <use x="63.623047" xlink:href="#DejaVuSans-2e"/>
      <use x="95.410156" xlink:href="#DejaVuSans-35"/>
      <use x="159.033203" xlink:href="#DejaVuSans-30"/>
     </g>
    </g>
   </g>
   <g id="xtick_31">
    <g id="line2d_55">
     <path d="M 932.017467 113.286659 
L 936.640717 114.140162 
" style="fill:none;stroke:#000000;stroke-linecap:square;stroke-width:0.8;"/>
    </g>
    <g id="text_44">
     <!-- 0.75 -->
     <g transform="translate(941.908989 119.411398)scale(0.1 -0.1)">
      <use xlink:href="#DejaVuSans-30"/>
      <use x="63.623047" xlink:href="#DejaVuSans-2e"/>
      <use x="95.410156" xlink:href="#DejaVuSans-37"/>
      <use x="159.033203" xlink:href="#DejaVuSans-35"/>
     </g>
    </g>
   </g>
   <g id="xtick_32">
    <g id="line2d_56">
     <path d="M 932.931797 96.860306 
L 937.58521 97.701245 
" style="fill:none;stroke:#000000;stroke-linecap:square;stroke-width:0.8;"/>
    </g>
    <g id="text_45">
     <!-- 1.00 -->
     <g transform="translate(942.953823 103.006764)scale(0.1 -0.1)">
      <use xlink:href="#DejaVuSans-31"/>
      <use x="63.623047" xlink:href="#DejaVuSans-2e"/>
      <use x="95.410156" xlink:href="#DejaVuSans-30"/>
      <use x="159.033203" xlink:href="#DejaVuSans-30"/>
     </g>
    </g>
   </g>
  </g>
  <g id="axes_2">
   <g id="Line3DCollection_4">
    <path clip-path="url(#pb05e3ea0d2)" d="M 892.485388 184.341949 
L 877.934191 194.198302 
" style="fill:none;stroke:#ff0000;stroke-width:1.5;"/>
    <path clip-path="url(#pb05e3ea0d2)" d="M 883.443657 166.154172 
L 882.705918 185.673305 
" style="fill:none;stroke:#ff0000;stroke-width:1.5;"/>
    <path clip-path="url(#pb05e3ea0d2)" d="M 885.780154 157.42816 
L 885.027206 176.945306 
" style="fill:none;stroke:#ff0000;stroke-width:1.5;"/>
    <path clip-path="url(#pb05e3ea0d2)" d="M 885.611899 148.735972 
L 884.863146 168.243422 
" style="fill:none;stroke:#ff0000;stroke-width:1.5;"/>
    <path clip-path="url(#pb05e3ea0d2)" d="M 882.972201 140.300827 
L 882.246494 159.791156 
" style="fill:none;stroke:#ff0000;stroke-width:1.5;"/>
    <path clip-path="url(#pb05e3ea0d2)" d="M 877.958717 132.333916 
L 877.273849 151.800215 
" style="fill:none;stroke:#ff0000;stroke-width:1.5;"/>
    <path clip-path="url(#pb05e3ea0d2)" d="M 870.727764 125.029123 
L 870.10004 144.465206 
" style="fill:none;stroke:#ff0000;stroke-width:1.5;"/>
    <path clip-path="url(#pb05e3ea0d2)" d="M 861.487303 118.558745 
L 860.931192 137.959325 
" style="fill:none;stroke:#ff0000;stroke-width:1.5;"/>
    <path clip-path="url(#pb05e3ea0d2)" d="M 850.489089 113.070235 
L 850.016962 132.43106 
" style="fill:none;stroke:#ff0000;stroke-width:1.5;"/>
    <path clip-path="url(#pb05e3ea0d2)" d="M 838.020411 108.683925 
L 837.642356 128.001875 
" style="fill:none;stroke:#ff0000;stroke-width:1.5;"/>
    <path clip-path="url(#pb05e3ea0d2)" d="M 824.39579 105.491642 
L 824.119504 124.764783 
" style="fill:none;stroke:#ff0000;stroke-width:1.5;"/>
    <path clip-path="url(#pb05e3ea0d2)" d="M 809.948919 103.556088 
L 809.77965 122.783686 
" style="fill:none;stroke:#ff0000;stroke-width:1.5;"/>
    <path clip-path="url(#pb05e3ea0d2)" d="M 795.02501 102.910841 
L 794.965562 122.093342 
" style="fill:none;stroke:#ff0000;stroke-width:1.5;"/>
    <path clip-path="url(#pb05e3ea0d2)" d="M 779.973667 103.560857 
L 780.024432 122.699829 
" style="fill:none;stroke:#ff0000;stroke-width:1.5;"/>
    <path clip-path="url(#pb05e3ea0d2)" d="M 765.142294 105.48333 
L 765.30132 124.581384 
" style="fill:none;stroke:#ff0000;stroke-width:1.5;"/>
    <path clip-path="url(#pb05e3ea0d2)" d="M 750.870001 108.628832 
L 751.133076 127.689519 
" style="fill:none;stroke:#ff0000;stroke-width:1.5;"/>
    <path clip-path="url(#pb05e3ea0d2)" d="M 737.481942 112.92266 
L 737.842702 131.95035 
" style="fill:none;stroke:#ff0000;stroke-width:1.5;"/>
    <path clip-path="url(#pb05e3ea0d2)" d="M 725.283979 118.266342 
L 725.734023 137.266101 
" style="fill:none;stroke:#ff0000;stroke-width:1.5;"/>
    <path clip-path="url(#pb05e3ea0d2)" d="M 714.557575 124.539323 
L 715.086602 143.516774 
" style="fill:none;stroke:#ff0000;stroke-width:1.5;"/>
    <path clip-path="url(#pb05e3ea0d2)" d="M 705.55484 131.600828 
L 706.150801 150.562017 
" style="fill:none;stroke:#ff0000;stroke-width:1.5;"/>
    <path clip-path="url(#pb05e3ea0d2)" d="M 699.782751 176.918196 
L 699.142942 158.243227 
" style="fill:none;stroke:#ff0000;stroke-width:1.5;"/>
    <path clip-path="url(#pb05e3ea0d2)" d="M 694.9181 185.056713 
L 694.240555 166.385953 
" style="fill:none;stroke:#ff0000;stroke-width:1.5;"/>
    <path clip-path="url(#pb05e3ea0d2)" d="M 692.277166 193.475518 
L 691.577769 174.802676 
" style="fill:none;stroke:#ff0000;stroke-width:1.5;"/>
    <path clip-path="url(#pb05e3ea0d2)" d="M 691.945484 201.977168 
L 691.240954 183.296026 
" style="fill:none;stroke:#ff0000;stroke-width:1.5;"/>
    <path clip-path="url(#pb05e3ea0d2)" d="M 693.957212 210.357965 
L 693.264772 191.662491 
" style="fill:none;stroke:#ff0000;stroke-width:1.5;"/>
    <path clip-path="url(#pb05e3ea0d2)" d="M 698.29188 218.412197 
L 697.628893 199.696656 
" style="fill:none;stroke:#ff0000;stroke-width:1.5;"/>
    <path clip-path="url(#pb05e3ea0d2)" d="M 704.87209 225.93689 
L 704.255643 207.195947 
" style="fill:none;stroke:#ff0000;stroke-width:1.5;"/>
    <path clip-path="url(#pb05e3ea0d2)" d="M 713.562448 232.736998 
L 713.008901 213.965825 
" style="fill:none;stroke:#ff0000;stroke-width:1.5;"/>
    <path clip-path="url(#pb05e3ea0d2)" d="M 724.170071 238.63094 
L 723.694578 219.825316 
" style="fill:none;stroke:#ff0000;stroke-width:1.5;"/>
    <path clip-path="url(#pb05e3ea0d2)" d="M 736.446927 243.456268 
L 736.062953 224.612683 
" style="fill:none;stroke:#ff0000;stroke-width:1.5;"/>
    <path clip-path="url(#pb05e3ea0d2)" d="M 750.094241 247.075257 
L 749.813087 228.191011 
" style="fill:none;stroke:#ff0000;stroke-width:1.5;"/>
    <path clip-path="url(#pb05e3ea0d2)" d="M 764.76908 249.380118 
L 764.599443 230.453408 
" style="fill:none;stroke:#ff0000;stroke-width:1.5;"/>
    <path clip-path="url(#pb05e3ea0d2)" d="M 780.093059 250.297514 
L 780.04067 231.327521 
" style="fill:none;stroke:#ff0000;stroke-width:1.5;"/>
    <path clip-path="url(#pb05e3ea0d2)" d="M 795.663004 249.792088 
L 795.730341 230.779046 
" style="fill:none;stroke:#ff0000;stroke-width:1.5;"/>
    <path clip-path="url(#pb05e3ea0d2)" d="M 811.06318 247.8687 
L 811.249307 228.813937 
" style="fill:none;stroke:#ff0000;stroke-width:1.5;"/>
    <path clip-path="url(#pb05e3ea0d2)" d="M 825.878568 244.573168 
L 826.179102 225.479126 
" style="fill:none;stroke:#ff0000;stroke-width:1.5;"/>
    <path clip-path="url(#pb05e3ea0d2)" d="M 839.708544 239.991381 
L 840.115757 220.861597 
" style="fill:none;stroke:#ff0000;stroke-width:1.5;"/>
    <path clip-path="url(#pb05e3ea0d2)" d="M 852.180238 234.246769 
L 852.683302 215.085817 
" style="fill:none;stroke:#ff0000;stroke-width:1.5;"/>
    <path clip-path="url(#pb05e3ea0d2)" d="M 862.960865 227.496229 
L 863.54622 208.309622 
" style="fill:none;stroke:#ff0000;stroke-width:1.5;"/>
    <path clip-path="url(#pb05e3ea0d2)" d="M 871.768358 219.924738 
L 872.420186 200.718783 
" style="fill:none;stroke:#ff0000;stroke-width:1.5;"/>
    <path clip-path="url(#pb05e3ea0d2)" d="M 892.485388 184.341949 
L 888.243107 188.669563 
" style="fill:none;stroke:#ff0000;stroke-width:1.5;"/>
    <path clip-path="url(#pb05e3ea0d2)" d="M 892.485388 184.341949 
L 888.362828 185.678599 
" style="fill:none;stroke:#ff0000;stroke-width:1.5;"/>
    <path clip-path="url(#pb05e3ea0d2)" d="M 883.443657 166.154172 
L 883.892415 171.011972 
" style="fill:none;stroke:#ff0000;stroke-width:1.5;"/>
    <path clip-path="url(#pb05e3ea0d2)" d="M 883.443657 166.154172 
L 882.5637 172.672163 
" style="fill:none;stroke:#ff0000;stroke-width:1.5;"/>
    <path clip-path="url(#pb05e3ea0d2)" d="M 885.780154 157.42816 
L 885.734973 162.260069 
" style="fill:none;stroke:#ff0000;stroke-width:1.5;"/>
    <path clip-path="url(#pb05e3ea0d2)" d="M 885.780154 157.42816 
L 885.38623 163.970785 
" style="fill:none;stroke:#ff0000;stroke-width:1.5;"/>
    <path clip-path="url(#pb05e3ea0d2)" d="M 885.611899 148.735972 
L 885.108696 153.574168 
" style="fill:none;stroke:#ff0000;stroke-width:1.5;"/>
    <path clip-path="url(#pb05e3ea0d2)" d="M 885.611899 148.735972 
L 885.679392 155.266401 
" style="fill:none;stroke:#ff0000;stroke-width:1.5;"/>
    <path clip-path="url(#pb05e3ea0d2)" d="M 882.972201 140.300827 
L 882.068253 145.169403 
" style="fill:none;stroke:#ff0000;stroke-width:1.5;"/>
    <path clip-path="url(#pb05e3ea0d2)" d="M 882.972201 140.300827 
L 883.454666 146.790519 
" style="fill:none;stroke:#ff0000;stroke-width:1.5;"/>
    <path clip-path="url(#pb05e3ea0d2)" d="M 877.958717 132.333916 
L 876.718185 137.248676 
" style="fill:none;stroke:#ff0000;stroke-width:1.5;"/>
    <path clip-path="url(#pb05e3ea0d2)" d="M 877.958717 132.333916 
L 878.802145 138.762967 
" style="fill:none;stroke:#ff0000;stroke-width:1.5;"/>
    <path clip-path="url(#pb05e3ea0d2)" d="M 870.727764 125.029123 
L 869.212058 129.999377 
" style="fill:none;stroke:#ff0000;stroke-width:1.5;"/>
    <path clip-path="url(#pb05e3ea0d2)" d="M 870.727764 125.029123 
L 871.880023 131.384589 
" style="fill:none;stroke:#ff0000;stroke-width:1.5;"/>
    <path clip-path="url(#pb05e3ea0d2)" d="M 861.487303 118.558745 
L 859.750551 123.589588 
" style="fill:none;stroke:#ff0000;stroke-width:1.5;"/>
    <path clip-path="url(#pb05e3ea0d2)" d="M 861.487303 118.558745 
L 862.902499 124.832452 
" style="fill:none;stroke:#ff0000;stroke-width:1.5;"/>
    <path clip-path="url(#pb05e3ea0d2)" d="M 850.489089 113.070235 
L 848.577045 118.164535 
" style="fill:none;stroke:#ff0000;stroke-width:1.5;"/>
    <path clip-path="url(#pb05e3ea0d2)" d="M 850.489089 113.070235 
L 852.128509 119.256857 
" style="fill:none;stroke:#ff0000;stroke-width:1.5;"/>
    <path clip-path="url(#pb05e3ea0d2)" d="M 838.020411 108.683925 
L 835.971202 113.843812 
" style="fill:none;stroke:#ff0000;stroke-width:1.5;"/>
    <path clip-path="url(#pb05e3ea0d2)" d="M 838.020411 108.683925 
L 839.851665 114.77955 
" style="fill:none;stroke:#ff0000;stroke-width:1.5;"/>
    <path clip-path="url(#pb05e3ea0d2)" d="M 824.39579 105.491642 
L 822.241509 110.71956 
" style="fill:none;stroke:#ff0000;stroke-width:1.5;"/>
    <path clip-path="url(#pb05e3ea0d2)" d="M 824.39579 105.491642 
L 826.391152 111.492744 
" style="fill:none;stroke:#ff0000;stroke-width:1.5;"/>
    <path clip-path="url(#pb05e3ea0d2)" d="M 809.948919 103.556088 
L 807.717613 108.855525 
" style="fill:none;stroke:#ff0000;stroke-width:1.5;"/>
    <path clip-path="url(#pb05e3ea0d2)" d="M 809.948919 103.556088 
L 812.083294 109.458805 
" style="fill:none;stroke:#ff0000;stroke-width:1.5;"/>
    <path clip-path="url(#pb05e3ea0d2)" d="M 795.02501 102.910841 
L 792.742969 108.286829 
" style="fill:none;stroke:#ff0000;stroke-width:1.5;"/>
    <path clip-path="url(#pb05e3ea0d2)" d="M 795.02501 102.910841 
L 797.273645 108.710465 
" style="fill:none;stroke:#ff0000;stroke-width:1.5;"/>
    <path clip-path="url(#pb05e3ea0d2)" d="M 779.973667 103.560857 
L 777.668076 109.020256 
" style="fill:none;stroke:#ff0000;stroke-width:1.5;"/>
    <path clip-path="url(#pb05e3ea0d2)" d="M 779.973667 103.560857 
L 782.309519 109.251511 
" style="fill:none;stroke:#ff0000;stroke-width:1.5;"/>
    <path clip-path="url(#pb05e3ea0d2)" d="M 765.142294 105.48333 
L 762.844395 111.03486 
" style="fill:none;stroke:#ff0000;stroke-width:1.5;"/>
    <path clip-path="url(#pb05e3ea0d2)" d="M 765.142294 105.48333 
L 767.532907 111.0579 
" style="fill:none;stroke:#ff0000;stroke-width:1.5;"/>
    <path clip-path="url(#pb05e3ea0d2)" d="M 750.870001 108.628832 
L 748.618798 114.282658 
" style="fill:none;stroke:#ff0000;stroke-width:1.5;"/>
    <path clip-path="url(#pb05e3ea0d2)" d="M 750.870001 108.628832 
L 753.273864 114.07932 
" style="fill:none;stroke:#ff0000;stroke-width:1.5;"/>
    <path clip-path="url(#pb05e3ea0d2)" d="M 737.481942 112.92266 
L 735.328077 118.689242 
" style="fill:none;stroke:#ff0000;stroke-width:1.5;"/>
    <path clip-path="url(#pb05e3ea0d2)" d="M 737.481942 112.92266 
L 739.844699 118.241263 
" style="fill:none;stroke:#ff0000;stroke-width:1.5;"/>
    <path clip-path="url(#pb05e3ea0d2)" d="M 725.283979 118.266342 
L 723.292516 124.154203 
" style="fill:none;stroke:#ff0000;stroke-width:1.5;"/>
    <path clip-path="url(#pb05e3ea0d2)" d="M 725.283979 118.266342 
L 727.535745 123.447615 
" style="fill:none;stroke:#ff0000;stroke-width:1.5;"/>
    <path clip-path="url(#pb05e3ea0d2)" d="M 714.557575 124.539323 
L 712.807121 130.551649 
" style="fill:none;stroke:#ff0000;stroke-width:1.5;"/>
    <path clip-path="url(#pb05e3ea0d2)" d="M 714.557575 124.539323 
L 716.613934 129.583477 
" style="fill:none;stroke:#ff0000;stroke-width:1.5;"/>
    <path clip-path="url(#pb05e3ea0d2)" d="M 705.55484 131.600828 
L 704.129882 137.731717 
" style="fill:none;stroke:#ff0000;stroke-width:1.5;"/>
    <path clip-path="url(#pb05e3ea0d2)" d="M 705.55484 131.600828 
L 707.324603 136.51738 
" style="fill:none;stroke:#ff0000;stroke-width:1.5;"/>
    <path clip-path="url(#pb05e3ea0d2)" d="M 699.782751 176.918196 
L 698.398434 172.262243 
" style="fill:none;stroke:#ff0000;stroke-width:1.5;"/>
    <path clip-path="url(#pb05e3ea0d2)" d="M 699.782751 176.918196 
L 700.796123 170.808372 
" style="fill:none;stroke:#ff0000;stroke-width:1.5;"/>
    <path clip-path="url(#pb05e3ea0d2)" d="M 694.9181 185.056713 
L 693.957452 180.479233 
" style="fill:none;stroke:#ff0000;stroke-width:1.5;"/>
    <path clip-path="url(#pb05e3ea0d2)" d="M 694.9181 185.056713 
L 695.486675 178.871273 
" style="fill:none;stroke:#ff0000;stroke-width:1.5;"/>
    <path clip-path="url(#pb05e3ea0d2)" d="M 692.277166 193.475518 
L 691.763132 188.94111 
" style="fill:none;stroke:#ff0000;stroke-width:1.5;"/>
    <path clip-path="url(#pb05e3ea0d2)" d="M 692.277166 193.475518 
L 692.387362 187.246152 
" style="fill:none;stroke:#ff0000;stroke-width:1.5;"/>
    <path clip-path="url(#pb05e3ea0d2)" d="M 691.945484 201.977168 
L 691.86947 197.452062 
" style="fill:none;stroke:#ff0000;stroke-width:1.5;"/>
    <path clip-path="url(#pb05e3ea0d2)" d="M 691.945484 201.977168 
L 691.615575 195.733958 
" style="fill:none;stroke:#ff0000;stroke-width:1.5;"/>
    <path clip-path="url(#pb05e3ea0d2)" d="M 693.957212 210.357965 
L 694.289963 205.813784 
" style="fill:none;stroke:#ff0000;stroke-width:1.5;"/>
    <path clip-path="url(#pb05e3ea0d2)" d="M 693.957212 210.357965 
L 693.226289 204.125725 
" style="fill:none;stroke:#ff0000;stroke-width:1.5;"/>
    <path clip-path="url(#pb05e3ea0d2)" d="M 698.29188 218.412197 
L 698.995077 213.826804 
" style="fill:none;stroke:#ff0000;stroke-width:1.5;"/>
    <path clip-path="url(#pb05e3ea0d2)" d="M 698.29188 218.412197 
L 697.208108 212.209699 
" style="fill:none;stroke:#ff0000;stroke-width:1.5;"/>
    <path clip-path="url(#pb05e3ea0d2)" d="M 704.87209 225.93689 
L 705.906308 221.293406 
" style="fill:none;stroke:#ff0000;stroke-width:1.5;"/>
    <path clip-path="url(#pb05e3ea0d2)" d="M 704.87209 225.93689 
L 703.484557 219.777897 
" style="fill:none;stroke:#ff0000;stroke-width:1.5;"/>
    <path clip-path="url(#pb05e3ea0d2)" d="M 713.562448 232.736998 
L 714.890991 228.022252 
" style="fill:none;stroke:#ff0000;stroke-width:1.5;"/>
    <path clip-path="url(#pb05e3ea0d2)" d="M 713.562448 232.736998 
L 711.917101 226.631878 
" style="fill:none;stroke:#ff0000;stroke-width:1.5;"/>
    <path clip-path="url(#pb05e3ea0d2)" d="M 724.170071 238.63094 
L 725.759887 233.834033 
" style="fill:none;stroke:#ff0000;stroke-width:1.5;"/>
    <path clip-path="url(#pb05e3ea0d2)" d="M 724.170071 238.63094 
L 722.308529 232.588147 
" style="fill:none;stroke:#ff0000;stroke-width:1.5;"/>
    <path clip-path="url(#pb05e3ea0d2)" d="M 736.446927 243.456268 
L 738.267904 238.567488 
" style="fill:none;stroke:#ff0000;stroke-width:1.5;"/>
    <path clip-path="url(#pb05e3ea0d2)" d="M 736.446927 243.456268 
L 734.406908 237.483485 
" style="fill:none;stroke:#ff0000;stroke-width:1.5;"/>
    <path clip-path="url(#pb05e3ea0d2)" d="M 750.094241 247.075257 
L 752.117706 242.085328 
" style="fill:none;stroke:#ff0000;stroke-width:1.5;"/>
    <path clip-path="url(#pb05e3ea0d2)" d="M 750.094241 247.075257 
L 747.910793 241.1802 
" style="fill:none;stroke:#ff0000;stroke-width:1.5;"/>
    <path clip-path="url(#pb05e3ea0d2)" d="M 764.76908 249.380118 
L 766.965879 244.27971 
" style="fill:none;stroke:#ff0000;stroke-width:1.5;"/>
    <path clip-path="url(#pb05e3ea0d2)" d="M 764.76908 249.380118 
L 762.476234 243.571075 
" style="fill:none;stroke:#ff0000;stroke-width:1.5;"/>
    <path clip-path="url(#pb05e3ea0d2)" d="M 780.093059 250.297514 
L 782.431344 245.076985 
" style="fill:none;stroke:#ff0000;stroke-width:1.5;"/>
    <path clip-path="url(#pb05e3ea0d2)" d="M 780.093059 250.297514 
L 777.725841 244.58366 
" style="fill:none;stroke:#ff0000;stroke-width:1.5;"/>
    <path clip-path="url(#pb05e3ea0d2)" d="M 795.663004 249.792088 
L 798.105664 244.44144 
" style="fill:none;stroke:#ff0000;stroke-width:1.5;"/>
    <path clip-path="url(#pb05e3ea0d2)" d="M 795.663004 249.792088 
L 793.259838 244.183564 
" style="fill:none;stroke:#ff0000;stroke-width:1.5;"/>
    <path clip-path="url(#pb05e3ea0d2)" d="M 811.06318 247.8687 
L 813.564867 242.377872 
" style="fill:none;stroke:#ff0000;stroke-width:1.5;"/>
    <path clip-path="url(#pb05e3ea0d2)" d="M 811.06318 247.8687 
L 808.668781 242.376356 
" style="fill:none;stroke:#ff0000;stroke-width:1.5;"/>
    <path clip-path="url(#pb05e3ea0d2)" d="M 825.878568 244.573168 
L 828.382437 238.932857 
" style="fill:none;stroke:#ff0000;stroke-width:1.5;"/>
    <path clip-path="url(#pb05e3ea0d2)" d="M 825.878568 244.573168 
L 823.547198 239.207752 
" style="fill:none;stroke:#ff0000;stroke-width:1.5;"/>
    <path clip-path="url(#pb05e3ea0d2)" d="M 839.708544 239.991381 
L 842.143351 234.19471 
" style="fill:none;stroke:#ff0000;stroke-width:1.5;"/>
    <path clip-path="url(#pb05e3ea0d2)" d="M 839.708544 239.991381 
L 837.507004 234.761861 
" style="fill:none;stroke:#ff0000;stroke-width:1.5;"/>
    <path clip-path="url(#pb05e3ea0d2)" d="M 852.180238 234.246769 
L 854.459462 228.292066 
" style="fill:none;stroke:#ff0000;stroke-width:1.5;"/>
    <path clip-path="url(#pb05e3ea0d2)" d="M 852.180238 234.246769 
L 850.18893 229.157512 
" style="fill:none;stroke:#ff0000;stroke-width:1.5;"/>
    <path clip-path="url(#pb05e3ea0d2)" d="M 862.960865 227.496229 
L 864.986696 221.390705 
" style="fill:none;stroke:#ff0000;stroke-width:1.5;"/>
    <path clip-path="url(#pb05e3ea0d2)" d="M 862.960865 227.496229 
L 861.270041 222.543251 
" style="fill:none;stroke:#ff0000;stroke-width:1.5;"/>
    <path clip-path="url(#pb05e3ea0d2)" d="M 871.768358 219.924738 
L 873.44327 213.687738 
" style="fill:none;stroke:#ff0000;stroke-width:1.5;"/>
    <path clip-path="url(#pb05e3ea0d2)" d="M 871.768358 219.924738 
L 870.466811 215.092331 
" style="fill:none;stroke:#ff0000;stroke-width:1.5;"/>
   </g>
   <g id="Line3DCollection_5">
    <path clip-path="url(#pb05e3ea0d2)" d="M 890.949956 175.993915 
L 877.934191 194.198302 
" style="fill:none;stroke:#000000;stroke-width:1.5;"/>
    <path clip-path="url(#pb05e3ea0d2)" d="M 890.425818 166.873442 
L 882.705918 185.673305 
" style="fill:none;stroke:#000000;stroke-width:1.5;"/>
    <path clip-path="url(#pb05e3ea0d2)" d="M 887.338502 158.190803 
L 885.027206 176.945306 
" style="fill:none;stroke:#000000;stroke-width:1.5;"/>
    <path clip-path="url(#pb05e3ea0d2)" d="M 881.914908 150.121094 
L 884.863146 168.243422 
" style="fill:none;stroke:#000000;stroke-width:1.5;"/>
    <path clip-path="url(#pb05e3ea0d2)" d="M 874.390573 142.794641 
L 882.246494 159.791156 
" style="fill:none;stroke:#000000;stroke-width:1.5;"/>
    <path clip-path="url(#pb05e3ea0d2)" d="M 864.990172 136.316194 
L 877.273849 151.800215 
" style="fill:none;stroke:#000000;stroke-width:1.5;"/>
    <path clip-path="url(#pb05e3ea0d2)" d="M 853.928741 130.780268 
L 870.10004 144.465206 
" style="fill:none;stroke:#000000;stroke-width:1.5;"/>
    <path clip-path="url(#pb05e3ea0d2)" d="M 841.423649 126.278378 
L 860.931192 137.959325 
" style="fill:none;stroke:#000000;stroke-width:1.5;"/>
    <path clip-path="url(#pb05e3ea0d2)" d="M 827.707832 122.899145 
L 850.016962 132.43106 
" style="fill:none;stroke:#000000;stroke-width:1.5;"/>
    <path clip-path="url(#pb05e3ea0d2)" d="M 813.039287 120.724183 
L 837.642356 128.001875 
" style="fill:none;stroke:#000000;stroke-width:1.5;"/>
    <path clip-path="url(#pb05e3ea0d2)" d="M 797.705754 119.822398 
L 824.119504 124.764783 
" style="fill:none;stroke:#000000;stroke-width:1.5;"/>
    <path clip-path="url(#pb05e3ea0d2)" d="M 782.025491 120.24413 
L 809.77965 122.783686 
" style="fill:none;stroke:#000000;stroke-width:1.5;"/>
    <path clip-path="url(#pb05e3ea0d2)" d="M 766.345424 122.015565 
L 794.965562 122.093342 
" style="fill:none;stroke:#000000;stroke-width:1.5;"/>
    <path clip-path="url(#pb05e3ea0d2)" d="M 751.03743 125.133235 
L 780.024432 122.699829 
" style="fill:none;stroke:#000000;stroke-width:1.5;"/>
    <path clip-path="url(#pb05e3ea0d2)" d="M 736.492563 129.558233 
L 765.30132 124.581384 
" style="fill:none;stroke:#000000;stroke-width:1.5;"/>
    <path clip-path="url(#pb05e3ea0d2)" d="M 723.111906 135.210052 
L 751.133076 127.689519 
" style="fill:none;stroke:#000000;stroke-width:1.5;"/>
    <path clip-path="url(#pb05e3ea0d2)" d="M 711.29177 141.960853 
L 737.842702 131.95035 
" style="fill:none;stroke:#000000;stroke-width:1.5;"/>
    <path clip-path="url(#pb05e3ea0d2)" d="M 701.400995 149.632408 
L 725.734023 137.266101 
" style="fill:none;stroke:#000000;stroke-width:1.5;"/>
    <path clip-path="url(#pb05e3ea0d2)" d="M 693.750531 157.999467 
L 715.086602 143.516774 
" style="fill:none;stroke:#000000;stroke-width:1.5;"/>
    <path clip-path="url(#pb05e3ea0d2)" d="M 688.560957 166.803222 
L 706.150801 150.562017 
" style="fill:none;stroke:#000000;stroke-width:1.5;"/>
    <path clip-path="url(#pb05e3ea0d2)" d="M 685.939921 175.774934 
L 699.142942 158.243227 
" style="fill:none;stroke:#000000;stroke-width:1.5;"/>
    <path clip-path="url(#pb05e3ea0d2)" d="M 685.882241 184.663177 
L 694.240555 166.385953 
" style="fill:none;stroke:#000000;stroke-width:1.5;"/>
    <path clip-path="url(#pb05e3ea0d2)" d="M 688.295602 193.253513 
L 691.577769 174.802676 
" style="fill:none;stroke:#000000;stroke-width:1.5;"/>
    <path clip-path="url(#pb05e3ea0d2)" d="M 693.039621 201.372455 
L 691.240954 183.296026 
" style="fill:none;stroke:#000000;stroke-width:1.5;"/>
    <path clip-path="url(#pb05e3ea0d2)" d="M 699.958831 208.876972 
L 693.264772 191.662491 
" style="fill:none;stroke:#000000;stroke-width:1.5;"/>
    <path clip-path="url(#pb05e3ea0d2)" d="M 708.896898 215.638363 
L 697.628893 199.696656 
" style="fill:none;stroke:#000000;stroke-width:1.5;"/>
    <path clip-path="url(#pb05e3ea0d2)" d="M 719.692336 221.529527 
L 704.255643 207.195947 
" style="fill:none;stroke:#000000;stroke-width:1.5;"/>
    <path clip-path="url(#pb05e3ea0d2)" d="M 732.163979 226.419899 
L 713.008901 213.965825 
" style="fill:none;stroke:#000000;stroke-width:1.5;"/>
    <path clip-path="url(#pb05e3ea0d2)" d="M 746.095003 230.177656 
L 723.694578 219.825316 
" style="fill:none;stroke:#000000;stroke-width:1.5;"/>
    <path clip-path="url(#pb05e3ea0d2)" d="M 761.220795 232.676711 
L 736.062953 224.612683 
" style="fill:none;stroke:#000000;stroke-width:1.5;"/>
    <path clip-path="url(#pb05e3ea0d2)" d="M 777.222607 233.80606 
L 749.813087 228.191011 
" style="fill:none;stroke:#000000;stroke-width:1.5;"/>
    <path clip-path="url(#pb05e3ea0d2)" d="M 793.726937 233.479863 
L 764.599443 230.453408 
" style="fill:none;stroke:#000000;stroke-width:1.5;"/>
    <path clip-path="url(#pb05e3ea0d2)" d="M 810.31006 231.647417 
L 780.04067 231.327521 
" style="fill:none;stroke:#000000;stroke-width:1.5;"/>
    <path clip-path="url(#pb05e3ea0d2)" d="M 826.507309 228.302679 
L 795.730341 230.779046 
" style="fill:none;stroke:#000000;stroke-width:1.5;"/>
    <path clip-path="url(#pb05e3ea0d2)" d="M 841.827411 223.493086 
L 811.249307 228.813937 
" style="fill:none;stroke:#000000;stroke-width:1.5;"/>
    <path clip-path="url(#pb05e3ea0d2)" d="M 855.772931 217.327 
L 826.179102 225.479126 
" style="fill:none;stroke:#000000;stroke-width:1.5;"/>
    <path clip-path="url(#pb05e3ea0d2)" d="M 867.868273 209.978186 
L 840.115757 220.861597 
" style="fill:none;stroke:#000000;stroke-width:1.5;"/>
    <path clip-path="url(#pb05e3ea0d2)" d="M 877.69563 201.684314 
L 852.683302 215.085817 
" style="fill:none;stroke:#000000;stroke-width:1.5;"/>
    <path clip-path="url(#pb05e3ea0d2)" d="M 884.935526 192.735576 
L 863.54622 208.309622 
" style="fill:none;stroke:#000000;stroke-width:1.5;"/>
    <path clip-path="url(#pb05e3ea0d2)" d="M 889.402279 183.450974 
L 872.420186 200.718783 
" style="fill:none;stroke:#000000;stroke-width:1.5;"/>
    <path clip-path="url(#pb05e3ea0d2)" d="M 890.949956 175.993915 
L 887.707478 182.168879 
" style="fill:none;stroke:#000000;stroke-width:1.5;"/>
    <path clip-path="url(#pb05e3ea0d2)" d="M 890.949956 175.993915 
L 886.680767 180.321935 
" style="fill:none;stroke:#000000;stroke-width:1.5;"/>
    <path clip-path="url(#pb05e3ea0d2)" d="M 890.425818 166.873442 
L 888.468713 173.198244 
" style="fill:none;stroke:#000000;stroke-width:1.5;"/>
    <path clip-path="url(#pb05e3ea0d2)" d="M 890.425818 166.873442 
L 887.93105 171.386954 
" style="fill:none;stroke:#000000;stroke-width:1.5;"/>
    <path clip-path="url(#pb05e3ea0d2)" d="M 887.338502 158.190803 
L 886.700812 164.526334 
" style="fill:none;stroke:#000000;stroke-width:1.5;"/>
    <path clip-path="url(#pb05e3ea0d2)" d="M 887.338502 158.190803 
L 886.6442 162.661122 
" style="fill:none;stroke:#000000;stroke-width:1.5;"/>
    <path clip-path="url(#pb05e3ea0d2)" d="M 881.914908 150.121094 
L 882.593344 156.335028 
" style="fill:none;stroke:#000000;stroke-width:1.5;"/>
    <path clip-path="url(#pb05e3ea0d2)" d="M 881.914908 150.121094 
L 882.93514 154.344649 
" style="fill:none;stroke:#000000;stroke-width:1.5;"/>
    <path clip-path="url(#pb05e3ea0d2)" d="M 874.390573 142.794641 
L 876.345328 148.767343 
" style="fill:none;stroke:#000000;stroke-width:1.5;"/>
    <path clip-path="url(#pb05e3ea0d2)" d="M 874.390573 142.794641 
L 876.960937 146.608979 
" style="fill:none;stroke:#000000;stroke-width:1.5;"/>
    <path clip-path="url(#pb05e3ea0d2)" d="M 864.990172 136.316194 
L 868.150164 141.944793 
" style="fill:none;stroke:#000000;stroke-width:1.5;"/>
    <path clip-path="url(#pb05e3ea0d2)" d="M 864.990172 136.316194 
L 868.905386 139.603352 
" style="fill:none;stroke:#000000;stroke-width:1.5;"/>
    <path clip-path="url(#pb05e3ea0d2)" d="M 853.928741 130.780268 
L 858.200541 135.979802 
" style="fill:none;stroke:#000000;stroke-width:1.5;"/>
    <path clip-path="url(#pb05e3ea0d2)" d="M 853.928741 130.780268 
L 858.972355 133.461408 
" style="fill:none;stroke:#000000;stroke-width:1.5;"/>
    <path clip-path="url(#pb05e3ea0d2)" d="M 841.423649 126.278378 
L 846.700925 130.980178 
" style="fill:none;stroke:#000000;stroke-width:1.5;"/>
    <path clip-path="url(#pb05e3ea0d2)" d="M 841.423649 126.278378 
L 847.386317 128.304745 
" style="fill:none;stroke:#000000;stroke-width:1.5;"/>
    <path clip-path="url(#pb05e3ea0d2)" d="M 827.707832 122.899145 
L 833.87864 127.047494 
" style="fill:none;stroke:#000000;stroke-width:1.5;"/>
    <path clip-path="url(#pb05e3ea0d2)" d="M 827.707832 122.899145 
L 834.395732 124.242881 
" style="fill:none;stroke:#000000;stroke-width:1.5;"/>
    <path clip-path="url(#pb05e3ea0d2)" d="M 813.039287 120.724183 
L 819.990074 124.272438 
" style="fill:none;stroke:#000000;stroke-width:1.5;"/>
    <path clip-path="url(#pb05e3ea0d2)" d="M 813.039287 120.724183 
L 820.275785 121.370769 
" style="fill:none;stroke:#000000;stroke-width:1.5;"/>
    <path clip-path="url(#pb05e3ea0d2)" d="M 797.705754 119.822398 
L 805.322046 122.729431 
" style="fill:none;stroke:#000000;stroke-width:1.5;"/>
    <path clip-path="url(#pb05e3ea0d2)" d="M 797.705754 119.822398 
L 805.329044 119.765221 
" style="fill:none;stroke:#000000;stroke-width:1.5;"/>
    <path clip-path="url(#pb05e3ea0d2)" d="M 782.025491 120.24413 
L 790.189664 122.471618 
" style="fill:none;stroke:#000000;stroke-width:1.5;"/>
    <path clip-path="url(#pb05e3ea0d2)" d="M 782.025491 120.24413 
L 789.884138 119.481161 
" style="fill:none;stroke:#000000;stroke-width:1.5;"/>
    <path clip-path="url(#pb05e3ea0d2)" d="M 766.345424 122.015565 
L 774.93201 123.526533 
" style="fill:none;stroke:#000000;stroke-width:1.5;"/>
    <path clip-path="url(#pb05e3ea0d2)" d="M 766.345424 122.015565 
L 774.293067 120.547969 
" style="fill:none;stroke:#000000;stroke-width:1.5;"/>
    <path clip-path="url(#pb05e3ea0d2)" d="M 751.03743 125.133235 
L 759.90634 125.892229 
" style="fill:none;stroke:#000000;stroke-width:1.5;"/>
    <path clip-path="url(#pb05e3ea0d2)" d="M 751.03743 125.133235 
L 758.92757 122.965773 
" style="fill:none;stroke:#000000;stroke-width:1.5;"/>
    <path clip-path="url(#pb05e3ea0d2)" d="M 736.492563 129.558233 
L 745.480767 129.533651 
" style="fill:none;stroke:#000000;stroke-width:1.5;"/>
    <path clip-path="url(#pb05e3ea0d2)" d="M 736.492563 129.558233 
L 744.174368 126.701337 
" style="fill:none;stroke:#000000;stroke-width:1.5;"/>
    <path clip-path="url(#pb05e3ea0d2)" d="M 723.111906 135.210052 
L 732.024662 134.379265 
" style="fill:none;stroke:#000000;stroke-width:1.5;"/>
    <path clip-path="url(#pb05e3ea0d2)" d="M 723.111906 135.210052 
L 730.428141 131.683377 
" style="fill:none;stroke:#000000;stroke-width:1.5;"/>
    <path clip-path="url(#pb05e3ea0d2)" d="M 711.29177 141.960853 
L 719.895699 140.318602 
" style="fill:none;stroke:#000000;stroke-width:1.5;"/>
    <path clip-path="url(#pb05e3ea0d2)" d="M 711.29177 141.960853 
L 718.080094 137.797736 
" style="fill:none;stroke:#000000;stroke-width:1.5;"/>
    <path clip-path="url(#pb05e3ea0d2)" d="M 701.400995 149.632408 
L 709.423113 147.202227 
" style="fill:none;stroke:#000000;stroke-width:1.5;"/>
    <path clip-path="url(#pb05e3ea0d2)" d="M 701.400995 149.632408 
L 707.499362 144.884088 
" style="fill:none;stroke:#000000;stroke-width:1.5;"/>
    <path clip-path="url(#pb05e3ea0d2)" d="M 693.750531 157.999467 
L 700.888942 154.846155 
" style="fill:none;stroke:#000000;stroke-width:1.5;"/>
    <path clip-path="url(#pb05e3ea0d2)" d="M 693.750531 157.999467 
L 699.005765 152.737448 
" style="fill:none;stroke:#000000;stroke-width:1.5;"/>
    <path clip-path="url(#pb05e3ea0d2)" d="M 688.560957 166.803222 
L 694.511884 163.041801 
" style="fill:none;stroke:#000000;stroke-width:1.5;"/>
    <path clip-path="url(#pb05e3ea0d2)" d="M 688.560957 166.803222 
L 692.837313 161.118498 
" style="fill:none;stroke:#000000;stroke-width:1.5;"/>
    <path clip-path="url(#pb05e3ea0d2)" d="M 685.939921 175.774934 
L 690.439028 171.569926 
" style="fill:none;stroke:#000000;stroke-width:1.5;"/>
    <path clip-path="url(#pb05e3ea0d2)" d="M 685.939921 175.774934 
L 689.124124 169.77432 
" style="fill:none;stroke:#000000;stroke-width:1.5;"/>
    <path clip-path="url(#pb05e3ea0d2)" d="M 685.882241 184.663177 
L 688.746973 180.214435 
" style="fill:none;stroke:#000000;stroke-width:1.5;"/>
    <path clip-path="url(#pb05e3ea0d2)" d="M 685.882241 184.663177 
L 687.885104 178.464376 
" style="fill:none;stroke:#000000;stroke-width:1.5;"/>
    <path clip-path="url(#pb05e3ea0d2)" d="M 688.295602 193.253513 
L 689.44965 188.771974 
" style="fill:none;stroke:#000000;stroke-width:1.5;"/>
    <path clip-path="url(#pb05e3ea0d2)" d="M 688.295602 193.253513 
L 689.054034 186.98006 
" style="fill:none;stroke:#000000;stroke-width:1.5;"/>
    <path clip-path="url(#pb05e3ea0d2)" d="M 693.039621 201.372455 
L 692.509765 197.055456 
" style="fill:none;stroke:#000000;stroke-width:1.5;"/>
    <path clip-path="url(#pb05e3ea0d2)" d="M 693.039621 201.372455 
L 692.520793 195.148361 
" style="fill:none;stroke:#000000;stroke-width:1.5;"/>
    <path clip-path="url(#pb05e3ea0d2)" d="M 699.958831 208.876972 
L 697.850806 204.89193 
" style="fill:none;stroke:#000000;stroke-width:1.5;"/>
    <path clip-path="url(#pb05e3ea0d2)" d="M 699.958831 208.876972 
L 698.163366 202.821174 
" style="fill:none;stroke:#000000;stroke-width:1.5;"/>
    <path clip-path="url(#pb05e3ea0d2)" d="M 708.896898 215.638363 
L 705.364998 212.117308 
" style="fill:none;stroke:#000000;stroke-width:1.5;"/>
    <path clip-path="url(#pb05e3ea0d2)" d="M 708.896898 215.638363 
L 705.857694 209.860266 
" style="fill:none;stroke:#000000;stroke-width:1.5;"/>
    <path clip-path="url(#pb05e3ea0d2)" d="M 719.692336 221.529527 
L 714.913937 218.571666 
" style="fill:none;stroke:#000000;stroke-width:1.5;"/>
    <path clip-path="url(#pb05e3ea0d2)" d="M 719.692336 221.529527 
L 715.46931 216.126874 
" style="fill:none;stroke:#000000;stroke-width:1.5;"/>
    <path clip-path="url(#pb05e3ea0d2)" d="M 732.163979 226.419899 
L 726.323082 224.09793 
" style="fill:none;stroke:#000000;stroke-width:1.5;"/>
    <path clip-path="url(#pb05e3ea0d2)" d="M 732.163979 226.419899 
L 726.837544 221.479041 
" style="fill:none;stroke:#000000;stroke-width:1.5;"/>
    <path clip-path="url(#pb05e3ea0d2)" d="M 746.095003 230.177656 
L 739.37409 228.544573 
" style="fill:none;stroke:#000000;stroke-width:1.5;"/>
    <path clip-path="url(#pb05e3ea0d2)" d="M 746.095003 230.177656 
L 739.76085 225.775362 
" style="fill:none;stroke:#000000;stroke-width:1.5;"/>
    <path clip-path="url(#pb05e3ea0d2)" d="M 761.220795 232.676711 
L 753.798623 231.771398 
" style="fill:none;stroke:#000000;stroke-width:1.5;"/>
    <path clip-path="url(#pb05e3ea0d2)" d="M 761.220795 232.676711 
L 753.987251 228.882468 
" style="fill:none;stroke:#000000;stroke-width:1.5;"/>
    <path clip-path="url(#pb05e3ea0d2)" d="M 777.222607 233.80606 
L 769.275568 233.657041 
" style="fill:none;stroke:#000000;stroke-width:1.5;"/>
    <path clip-path="url(#pb05e3ea0d2)" d="M 777.222607 233.80606 
L 769.21075 230.68403 
" style="fill:none;stroke:#000000;stroke-width:1.5;"/>
    <path clip-path="url(#pb05e3ea0d2)" d="M 793.726937 233.479863 
L 785.432196 234.10712 
" style="fill:none;stroke:#000000;stroke-width:1.5;"/>
    <path clip-path="url(#pb05e3ea0d2)" d="M 793.726937 233.479863 
L 785.073181 231.089911 
" style="fill:none;stroke:#000000;stroke-width:1.5;"/>
    <path clip-path="url(#pb05e3ea0d2)" d="M 810.31006 231.647417 
L 801.849138 233.062381 
" style="fill:none;stroke:#000000;stroke-width:1.5;"/>
    <path clip-path="url(#pb05e3ea0d2)" d="M 810.31006 231.647417 
L 801.170737 230.044786 
" style="fill:none;stroke:#000000;stroke-width:1.5;"/>
    <path clip-path="url(#pb05e3ea0d2)" d="M 826.507309 228.302679 
L 818.06902 230.506543 
" style="fill:none;stroke:#000000;stroke-width:1.5;"/>
    <path clip-path="url(#pb05e3ea0d2)" d="M 826.507309 228.302679 
L 817.0647 227.535849 
" style="fill:none;stroke:#000000;stroke-width:1.5;"/>
    <path clip-path="url(#pb05e3ea0d2)" d="M 841.827411 223.493086 
L 833.608994 226.473631 
" style="fill:none;stroke:#000000;stroke-width:1.5;"/>
    <path clip-path="url(#pb05e3ea0d2)" d="M 841.827411 223.493086 
L 832.296323 223.59932 
" style="fill:none;stroke:#000000;stroke-width:1.5;"/>
    <path clip-path="url(#pb05e3ea0d2)" d="M 855.772931 217.327 
L 847.978111 221.0544 
" style="fill:none;stroke:#000000;stroke-width:1.5;"/>
    <path clip-path="url(#pb05e3ea0d2)" d="M 855.772931 217.327 
L 846.406176 218.325103 
" style="fill:none;stroke:#000000;stroke-width:1.5;"/>
    <path clip-path="url(#pb05e3ea0d2)" d="M 867.868273 209.978186 
L 860.701117 214.400691 
" style="fill:none;stroke:#000000;stroke-width:1.5;"/>
    <path clip-path="url(#pb05e3ea0d2)" d="M 867.868273 209.978186 
L 858.958081 211.858391 
" style="fill:none;stroke:#000000;stroke-width:1.5;"/>
    <path clip-path="url(#pb05e3ea0d2)" d="M 877.69563 201.684314 
L 871.3501 206.725356 
" style="fill:none;stroke:#000000;stroke-width:1.5;"/>
    <path clip-path="url(#pb05e3ea0d2)" d="M 877.69563 201.684314 
L 869.566443 204.396308 
" style="fill:none;stroke:#000000;stroke-width:1.5;"/>
    <path clip-path="url(#pb05e3ea0d2)" d="M 884.935526 192.735576 
L 879.582871 198.294047 
" style="fill:none;stroke:#000000;stroke-width:1.5;"/>
    <path clip-path="url(#pb05e3ea0d2)" d="M 884.935526 192.735576 
L 877.922982 196.177729 
" style="fill:none;stroke:#000000;stroke-width:1.5;"/>
    <path clip-path="url(#pb05e3ea0d2)" d="M 889.402279 183.450974 
L 885.180678 189.405517 
" style="fill:none;stroke:#000000;stroke-width:1.5;"/>
    <path clip-path="url(#pb05e3ea0d2)" d="M 889.402279 183.450974 
L 883.816151 187.466147 
" style="fill:none;stroke:#000000;stroke-width:1.5;"/>
   </g>
   <g id="line2d_57">
    <path clip-path="url(#pb05e3ea0d2)" d="M 877.934191 194.198302 
L 880.13182 190.827359 
L 881.945273 187.4019 
L 883.368322 183.936587 
L 884.396522 180.446148 
L 885.027206 176.945306 
L 885.259474 173.448706 
L 885.094163 169.970848 
L 884.53382 166.526018 
L 883.582655 163.128228 
L 882.246494 159.791156 
L 880.53272 156.528088 
L 878.450212 153.351872 
L 876.009276 150.274864 
L 873.221573 147.308891 
L 870.10004 144.465206 
L 866.658813 141.754461 
L 862.913143 139.186667 
L 858.879313 136.771176 
L 854.574555 134.516653 
L 850.016962 132.43106 
L 845.225405 130.52164 
L 840.21945 128.794904 
L 835.019271 127.256623 
L 829.645572 125.911824 
L 824.119504 124.764783 
L 818.462587 123.819028 
L 812.696635 123.07734 
L 806.843682 122.541753 
L 800.925905 122.213566 
L 794.965562 122.093342 
L 788.984916 122.180923 
L 783.006178 122.475437 
L 777.051434 122.975309 
L 771.142593 123.678273 
L 765.30132 124.581384 
L 759.548981 125.681032 
L 753.906588 126.972958 
L 748.394741 128.452264 
L 743.033573 130.113435 
L 737.842702 131.95035 
L 732.841174 133.956301 
L 728.047414 136.124012 
L 723.479175 138.445652 
L 719.153485 140.912864 
L 715.086602 143.516774 
L 711.293959 146.24802 
L 707.790119 149.096772 
L 704.588725 152.052753 
L 701.702447 155.105267 
L 699.142942 158.243227 
L 696.920799 161.455176 
L 695.045495 164.729324 
L 693.525351 168.053574 
L 692.367485 171.415559 
L 691.577769 174.802676 
L 691.160788 178.202123 
L 691.119802 181.600939 
L 691.456707 184.986044 
L 692.172006 188.344288 
L 693.264772 191.662491 
L 694.732631 194.927495 
L 696.571734 198.126212 
L 698.776745 201.24568 
L 701.340828 204.273109 
L 704.255643 207.195947 
L 707.511351 210.001927 
L 711.096623 212.67913 
L 714.998654 215.216043 
L 719.203194 217.601614 
L 723.694578 219.825316 
L 728.455771 221.8772 
L 733.468416 223.747953 
L 738.712903 225.428956 
L 744.16843 226.912335 
L 749.813087 228.191011 
L 755.623943 229.25875 
L 761.577145 230.110205 
L 767.648018 230.740957 
L 773.811182 231.14755 
L 780.04067 231.327521 
L 786.310053 231.279425 
L 792.592573 231.002852 
L 798.861279 230.498442 
L 805.089163 229.767887 
L 811.249307 228.813937 
L 817.315021 227.640383 
L 823.259987 226.25205 
L 829.058401 224.654773 
L 834.685112 222.855368 
L 840.115757 220.861597 
L 845.326888 218.682131 
L 850.296102 216.326497 
L 855.002153 213.80503 
L 859.425062 211.128815 
L 863.54622 208.309622 
L 867.348474 205.359844 
L 870.816207 202.292428 
L 873.935411 199.120797 
L 876.693743 195.858785 
L 877.934191 194.198302 
L 877.934191 194.198302 
" style="fill:none;stroke:#1f77b4;stroke-linecap:square;stroke-width:1.5;"/>
   </g>
   <g id="line2d_58">
    <defs>
     <path d="M 0 3 
C 0.795609 3 1.55874 2.683901 2.12132 2.12132 
C 2.683901 1.55874 3 0.795609 3 0 
C 3 -0.795609 2.683901 -1.55874 2.12132 -2.12132 
C 1.55874 -2.683901 0.795609 -3 0 -3 
C -0.795609 -3 -1.55874 -2.683901 -2.12132 -2.12132 
C -2.683901 -1.55874 -3 -0.795609 -3 0 
C -3 0.795609 -2.683901 1.55874 -2.12132 2.12132 
C -1.55874 2.683901 -0.795609 3 0 3 
z
" id="me9a7fa2ffc" style="stroke:#0000ff;"/>
    </defs>
    <g clip-path="url(#pb05e3ea0d2)">
     <use style="fill:#0000ff;stroke:#0000ff;" x="831.926045" xlink:href="#me9a7fa2ffc" y="184.70995"/>
    </g>
   </g>
  </g>
 </g>
 <defs>
  <clipPath id="p9420e5a943">
   <rect height="271.8" width="380.454545" x="135" y="43.2"/>
  </clipPath>
  <clipPath id="pb05e3ea0d2">
   <rect height="271.8" width="380.454545" x="591.545455" y="43.2"/>
  </clipPath>
 </defs>
</svg>
